<svg xmlns="http://www.w3.org/2000/svg" viewBox="0 0 1920 1080" width="1920" height="1080" role="img"><defs>
      <linearGradient id="heroGrad3" x1="0%" y1="0%" x2="100%" y2="100%">
        <stop offset="0%" stop-color="#B08D57"/>
        <stop offset="100%" stop-color="#4A0C17"/>
      </linearGradient>
      <linearGradient id="foldShade3" x1="0%" y1="0%" x2="0%" y2="100%">
        <stop offset="0%" stop-color="#000000" stop-opacity="0"/>
        <stop offset="100%" stop-color="#000000" stop-opacity="0.35"/>
      </linearGradient>
    </defs><rect width="1920" height="1080" fill="url(#heroGrad3)"/><path d="M -100 195 Q 120 135.0, 240 195.0 Q 360 182.84771477741668, 480 242.84771477741668 Q 600 192.7396831700906, 720 252.7396831700906 Q 840 156.8289882394633, 960 216.8289882394633 Q 1080 103.6021990019945, 1200 163.6021990019945 Q 1320 75.2820741112501, 1440 135.2820741112501 Q 1560 94.33387618087264, 1680 154.33387618087264 Q 1800 145.64454556128806, 1920 205.64454556128806 Q 2040 188.51130756630292, 2160 248.51130756630292 L 2020 1180 L -100 1180 Z" fill="#000000" opacity="0.08"/><path d="M -100 329 Q 120 318.220026966937, 240 386.220026966937 Q 360 324.82400162333613, 480 392.82400162333613 Q 600 280.7988578329306, 720 348.7988578329306 Q 840 221.06804387394726, 960 289.06804387394726 Q 1080 193.01371031570596, 1200 261.01371031570596 Q 1320 218.8902777608007, 1440 286.8902777608007 Q 1560 278.1708634558409, 1680 346.1708634558409 Q 1800 323.83046554552504, 1920 391.83046554552504 Q 2040 319.64908303280885, 2160 387.64908303280885 L 2020 1180 L -100 1180 Z" fill="#000000" opacity="0.11"/><path d="M -100 509 Q 120 502.1066044387518, 240 578.1066044387518 Q 360 449.4753475199295, 480 525.4753475199295 Q 600 383.77483295785424, 720 459.77483295785424 Q 840 357.12274452625996, 960 433.12274452625996 Q 1080 390.66115586103933, 1200 466.66115586103933 Q 1320 457.7853390103594, 1440 533.7853390103594 Q 1560 505.2482688289125, 1680 581.2482688289125 Q 1800 495.3994339965609, 1920 571.3994339965609 Q 2040 436.05153526235665, 2160 512.0515352623567 L 2020 1180 L -100 1180 Z" fill="#000000" opacity="0.14"/><path d="M -100 646 Q 120 573.8540806770288, 240 657.8540806770288 Q 360 502.8359581620949, 480 586.8359581620949 Q 600 478.7503877563315, 720 562.7503877563315 Q 840 520.7035233503838, 960 604.7035233503838 Q 1080 595.4155608394977, 1200 679.4155608394977 Q 1320 643.6203229356697, 1440 727.6203229356697 Q 1560 627.0788313894574, 1680 711.0788313894574 Q 1800 558.9128133486269, 1920 642.9128133486269 Q 2040 493.19574138864834, 2160 577.1957413886483 L 2020 1180 L -100 1180 Z" fill="#000000" opacity="0.08"/><path d="M -100 794 Q 120 632.3741704316706, 240 724.3741704316706 Q 360 612.0343707150168, 480 704.0343707150168 Q 600 663.0608342435264, 720 755.0608342435264 Q 840 744.9762358699479, 960 836.9762358699479 Q 1080 792.8002474093234, 1200 884.8002474093234 Q 1320 768.5959253412847, 1440 860.5959253412847 Q 1560 691.5636246692584, 1680 783.5636246692584 Q 1800 622.810097959005, 1920 714.810097959005 Q 2040 616.8748657500238, 2160 708.8748657500238 L 2020 1180 L -100 1180 Z" fill="#000000" opacity="0.11"/><path d="M -100 947 Q 120 751.1075725336862, 240 851.1075725336862 Q 360 811.7624332456792, 480 911.7624332456792 Q 600 900.369896358105, 720 1000.369896358105 Q 840 946.641079458589, 960 1046.641079458589 Q 1080 913.8708379262455, 1200 1013.8708379262455 Q 1320 828.0545402411478, 1440 928.0545402411478 Q 1560 757.266944952695, 1680 857.266944952695 Q 1800 757.6611207383164, 1920 857.6611207383164 Q 2040 828.9243831527956, 2160 928.9243831527956 L 2020 1180 L -100 1180 Z" fill="#000000" opacity="0.14"/><g fill="#D9BD8C" opacity="0.07"><path d="M 265 68.1 C 310.75 68.1 322.95 107.75 301.6 132.15 C 286.35 148.62 268.05 144.35 266.22 160.82 C 265 174.85 278.42 180.95 289.4 174.85 C 274.15 187.05 246.7 180.95 243.65 162.65 C 240.6 141.3 252.8 126.05 237.55 107.75 C 222.3 86.4 243.65 68.1 265 68.1 Z" transform="rotate(307 265 123)" /></g><g fill="#D9BD8C" opacity="0.07"><path d="M 515 47.8 C 566.0 47.8 579.6 92.0 555.8 119.2 C 538.8 137.56 518.4 132.8 516.36 151.16 C 515 166.8 529.96 173.6 542.2 166.8 C 525.2 180.4 494.6 173.6 491.2 153.2 C 487.8 129.4 501.4 112.4 484.4 92.0 C 467.4 68.2 491.2 47.8 515 47.8 Z" transform="rotate(133 515 109)" /></g><g fill="#D9BD8C" opacity="0.07"><path d="M 1332 294.1 C 1355.25 294.1 1361.45 314.25 1350.6 326.65 C 1342.85 335.02 1333.55 332.85 1332.62 341.22 C 1332 348.35 1338.82 351.45 1344.4 348.35 C 1336.65 354.55 1322.7 351.45 1321.15 342.15 C 1319.6 331.3 1325.8 323.55 1318.05 314.25 C 1310.3 303.4 1321.15 294.1 1332 294.1 Z" transform="rotate(127 1332 322)" /></g><g fill="#D9BD8C" opacity="0.07"><path d="M 784 705.6 C 811.0 705.6 818.2 729.0 805.6 743.4 C 796.6 753.12 785.8 750.6 784.72 760.32 C 784 768.6 791.92 772.2 798.4 768.6 C 789.4 775.8 773.2 772.2 771.4 761.4 C 769.6 748.8 776.8 739.8 767.8 729.0 C 758.8 716.4 771.4 705.6 784 705.6 Z" transform="rotate(67 784 738)" /></g><g fill="#D9BD8C" opacity="0.07"><path d="M 320 125.5 C 368.75 125.5 381.75 167.75 359.0 193.75 C 342.75 211.3 323.25 206.75 321.3 224.3 C 320 239.25 334.3 245.75 346.0 239.25 C 329.75 252.25 300.5 245.75 297.25 226.25 C 294.0 203.5 307.0 187.25 290.75 167.75 C 274.5 145.0 297.25 125.5 320 125.5 Z" transform="rotate(179 320 184)" /></g><g fill="#D9BD8C" opacity="0.07"><path d="M 1251 286.7 C 1301.25 286.7 1314.65 330.25 1291.2 357.05 C 1274.45 375.14 1254.35 370.45 1252.34 388.54 C 1251 403.95 1265.74 410.65 1277.8 403.95 C 1261.05 417.35 1230.9 410.65 1227.55 390.55 C 1224.2 367.1 1237.6 350.35 1220.85 330.25 C 1204.1 306.8 1227.55 286.7 1251 286.7 Z" transform="rotate(195 1251 347)" /></g><g fill="#D9BD8C" opacity="0.07"><path d="M 988 232.1 C 1033.75 232.1 1045.95 271.75 1024.6 296.15 C 1009.35 312.62 991.05 308.35 989.22 324.82 C 988 338.85 1001.42 344.95 1012.4 338.85 C 997.15 351.05 969.7 344.95 966.65 326.65 C 963.6 305.3 975.8 290.05 960.55 271.75 C 945.3 250.4 966.65 232.1 988 232.1 Z" transform="rotate(53 988 287)" /></g><g fill="#D9BD8C" opacity="0.07"><path d="M 690 100.9 C 734.25 100.9 746.05 139.25 725.4 162.85 C 710.65 178.78 692.95 174.65 691.18 190.57999999999998 C 690 204.15 702.98 210.05 713.6 204.15 C 698.85 215.95 672.3 210.05 669.35 192.35 C 666.4 171.7 678.2 156.95 663.45 139.25 C 648.7 118.6 669.35 100.9 690 100.9 Z" transform="rotate(304 690 154)" /></g><g fill="#D9BD8C" opacity="0.07"><path d="M 1008 282.9 C 1059.75 282.9 1073.55 327.75 1049.4 355.35 C 1032.15 373.98 1011.45 369.15 1009.38 387.78 C 1008 403.65 1023.18 410.55 1035.6 403.65 C 1018.35 417.45 987.3 410.55 983.85 389.85 C 980.4 365.7 994.2 348.45 976.95 327.75 C 959.7 303.6 983.85 282.9 1008 282.9 Z" transform="rotate(91 1008 345)" /></g><g fill="#D9BD8C" opacity="0.07"><path d="M 322 48.4 C 362.5 48.4 373.3 83.5 354.4 105.1 C 340.9 119.68 324.7 115.9 323.08 130.48 C 322 142.9 333.88 148.3 343.6 142.9 C 330.1 153.7 305.8 148.3 303.1 132.1 C 300.4 113.2 311.2 99.7 297.7 83.5 C 284.2 64.6 303.1 48.4 322 48.4 Z" transform="rotate(307 322 97)" /></g><g fill="#D9BD8C" opacity="0.07"><path d="M 365 516.2 C 411.5 516.2 423.9 556.5 402.2 581.3 C 386.7 598.04 368.1 593.7 366.24 610.44 C 365 624.7 378.64 630.9 389.8 624.7 C 374.3 637.1 346.4 630.9 343.3 612.3 C 340.2 590.6 352.6 575.1 337.1 556.5 C 321.6 534.8 343.3 516.2 365 516.2 Z" transform="rotate(190 365 572)" /></g><g fill="#D9BD8C" opacity="0.07"><path d="M 217 658.0 C 269.5 658.0 283.5 703.5 259.0 731.5 C 241.5 750.4 220.5 745.5 218.4 764.4 C 217 780.5 232.4 787.5 245.0 780.5 C 227.5 794.5 196.0 787.5 192.5 766.5 C 189.0 742.0 203.0 724.5 185.5 703.5 C 168.0 679.0 192.5 658.0 217 658.0 Z" transform="rotate(247 217 721)" /></g><g fill="#D9BD8C" opacity="0.07"><path d="M 657 717.7 C 699.75 717.7 711.15 754.75 691.2 777.55 C 676.95 792.94 659.85 788.95 658.14 804.34 C 657 817.45 669.54 823.15 679.8 817.45 C 665.55 828.85 639.9 823.15 637.05 806.05 C 634.2 786.1 645.6 771.85 631.35 754.75 C 617.1 734.8 637.05 717.7 657 717.7 Z" transform="rotate(172 657 769)" /></g><g fill="#D9BD8C" opacity="0.07"><path d="M 1374 381.3 C 1398.75 381.3 1405.35 402.75 1393.8 415.95 C 1385.55 424.86 1375.65 422.55 1374.66 431.46 C 1374 439.05 1381.26 442.35 1387.2 439.05 C 1378.95 445.65 1364.1 442.35 1362.45 432.45 C 1360.8 420.9 1367.4 412.65 1359.15 402.75 C 1350.9 391.2 1362.45 381.3 1374 381.3 Z" transform="rotate(117 1374 411)" /></g><rect width="1920" height="1080" fill="url(#foldShade3)"/><rect x="0" y="1066" width="1920" height="6" fill="#D9BD8C" opacity="0.85"/><path d="M 0 1066 L 17.0 1050 L 34 1066 Z" fill="none" stroke="#D9BD8C" stroke-width="1.1" opacity="0.55"/><circle cx="17.0" cy="1046" r="2.1" fill="#D9BD8C" opacity="0.6"/><path d="M 34 1066 L 51.0 1050 L 68 1066 Z" fill="none" stroke="#D9BD8C" stroke-width="1.1" opacity="0.55"/><circle cx="51.0" cy="1046" r="2.1" fill="#D9BD8C" opacity="0.6"/><path d="M 68 1066 L 85.0 1050 L 102 1066 Z" fill="none" stroke="#D9BD8C" stroke-width="1.1" opacity="0.55"/><circle cx="85.0" cy="1046" r="2.1" fill="#D9BD8C" opacity="0.6"/><path d="M 102 1066 L 119.0 1050 L 136 1066 Z" fill="none" stroke="#D9BD8C" stroke-width="1.1" opacity="0.55"/><circle cx="119.0" cy="1046" r="2.1" fill="#D9BD8C" opacity="0.6"/><path d="M 136 1066 L 153.0 1050 L 170 1066 Z" fill="none" stroke="#D9BD8C" stroke-width="1.1" opacity="0.55"/><circle cx="153.0" cy="1046" r="2.1" fill="#D9BD8C" opacity="0.6"/><path d="M 170 1066 L 187.0 1050 L 204 1066 Z" fill="none" stroke="#D9BD8C" stroke-width="1.1" opacity="0.55"/><circle cx="187.0" cy="1046" r="2.1" fill="#D9BD8C" opacity="0.6"/><path d="M 204 1066 L 221.0 1050 L 238 1066 Z" fill="none" stroke="#D9BD8C" stroke-width="1.1" opacity="0.55"/><circle cx="221.0" cy="1046" r="2.1" fill="#D9BD8C" opacity="0.6"/><path d="M 238 1066 L 255.0 1050 L 272 1066 Z" fill="none" stroke="#D9BD8C" stroke-width="1.1" opacity="0.55"/><circle cx="255.0" cy="1046" r="2.1" fill="#D9BD8C" opacity="0.6"/><path d="M 272 1066 L 289.0 1050 L 306 1066 Z" fill="none" stroke="#D9BD8C" stroke-width="1.1" opacity="0.55"/><circle cx="289.0" cy="1046" r="2.1" fill="#D9BD8C" opacity="0.6"/><path d="M 306 1066 L 323.0 1050 L 340 1066 Z" fill="none" stroke="#D9BD8C" stroke-width="1.1" opacity="0.55"/><circle cx="323.0" cy="1046" r="2.1" fill="#D9BD8C" opacity="0.6"/><path d="M 340 1066 L 357.0 1050 L 374 1066 Z" fill="none" stroke="#D9BD8C" stroke-width="1.1" opacity="0.55"/><circle cx="357.0" cy="1046" r="2.1" fill="#D9BD8C" opacity="0.6"/><path d="M 374 1066 L 391.0 1050 L 408 1066 Z" fill="none" stroke="#D9BD8C" stroke-width="1.1" opacity="0.55"/><circle cx="391.0" cy="1046" r="2.1" fill="#D9BD8C" opacity="0.6"/><path d="M 408 1066 L 425.0 1050 L 442 1066 Z" fill="none" stroke="#D9BD8C" stroke-width="1.1" opacity="0.55"/><circle cx="425.0" cy="1046" r="2.1" fill="#D9BD8C" opacity="0.6"/><path d="M 442 1066 L 459.0 1050 L 476 1066 Z" fill="none" stroke="#D9BD8C" stroke-width="1.1" opacity="0.55"/><circle cx="459.0" cy="1046" r="2.1" fill="#D9BD8C" opacity="0.6"/><path d="M 476 1066 L 493.0 1050 L 510 1066 Z" fill="none" stroke="#D9BD8C" stroke-width="1.1" opacity="0.55"/><circle cx="493.0" cy="1046" r="2.1" fill="#D9BD8C" opacity="0.6"/><path d="M 510 1066 L 527.0 1050 L 544 1066 Z" fill="none" stroke="#D9BD8C" stroke-width="1.1" opacity="0.55"/><circle cx="527.0" cy="1046" r="2.1" fill="#D9BD8C" opacity="0.6"/><path d="M 544 1066 L 561.0 1050 L 578 1066 Z" fill="none" stroke="#D9BD8C" stroke-width="1.1" opacity="0.55"/><circle cx="561.0" cy="1046" r="2.1" fill="#D9BD8C" opacity="0.6"/><path d="M 578 1066 L 595.0 1050 L 612 1066 Z" fill="none" stroke="#D9BD8C" stroke-width="1.1" opacity="0.55"/><circle cx="595.0" cy="1046" r="2.1" fill="#D9BD8C" opacity="0.6"/><path d="M 612 1066 L 629.0 1050 L 646 1066 Z" fill="none" stroke="#D9BD8C" stroke-width="1.1" opacity="0.55"/><circle cx="629.0" cy="1046" r="2.1" fill="#D9BD8C" opacity="0.6"/><path d="M 646 1066 L 663.0 1050 L 680 1066 Z" fill="none" stroke="#D9BD8C" stroke-width="1.1" opacity="0.55"/><circle cx="663.0" cy="1046" r="2.1" fill="#D9BD8C" opacity="0.6"/><path d="M 680 1066 L 697.0 1050 L 714 1066 Z" fill="none" stroke="#D9BD8C" stroke-width="1.1" opacity="0.55"/><circle cx="697.0" cy="1046" r="2.1" fill="#D9BD8C" opacity="0.6"/><path d="M 714 1066 L 731.0 1050 L 748 1066 Z" fill="none" stroke="#D9BD8C" stroke-width="1.1" opacity="0.55"/><circle cx="731.0" cy="1046" r="2.1" fill="#D9BD8C" opacity="0.6"/><path d="M 748 1066 L 765.0 1050 L 782 1066 Z" fill="none" stroke="#D9BD8C" stroke-width="1.1" opacity="0.55"/><circle cx="765.0" cy="1046" r="2.1" fill="#D9BD8C" opacity="0.6"/><path d="M 782 1066 L 799.0 1050 L 816 1066 Z" fill="none" stroke="#D9BD8C" stroke-width="1.1" opacity="0.55"/><circle cx="799.0" cy="1046" r="2.1" fill="#D9BD8C" opacity="0.6"/><path d="M 816 1066 L 833.0 1050 L 850 1066 Z" fill="none" stroke="#D9BD8C" stroke-width="1.1" opacity="0.55"/><circle cx="833.0" cy="1046" r="2.1" fill="#D9BD8C" opacity="0.6"/><path d="M 850 1066 L 867.0 1050 L 884 1066 Z" fill="none" stroke="#D9BD8C" stroke-width="1.1" opacity="0.55"/><circle cx="867.0" cy="1046" r="2.1" fill="#D9BD8C" opacity="0.6"/><path d="M 884 1066 L 901.0 1050 L 918 1066 Z" fill="none" stroke="#D9BD8C" stroke-width="1.1" opacity="0.55"/><circle cx="901.0" cy="1046" r="2.1" fill="#D9BD8C" opacity="0.6"/><path d="M 918 1066 L 935.0 1050 L 952 1066 Z" fill="none" stroke="#D9BD8C" stroke-width="1.1" opacity="0.55"/><circle cx="935.0" cy="1046" r="2.1" fill="#D9BD8C" opacity="0.6"/><path d="M 952 1066 L 969.0 1050 L 986 1066 Z" fill="none" stroke="#D9BD8C" stroke-width="1.1" opacity="0.55"/><circle cx="969.0" cy="1046" r="2.1" fill="#D9BD8C" opacity="0.6"/><path d="M 986 1066 L 1003.0 1050 L 1020 1066 Z" fill="none" stroke="#D9BD8C" stroke-width="1.1" opacity="0.55"/><circle cx="1003.0" cy="1046" r="2.1" fill="#D9BD8C" opacity="0.6"/><path d="M 1020 1066 L 1037.0 1050 L 1054 1066 Z" fill="none" stroke="#D9BD8C" stroke-width="1.1" opacity="0.55"/><circle cx="1037.0" cy="1046" r="2.1" fill="#D9BD8C" opacity="0.6"/><path d="M 1054 1066 L 1071.0 1050 L 1088 1066 Z" fill="none" stroke="#D9BD8C" stroke-width="1.1" opacity="0.55"/><circle cx="1071.0" cy="1046" r="2.1" fill="#D9BD8C" opacity="0.6"/><path d="M 1088 1066 L 1105.0 1050 L 1122 1066 Z" fill="none" stroke="#D9BD8C" stroke-width="1.1" opacity="0.55"/><circle cx="1105.0" cy="1046" r="2.1" fill="#D9BD8C" opacity="0.6"/><path d="M 1122 1066 L 1139.0 1050 L 1156 1066 Z" fill="none" stroke="#D9BD8C" stroke-width="1.1" opacity="0.55"/><circle cx="1139.0" cy="1046" r="2.1" fill="#D9BD8C" opacity="0.6"/><path d="M 1156 1066 L 1173.0 1050 L 1190 1066 Z" fill="none" stroke="#D9BD8C" stroke-width="1.1" opacity="0.55"/><circle cx="1173.0" cy="1046" r="2.1" fill="#D9BD8C" opacity="0.6"/><path d="M 1190 1066 L 1207.0 1050 L 1224 1066 Z" fill="none" stroke="#D9BD8C" stroke-width="1.1" opacity="0.55"/><circle cx="1207.0" cy="1046" r="2.1" fill="#D9BD8C" opacity="0.6"/><path d="M 1224 1066 L 1241.0 1050 L 1258 1066 Z" fill="none" stroke="#D9BD8C" stroke-width="1.1" opacity="0.55"/><circle cx="1241.0" cy="1046" r="2.1" fill="#D9BD8C" opacity="0.6"/><path d="M 1258 1066 L 1275.0 1050 L 1292 1066 Z" fill="none" stroke="#D9BD8C" stroke-width="1.1" opacity="0.55"/><circle cx="1275.0" cy="1046" r="2.1" fill="#D9BD8C" opacity="0.6"/><path d="M 1292 1066 L 1309.0 1050 L 1326 1066 Z" fill="none" stroke="#D9BD8C" stroke-width="1.1" opacity="0.55"/><circle cx="1309.0" cy="1046" r="2.1" fill="#D9BD8C" opacity="0.6"/><path d="M 1326 1066 L 1343.0 1050 L 1360 1066 Z" fill="none" stroke="#D9BD8C" stroke-width="1.1" opacity="0.55"/><circle cx="1343.0" cy="1046" r="2.1" fill="#D9BD8C" opacity="0.6"/><path d="M 1360 1066 L 1377.0 1050 L 1394 1066 Z" fill="none" stroke="#D9BD8C" stroke-width="1.1" opacity="0.55"/><circle cx="1377.0" cy="1046" r="2.1" fill="#D9BD8C" opacity="0.6"/><path d="M 1394 1066 L 1411.0 1050 L 1428 1066 Z" fill="none" stroke="#D9BD8C" stroke-width="1.1" opacity="0.55"/><circle cx="1411.0" cy="1046" r="2.1" fill="#D9BD8C" opacity="0.6"/><path d="M 1428 1066 L 1445.0 1050 L 1462 1066 Z" fill="none" stroke="#D9BD8C" stroke-width="1.1" opacity="0.55"/><circle cx="1445.0" cy="1046" r="2.1" fill="#D9BD8C" opacity="0.6"/><path d="M 1462 1066 L 1479.0 1050 L 1496 1066 Z" fill="none" stroke="#D9BD8C" stroke-width="1.1" opacity="0.55"/><circle cx="1479.0" cy="1046" r="2.1" fill="#D9BD8C" opacity="0.6"/><path d="M 1496 1066 L 1513.0 1050 L 1530 1066 Z" fill="none" stroke="#D9BD8C" stroke-width="1.1" opacity="0.55"/><circle cx="1513.0" cy="1046" r="2.1" fill="#D9BD8C" opacity="0.6"/><path d="M 1530 1066 L 1547.0 1050 L 1564 1066 Z" fill="none" stroke="#D9BD8C" stroke-width="1.1" opacity="0.55"/><circle cx="1547.0" cy="1046" r="2.1" fill="#D9BD8C" opacity="0.6"/><path d="M 1564 1066 L 1581.0 1050 L 1598 1066 Z" fill="none" stroke="#D9BD8C" stroke-width="1.1" opacity="0.55"/><circle cx="1581.0" cy="1046" r="2.1" fill="#D9BD8C" opacity="0.6"/><path d="M 1598 1066 L 1615.0 1050 L 1632 1066 Z" fill="none" stroke="#D9BD8C" stroke-width="1.1" opacity="0.55"/><circle cx="1615.0" cy="1046" r="2.1" fill="#D9BD8C" opacity="0.6"/><path d="M 1632 1066 L 1649.0 1050 L 1666 1066 Z" fill="none" stroke="#D9BD8C" stroke-width="1.1" opacity="0.55"/><circle cx="1649.0" cy="1046" r="2.1" fill="#D9BD8C" opacity="0.6"/><path d="M 1666 1066 L 1683.0 1050 L 1700 1066 Z" fill="none" stroke="#D9BD8C" stroke-width="1.1" opacity="0.55"/><circle cx="1683.0" cy="1046" r="2.1" fill="#D9BD8C" opacity="0.6"/><path d="M 1700 1066 L 1717.0 1050 L 1734 1066 Z" fill="none" stroke="#D9BD8C" stroke-width="1.1" opacity="0.55"/><circle cx="1717.0" cy="1046" r="2.1" fill="#D9BD8C" opacity="0.6"/><path d="M 1734 1066 L 1751.0 1050 L 1768 1066 Z" fill="none" stroke="#D9BD8C" stroke-width="1.1" opacity="0.55"/><circle cx="1751.0" cy="1046" r="2.1" fill="#D9BD8C" opacity="0.6"/><path d="M 1768 1066 L 1785.0 1050 L 1802 1066 Z" fill="none" stroke="#D9BD8C" stroke-width="1.1" opacity="0.55"/><circle cx="1785.0" cy="1046" r="2.1" fill="#D9BD8C" opacity="0.6"/><path d="M 1802 1066 L 1819.0 1050 L 1836 1066 Z" fill="none" stroke="#D9BD8C" stroke-width="1.1" opacity="0.55"/><circle cx="1819.0" cy="1046" r="2.1" fill="#D9BD8C" opacity="0.6"/><path d="M 1836 1066 L 1853.0 1050 L 1870 1066 Z" fill="none" stroke="#D9BD8C" stroke-width="1.1" opacity="0.55"/><circle cx="1853.0" cy="1046" r="2.1" fill="#D9BD8C" opacity="0.6"/><path d="M 1870 1066 L 1887.0 1050 L 1904 1066 Z" fill="none" stroke="#D9BD8C" stroke-width="1.1" opacity="0.55"/><circle cx="1887.0" cy="1046" r="2.1" fill="#D9BD8C" opacity="0.6"/><path d="M 1904 1066 L 1921.0 1050 L 1938 1066 Z" fill="none" stroke="#D9BD8C" stroke-width="1.1" opacity="0.55"/><circle cx="1921.0" cy="1046" r="2.1" fill="#D9BD8C" opacity="0.6"/><path d="M 1938 1066 L 1955.0 1050 L 1972 1066 Z" fill="none" stroke="#D9BD8C" stroke-width="1.1" opacity="0.55"/><circle cx="1955.0" cy="1046" r="2.1" fill="#D9BD8C" opacity="0.6"/></svg>