<svg xmlns="http://www.w3.org/2000/svg" viewBox="0 0 1100 800" width="1100" height="800" role="img"><defs>
      <linearGradient id="wGrad4" x1="0%" y1="0%" x2="100%" y2="100%">
        <stop offset="0%" stop-color="#3D0A14"/>
        <stop offset="100%" stop-color="#6B1220"/>
      </linearGradient>
      <pattern id="weave4" width="18" height="18" patternUnits="userSpaceOnUse" patternTransform="rotate(45)">
        <rect width="18" height="18" fill="none"/>
        <line x1="0" y1="0" x2="0" y2="18" stroke="#D9BD8C" stroke-width="1" opacity="0.10"/>
        <line x1="0" y1="0" x2="18" y2="0" stroke="#D9BD8C" stroke-width="1" opacity="0.10"/>
      </pattern>
    </defs><rect width="1100" height="800" fill="url(#wGrad4)"/><rect width="1100" height="800" fill="url(#weave4)"/><circle cx="368.4764087933003" cy="369.8688480631823" r="224.00000000000003" fill="none" stroke="#FBF7EF" stroke-width="1.4" stroke-dasharray="none" opacity="0.28"/><circle cx="368.4764087933003" cy="369.8688480631823" r="174.72000000000003" fill="none" stroke="#FBF7EF" stroke-width="0.7" stroke-dasharray="none" opacity="0.28"/><circle cx="368.4764087933003" cy="369.8688480631823" r="123.20000000000003" fill="none" stroke="#FBF7EF" stroke-width="1.4" stroke-dasharray="3 5" opacity="0.28"/><circle cx="619.3564087933004" cy="369.8688480631823" r="10.08" fill="#FBF7EF" opacity="0.28"/><circle cx="585.7448620947404" cy="495.3088480631823" r="10.08" fill="#FBF7EF" opacity="0.28"/><circle cx="493.9164087933004" cy="587.1373013646223" r="10.08" fill="#FBF7EF" opacity="0.28"/><circle cx="368.4764087933003" cy="620.7488480631823" r="10.08" fill="#FBF7EF" opacity="0.28"/><circle cx="243.03640879330035" cy="587.1373013646223" r="10.08" fill="#FBF7EF" opacity="0.28"/><circle cx="151.2079554918603" cy="495.3088480631823" r="10.08" fill="#FBF7EF" opacity="0.28"/><circle cx="117.59640879330027" cy="369.8688480631824" r="10.08" fill="#FBF7EF" opacity="0.28"/><circle cx="151.20795549186028" cy="244.4288480631824" r="10.08" fill="#FBF7EF" opacity="0.28"/><circle cx="243.03640879330018" cy="152.6003947617424" r="10.08" fill="#FBF7EF" opacity="0.28"/><circle cx="368.47640879330027" cy="118.98884806318227" r="10.08" fill="#FBF7EF" opacity="0.28"/><circle cx="493.9164087933004" cy="152.60039476174234" r="10.08" fill="#FBF7EF" opacity="0.28"/><circle cx="585.7448620947403" cy="244.4288480631822" r="10.08" fill="#FBF7EF" opacity="0.28"/><g fill="#D9BD8C" opacity="0.18"><path d="M 368.4764087933003 211.46884806318232 C 500.4764087933003 211.46884806318232 535.6764087933003 325.8688480631823 474.0764087933003 396.2688480631823 C 430.0764087933003 443.78884806318234 377.27640879330033 431.46884806318235 371.9964087933003 478.98884806318233 C 368.4764087933003 519.4688480631823 407.1964087933003 537.0688480631823 438.87640879330036 519.4688480631823 C 394.8764087933003 554.6688480631824 315.6764087933003 537.0688480631823 306.87640879330036 484.2688480631823 C 298.0764087933003 422.66884806318234 333.27640879330033 378.66884806318234 289.27640879330033 325.8688480631823 C 245.27640879330033 264.2688480631823 306.87640879330036 211.46884806318232 368.4764087933003 211.46884806318232 Z" transform="rotate(1 368.4764087933003 369.8688480631823)" /></g></svg>