<svg xmlns="http://www.w3.org/2000/svg" viewBox="0 0 900 950" width="900" height="950" role="img"><defs>
      <linearGradient id="wGrad11" x1="0%" y1="0%" x2="100%" y2="100%">
        <stop offset="0%" stop-color="#1E4638"/>
        <stop offset="100%" stop-color="#142F26"/>
      </linearGradient>
      <pattern id="weave11" width="18" height="18" patternUnits="userSpaceOnUse" patternTransform="rotate(45)">
        <rect width="18" height="18" fill="none"/>
        <line x1="0" y1="0" x2="0" y2="18" stroke="#D9BD8C" stroke-width="1" opacity="0.10"/>
        <line x1="0" y1="0" x2="18" y2="0" stroke="#D9BD8C" stroke-width="1" opacity="0.10"/>
      </pattern>
    </defs><rect width="900" height="950" fill="url(#wGrad11)"/><rect width="900" height="950" fill="url(#weave11)"/><circle cx="347.933227191648" cy="409.2404196722767" r="252.00000000000003" fill="none" stroke="#FBF7EF" stroke-width="1.4" stroke-dasharray="none" opacity="0.28"/><circle cx="347.933227191648" cy="409.2404196722767" r="196.56000000000003" fill="none" stroke="#FBF7EF" stroke-width="0.7" stroke-dasharray="none" opacity="0.28"/><circle cx="347.933227191648" cy="409.2404196722767" r="138.60000000000002" fill="none" stroke="#FBF7EF" stroke-width="1.4" stroke-dasharray="3 5" opacity="0.28"/><circle cx="630.173227191648" cy="409.2404196722767" r="11.340000000000002" fill="#FBF7EF" opacity="0.28"/><circle cx="592.360237155768" cy="550.3604196722767" r="11.340000000000002" fill="#FBF7EF" opacity="0.28"/><circle cx="489.05322719164803" cy="653.6674296363967" r="11.340000000000002" fill="#FBF7EF" opacity="0.28"/><circle cx="347.933227191648" cy="691.4804196722768" r="11.340000000000002" fill="#FBF7EF" opacity="0.28"/><circle cx="206.813227191648" cy="653.6674296363967" r="11.340000000000002" fill="#FBF7EF" opacity="0.28"/><circle cx="103.50621722752794" cy="550.3604196722767" r="11.340000000000002" fill="#FBF7EF" opacity="0.28"/><circle cx="65.6932271916479" cy="409.24041967227674" r="11.340000000000002" fill="#FBF7EF" opacity="0.28"/><circle cx="103.50621722752791" cy="268.12041967227674" r="11.340000000000002" fill="#FBF7EF" opacity="0.28"/><circle cx="206.81322719164783" cy="164.81340970815674" r="11.340000000000002" fill="#FBF7EF" opacity="0.28"/><circle cx="347.9332271916479" cy="127.00041967227662" r="11.340000000000002" fill="#FBF7EF" opacity="0.28"/><circle cx="489.05322719164803" cy="164.81340970815668" r="11.340000000000002" fill="#FBF7EF" opacity="0.28"/><circle cx="592.3602371557679" cy="268.1204196722765" r="11.340000000000002" fill="#FBF7EF" opacity="0.28"/><g fill="#D9BD8C" opacity="0.18"><path d="M 347.933227191648 231.04041967227667 C 496.433227191648 231.04041967227667 536.0332271916479 359.7404196722767 466.733227191648 438.9404196722767 C 417.233227191648 492.4004196722767 357.83322719164795 478.5404196722767 351.89322719164795 532.0004196722767 C 347.933227191648 577.5404196722767 391.493227191648 597.3404196722767 427.13322719164796 577.5404196722767 C 377.63322719164796 617.1404196722767 288.533227191648 597.3404196722767 278.63322719164796 537.9404196722767 C 268.733227191648 468.64041967227666 308.33322719164795 419.14041967227666 258.83322719164795 359.7404196722767 C 209.33322719164798 290.4404196722767 278.63322719164796 231.04041967227667 347.933227191648 231.04041967227667 Z" transform="rotate(309 347.933227191648 409.2404196722767)" /></g></svg>