<svg xmlns="http://www.w3.org/2000/svg" viewBox="0 0 800 1000" width="800" height="1000" role="img"><defs>
      <linearGradient id="wGrad0" x1="0%" y1="0%" x2="100%" y2="100%">
        <stop offset="0%" stop-color="#6B1220"/>
        <stop offset="100%" stop-color="#3D0A14"/>
      </linearGradient>
      <pattern id="weave0" width="18" height="18" patternUnits="userSpaceOnUse" patternTransform="rotate(45)">
        <rect width="18" height="18" fill="none"/>
        <line x1="0" y1="0" x2="0" y2="18" stroke="#D9BD8C" stroke-width="1" opacity="0.10"/>
        <line x1="0" y1="0" x2="18" y2="0" stroke="#D9BD8C" stroke-width="1" opacity="0.10"/>
      </pattern>
    </defs><rect width="800" height="1000" fill="url(#wGrad0)"/><rect width="800" height="1000" fill="url(#weave0)"/><circle cx="338.459686188462" cy="401.51834722493993" r="224.00000000000003" fill="none" stroke="#FBF7EF" stroke-width="1.4" stroke-dasharray="none" opacity="0.28"/><circle cx="338.459686188462" cy="401.51834722493993" r="174.72000000000003" fill="none" stroke="#FBF7EF" stroke-width="0.7" stroke-dasharray="none" opacity="0.28"/><circle cx="338.459686188462" cy="401.51834722493993" r="123.20000000000003" fill="none" stroke="#FBF7EF" stroke-width="1.4" stroke-dasharray="3 5" opacity="0.28"/><circle cx="589.3396861884621" cy="401.51834722493993" r="10.08" fill="#FBF7EF" opacity="0.28"/><circle cx="555.728139489902" cy="526.95834722494" r="10.08" fill="#FBF7EF" opacity="0.28"/><circle cx="463.89968618846206" cy="618.7868005263799" r="10.08" fill="#FBF7EF" opacity="0.28"/><circle cx="338.459686188462" cy="652.3983472249399" r="10.08" fill="#FBF7EF" opacity="0.28"/><circle cx="213.01968618846203" cy="618.7868005263799" r="10.08" fill="#FBF7EF" opacity="0.28"/><circle cx="121.19123288702198" cy="526.95834722494" r="10.08" fill="#FBF7EF" opacity="0.28"/><circle cx="87.57968618846195" cy="401.51834722494" r="10.08" fill="#FBF7EF" opacity="0.28"/><circle cx="121.19123288702195" cy="276.07834722494" r="10.08" fill="#FBF7EF" opacity="0.28"/><circle cx="213.01968618846186" cy="184.2498939235" r="10.08" fill="#FBF7EF" opacity="0.28"/><circle cx="338.45968618846194" cy="150.63834722493988" r="10.08" fill="#FBF7EF" opacity="0.28"/><circle cx="463.89968618846206" cy="184.24989392349994" r="10.08" fill="#FBF7EF" opacity="0.28"/><circle cx="555.7281394899019" cy="276.07834722493976" r="10.08" fill="#FBF7EF" opacity="0.28"/><g fill="#D9BD8C" opacity="0.18"><path d="M 338.459686188462 243.11834722493992 C 470.459686188462 243.11834722493992 505.659686188462 357.51834722493993 444.059686188462 427.9183472249399 C 400.059686188462 475.43834722493995 347.259686188462 463.11834722493995 341.979686188462 510.63834722493993 C 338.459686188462 551.11834722494 377.17968618846203 568.7183472249399 408.859686188462 551.11834722494 C 364.859686188462 586.31834722494 285.659686188462 568.7183472249399 276.859686188462 515.9183472249399 C 268.059686188462 454.31834722493994 303.259686188462 410.31834722493994 259.259686188462 357.51834722493993 C 215.259686188462 295.9183472249399 276.859686188462 243.11834722493992 338.459686188462 243.11834722493992 Z" transform="rotate(47 338.459686188462 401.51834722493993)" /></g></svg>