<svg xmlns="http://www.w3.org/2000/svg" viewBox="0 0 800 900" width="800" height="900" role="img"><defs>
      <linearGradient id="wGrad7" x1="0%" y1="0%" x2="100%" y2="100%">
        <stop offset="0%" stop-color="#B08D57"/>
        <stop offset="100%" stop-color="#4A0C17"/>
      </linearGradient>
      <pattern id="weave7" width="18" height="18" patternUnits="userSpaceOnUse" patternTransform="rotate(45)">
        <rect width="18" height="18" fill="none"/>
        <line x1="0" y1="0" x2="0" y2="18" stroke="#D9BD8C" stroke-width="1" opacity="0.10"/>
        <line x1="0" y1="0" x2="18" y2="0" stroke="#D9BD8C" stroke-width="1" opacity="0.10"/>
      </pattern>
    </defs><rect width="800" height="900" fill="url(#wGrad7)"/><rect width="800" height="900" fill="url(#weave7)"/><circle cx="450.6440039247936" cy="307.3064289881251" r="224.00000000000003" fill="none" stroke="#FBF7EF" stroke-width="1.4" stroke-dasharray="none" opacity="0.28"/><circle cx="450.6440039247936" cy="307.3064289881251" r="174.72000000000003" fill="none" stroke="#FBF7EF" stroke-width="0.7" stroke-dasharray="none" opacity="0.28"/><circle cx="450.6440039247936" cy="307.3064289881251" r="123.20000000000003" fill="none" stroke="#FBF7EF" stroke-width="1.4" stroke-dasharray="3 5" opacity="0.28"/><circle cx="701.5240039247936" cy="307.3064289881251" r="10.08" fill="#FBF7EF" opacity="0.28"/><circle cx="667.9124572262336" cy="432.7464289881251" r="10.08" fill="#FBF7EF" opacity="0.28"/><circle cx="576.0840039247937" cy="524.574882289565" r="10.08" fill="#FBF7EF" opacity="0.28"/><circle cx="450.6440039247936" cy="558.1864289881252" r="10.08" fill="#FBF7EF" opacity="0.28"/><circle cx="325.2040039247936" cy="524.5748822895652" r="10.08" fill="#FBF7EF" opacity="0.28"/><circle cx="233.37555062335358" cy="432.7464289881251" r="10.08" fill="#FBF7EF" opacity="0.28"/><circle cx="199.76400392479354" cy="307.30642898812516" r="10.08" fill="#FBF7EF" opacity="0.28"/><circle cx="233.37555062335355" cy="181.86642898812516" r="10.08" fill="#FBF7EF" opacity="0.28"/><circle cx="325.2040039247935" cy="90.03797568668517" r="10.08" fill="#FBF7EF" opacity="0.28"/><circle cx="450.64400392479354" cy="56.42642898812505" r="10.08" fill="#FBF7EF" opacity="0.28"/><circle cx="576.0840039247937" cy="90.03797568668512" r="10.08" fill="#FBF7EF" opacity="0.28"/><circle cx="667.9124572262335" cy="181.86642898812497" r="10.08" fill="#FBF7EF" opacity="0.28"/><g fill="#D9BD8C" opacity="0.18"><path d="M 450.6440039247936 148.9064289881251 C 582.6440039247937 148.9064289881251 617.8440039247936 263.3064289881251 556.2440039247936 333.7064289881251 C 512.2440039247936 381.2264289881251 459.4440039247936 368.90642898812507 454.1640039247936 416.4264289881251 C 450.6440039247936 456.90642898812507 489.36400392479356 474.5064289881251 521.0440039247936 456.90642898812507 C 477.04400392479357 492.1064289881251 397.8440039247936 474.5064289881251 389.0440039247936 421.70642898812514 C 380.24400392479356 360.1064289881251 415.4440039247936 316.1064289881251 371.4440039247936 263.3064289881251 C 327.4440039247936 201.7064289881251 389.0440039247936 148.9064289881251 450.6440039247936 148.9064289881251 Z" transform="rotate(146 450.6440039247936 307.3064289881251)" /></g></svg>