<svg xmlns="http://www.w3.org/2000/svg" viewBox="0 0 950 750" width="950" height="750" role="img"><defs>
      <linearGradient id="wGrad8" x1="0%" y1="0%" x2="100%" y2="100%">
        <stop offset="0%" stop-color="#EDE0CB"/>
        <stop offset="100%" stop-color="#B08D57"/>
      </linearGradient>
      <pattern id="weave8" width="18" height="18" patternUnits="userSpaceOnUse" patternTransform="rotate(45)">
        <rect width="18" height="18" fill="none"/>
        <line x1="0" y1="0" x2="0" y2="18" stroke="#D9BD8C" stroke-width="1" opacity="0.10"/>
        <line x1="0" y1="0" x2="18" y2="0" stroke="#D9BD8C" stroke-width="1" opacity="0.10"/>
      </pattern>
    </defs><rect width="950" height="750" fill="url(#wGrad8)"/><rect width="950" height="750" fill="url(#weave8)"/><circle cx="588.3621750149027" cy="357.1247695349284" r="210.00000000000003" fill="none" stroke="#FBF7EF" stroke-width="1.4" stroke-dasharray="none" opacity="0.28"/><circle cx="588.3621750149027" cy="357.1247695349284" r="163.80000000000004" fill="none" stroke="#FBF7EF" stroke-width="0.7" stroke-dasharray="none" opacity="0.28"/><circle cx="588.3621750149027" cy="357.1247695349284" r="115.50000000000003" fill="none" stroke="#FBF7EF" stroke-width="1.4" stroke-dasharray="3 5" opacity="0.28"/><circle cx="823.5621750149028" cy="357.1247695349284" r="9.450000000000001" fill="#FBF7EF" opacity="0.28"/><circle cx="792.0513499850027" cy="474.72476953492844" r="9.450000000000001" fill="#FBF7EF" opacity="0.28"/><circle cx="705.9621750149028" cy="560.8139445050284" r="9.450000000000001" fill="#FBF7EF" opacity="0.28"/><circle cx="588.3621750149027" cy="592.3247695349285" r="9.450000000000001" fill="#FBF7EF" opacity="0.28"/><circle cx="470.76217501490277" cy="560.8139445050284" r="9.450000000000001" fill="#FBF7EF" opacity="0.28"/><circle cx="384.67300004480273" cy="474.72476953492844" r="9.450000000000001" fill="#FBF7EF" opacity="0.28"/><circle cx="353.1621750149027" cy="357.1247695349285" r="9.450000000000001" fill="#FBF7EF" opacity="0.28"/><circle cx="384.6730000448027" cy="239.52476953492845" r="9.450000000000001" fill="#FBF7EF" opacity="0.28"/><circle cx="470.7621750149026" cy="153.43559456482848" r="9.450000000000001" fill="#FBF7EF" opacity="0.28"/><circle cx="588.3621750149027" cy="121.92476953492837" r="9.450000000000001" fill="#FBF7EF" opacity="0.28"/><circle cx="705.9621750149028" cy="153.43559456482842" r="9.450000000000001" fill="#FBF7EF" opacity="0.28"/><circle cx="792.0513499850026" cy="239.52476953492828" r="9.450000000000001" fill="#FBF7EF" opacity="0.28"/><g fill="#D9BD8C" opacity="0.18"><path d="M 588.3621750149027 208.62476953492842 C 712.1121750149027 208.62476953492842 745.1121750149027 315.8747695349284 687.3621750149027 381.8747695349284 C 646.1121750149027 426.42476953492843 596.6121750149027 414.8747695349284 591.6621750149027 459.42476953492843 C 588.3621750149027 497.3747695349284 624.6621750149027 513.8747695349284 654.3621750149027 497.3747695349284 C 613.1121750149027 530.3747695349284 538.8621750149027 513.8747695349284 530.6121750149027 464.3747695349284 C 522.3621750149027 406.6247695349284 555.3621750149027 365.3747695349284 514.1121750149027 315.8747695349284 C 472.86217501490273 258.1247695349284 530.6121750149027 208.62476953492842 588.3621750149027 208.62476953492842 Z" transform="rotate(285 588.3621750149027 357.1247695349284)" /></g></svg>