<svg xmlns="http://www.w3.org/2000/svg" viewBox="0 0 1920 1080" width="1920" height="1080" role="img"><defs>
      <linearGradient id="heroGrad1" x1="0%" y1="0%" x2="100%" y2="100%">
        <stop offset="0%" stop-color="#6B1220"/>
        <stop offset="100%" stop-color="#3D0A14"/>
      </linearGradient>
      <linearGradient id="foldShade1" x1="0%" y1="0%" x2="0%" y2="100%">
        <stop offset="0%" stop-color="#000000" stop-opacity="0"/>
        <stop offset="100%" stop-color="#000000" stop-opacity="0.35"/>
      </linearGradient>
    </defs><rect width="1920" height="1080" fill="url(#heroGrad1)"/><path d="M -100 187 Q 120 127.0, 240 187.0 Q 360 174.84771477741668, 480 234.84771477741668 Q 600 184.7396831700906, 720 244.7396831700906 Q 840 148.8289882394633, 960 208.8289882394633 Q 1080 95.6021990019945, 1200 155.6021990019945 Q 1320 67.28207411125008, 1440 127.28207411125008 Q 1560 86.33387618087264, 1680 146.33387618087264 Q 1800 137.64454556128806, 1920 197.64454556128806 Q 2040 180.51130756630292, 2160 240.51130756630292 L 2020 1180 L -100 1180 Z" fill="#000000" opacity="0.08"/><path d="M -100 354 Q 120 343.220026966937, 240 411.220026966937 Q 360 349.82400162333613, 480 417.82400162333613 Q 600 305.7988578329306, 720 373.7988578329306 Q 840 246.06804387394726, 960 314.06804387394726 Q 1080 218.01371031570596, 1200 286.01371031570596 Q 1320 243.8902777608007, 1440 311.8902777608007 Q 1560 303.1708634558409, 1680 371.1708634558409 Q 1800 348.83046554552504, 1920 416.83046554552504 Q 2040 344.64908303280885, 2160 412.64908303280885 L 2020 1180 L -100 1180 Z" fill="#000000" opacity="0.11"/><path d="M -100 462 Q 120 455.1066044387518, 240 531.1066044387518 Q 360 402.4753475199296, 480 478.4753475199296 Q 600 336.77483295785424, 720 412.77483295785424 Q 840 310.12274452625996, 960 386.12274452625996 Q 1080 343.66115586103933, 1200 419.66115586103933 Q 1320 410.7853390103594, 1440 486.7853390103594 Q 1560 458.2482688289125, 1680 534.2482688289125 Q 1800 448.3994339965609, 1920 524.3994339965609 Q 2040 389.0515352623567, 2160 465.0515352623567 L 2020 1180 L -100 1180 Z" fill="#000000" opacity="0.14"/><path d="M -100 658 Q 120 585.8540806770288, 240 669.8540806770288 Q 360 514.8359581620949, 480 598.8359581620949 Q 600 490.7503877563315, 720 574.7503877563315 Q 840 532.7035233503838, 960 616.7035233503838 Q 1080 607.4155608394977, 1200 691.4155608394977 Q 1320 655.6203229356697, 1440 739.6203229356697 Q 1560 639.0788313894574, 1680 723.0788313894574 Q 1800 570.9128133486269, 1920 654.9128133486269 Q 2040 505.19574138864834, 2160 589.1957413886483 L 2020 1180 L -100 1180 Z" fill="#000000" opacity="0.08"/><path d="M -100 784 Q 120 622.3741704316706, 240 714.3741704316706 Q 360 602.0343707150168, 480 694.0343707150168 Q 600 653.0608342435264, 720 745.0608342435264 Q 840 734.9762358699479, 960 826.9762358699479 Q 1080 782.8002474093234, 1200 874.8002474093234 Q 1320 758.5959253412847, 1440 850.5959253412847 Q 1560 681.5636246692584, 1680 773.5636246692584 Q 1800 612.810097959005, 1920 704.810097959005 Q 2040 606.8748657500238, 2160 698.8748657500238 L 2020 1180 L -100 1180 Z" fill="#000000" opacity="0.11"/><path d="M -100 959 Q 120 763.1075725336862, 240 863.1075725336862 Q 360 823.7624332456792, 480 923.7624332456792 Q 600 912.369896358105, 720 1012.369896358105 Q 840 958.641079458589, 960 1058.641079458589 Q 1080 925.8708379262455, 1200 1025.8708379262455 Q 1320 840.0545402411478, 1440 940.0545402411478 Q 1560 769.266944952695, 1680 869.266944952695 Q 1800 769.6611207383164, 1920 869.6611207383164 Q 2040 840.9243831527956, 2160 940.9243831527956 L 2020 1180 L -100 1180 Z" fill="#000000" opacity="0.14"/><g fill="#D9BD8C" opacity="0.07"><path d="M 217 766.0 C 254.5 766.0 264.5 798.5 247.0 818.5 C 234.5 832.0 219.5 828.5 218.0 842.0 C 217 853.5 228.0 858.5 237.0 853.5 C 224.5 863.5 202.0 858.5 199.5 843.5 C 197.0 826.0 207.0 813.5 194.5 798.5 C 182.0 781.0 199.5 766.0 217 766.0 Z" transform="rotate(215 217 811)" /></g><g fill="#D9BD8C" opacity="0.07"><path d="M 87 324.0 C 124.5 324.0 134.5 356.5 117.0 376.5 C 104.5 390.0 89.5 386.5 88.0 400.0 C 87 411.5 98.0 416.5 107.0 411.5 C 94.5 421.5 72.0 416.5 69.5 401.5 C 67.0 384.0 77.0 371.5 64.5 356.5 C 52.0 339.0 69.5 324.0 87 324.0 Z" transform="rotate(358 87 369)" /></g><g fill="#D9BD8C" opacity="0.07"><path d="M 1501 724.0 C 1546.0 724.0 1558.0 763.0 1537.0 787.0 C 1522.0 803.2 1504.0 799.0 1502.2 815.2 C 1501 829.0 1514.2 835.0 1525.0 829.0 C 1510.0 841.0 1483.0 835.0 1480.0 817.0 C 1477.0 796.0 1489.0 781.0 1474.0 763.0 C 1459.0 742.0 1480.0 724.0 1501 724.0 Z" transform="rotate(317 1501 778)" /></g><g fill="#D9BD8C" opacity="0.07"><path d="M 1623 304.8 C 1666.5 304.8 1678.1 342.5 1657.8 365.7 C 1643.3 381.36 1625.9 377.3 1624.16 392.96 C 1623 406.3 1635.76 412.1 1646.2 406.3 C 1631.7 417.9 1605.6 412.1 1602.7 394.7 C 1599.8 374.4 1611.4 359.9 1596.9 342.5 C 1582.4 322.2 1602.7 304.8 1623 304.8 Z" transform="rotate(246 1623 357)" /></g><g fill="#D9BD8C" opacity="0.07"><path d="M 1225 650.0 C 1270.0 650.0 1282.0 689.0 1261.0 713.0 C 1246.0 729.2 1228.0 725.0 1226.2 741.2 C 1225 755.0 1238.2 761.0 1249.0 755.0 C 1234.0 767.0 1207.0 761.0 1204.0 743.0 C 1201.0 722.0 1213.0 707.0 1198.0 689.0 C 1183.0 668.0 1204.0 650.0 1225 650.0 Z" transform="rotate(71 1225 704)" /></g><g fill="#D9BD8C" opacity="0.07"><path d="M 1240 538.3 C 1264.75 538.3 1271.35 559.75 1259.8 572.95 C 1251.55 581.86 1241.65 579.55 1240.66 588.46 C 1240 596.05 1247.26 599.35 1253.2 596.05 C 1244.95 602.65 1230.1 599.35 1228.45 589.45 C 1226.8 577.9 1233.4 569.65 1225.15 559.75 C 1216.9 548.2 1228.45 538.3 1240 538.3 Z" transform="rotate(274 1240 568)" /></g><g fill="#D9BD8C" opacity="0.07"><path d="M 550 262.2 C 581.5 262.2 589.9 289.5 575.2 306.3 C 564.7 317.64 552.1 314.7 550.84 326.04 C 550 335.7 559.24 339.9 566.8 335.7 C 556.3 344.1 537.4 339.9 535.3 327.3 C 533.2 312.6 541.6 302.1 531.1 289.5 C 520.6 274.8 535.3 262.2 550 262.2 Z" transform="rotate(7 550 300)" /></g><g fill="#D9BD8C" opacity="0.07"><path d="M 693 149.5 C 726.75 149.5 735.75 178.75 720.0 196.75 C 708.75 208.9 695.25 205.75 693.9 217.9 C 693 228.25 702.9 232.75 711.0 228.25 C 699.75 237.25 679.5 232.75 677.25 219.25 C 675.0 203.5 684.0 192.25 672.75 178.75 C 661.5 163.0 677.25 149.5 693 149.5 Z" transform="rotate(285 693 190)" /></g><g fill="#D9BD8C" opacity="0.07"><path d="M 626 211.0 C 671.0 211.0 683.0 250.0 662.0 274.0 C 647.0 290.2 629.0 286.0 627.2 302.2 C 626 316.0 639.2 322.0 650.0 316.0 C 635.0 328.0 608.0 322.0 605.0 304.0 C 602.0 283.0 614.0 268.0 599.0 250.0 C 584.0 229.0 605.0 211.0 626 211.0 Z" transform="rotate(340 626 265)" /></g><g fill="#D9BD8C" opacity="0.07"><path d="M 1547 51.6 C 1596.5 51.6 1609.7 94.5 1586.6 120.9 C 1570.1 138.72 1550.3 134.1 1548.32 151.92000000000002 C 1547 167.1 1561.52 173.7 1573.4 167.1 C 1556.9 180.3 1527.2 173.7 1523.9 153.9 C 1520.6 130.8 1533.8 114.3 1517.3 94.5 C 1500.8 71.4 1523.9 51.6 1547 51.6 Z" transform="rotate(39 1547 111)" /></g><g fill="#D9BD8C" opacity="0.07"><path d="M 1637 687.6 C 1679.0 687.6 1690.2 724.0 1670.6 746.4 C 1656.6 761.52 1639.8 757.6 1638.12 772.72 C 1637 785.6 1649.32 791.2 1659.4 785.6 C 1645.4 796.8 1620.2 791.2 1617.4 774.4 C 1614.6 754.8 1625.8 740.8 1611.8 724.0 C 1597.8 704.4 1617.4 687.6 1637 687.6 Z" transform="rotate(256 1637 738)" /></g><g fill="#D9BD8C" opacity="0.07"><path d="M 1182 800.5 C 1230.75 800.5 1243.75 842.75 1221.0 868.75 C 1204.75 886.3 1185.25 881.75 1183.3 899.3 C 1182 914.25 1196.3 920.75 1208.0 914.25 C 1191.75 927.25 1162.5 920.75 1159.25 901.25 C 1156.0 878.5 1169.0 862.25 1152.75 842.75 C 1136.5 820.0 1159.25 800.5 1182 800.5 Z" transform="rotate(349 1182 859)" /></g><g fill="#D9BD8C" opacity="0.07"><path d="M 1603 325.1 C 1648.75 325.1 1660.95 364.75 1639.6 389.15 C 1624.35 405.62 1606.05 401.35 1604.22 417.82 C 1603 431.85 1616.42 437.95 1627.4 431.85 C 1612.15 444.05 1584.7 437.95 1581.65 419.65 C 1578.6 398.3 1590.8 383.05 1575.55 364.75 C 1560.3 343.4 1581.65 325.1 1603 325.1 Z" transform="rotate(48 1603 380)" /></g><g fill="#D9BD8C" opacity="0.07"><path d="M 1640 632.9 C 1676.75 632.9 1686.55 664.75 1669.4 684.35 C 1657.15 697.58 1642.45 694.15 1640.98 707.38 C 1640 718.65 1650.78 723.55 1659.6 718.65 C 1647.35 728.45 1625.3 723.55 1622.85 708.85 C 1620.4 691.7 1630.2 679.45 1617.95 664.75 C 1605.7 647.6 1622.85 632.9 1640 632.9 Z" transform="rotate(273 1640 677)" /></g><rect width="1920" height="1080" fill="url(#foldShade1)"/><rect x="0" y="1066" width="1920" height="6" fill="#D9BD8C" opacity="0.85"/><path d="M 0 1066 L 17.0 1050 L 34 1066 Z" fill="none" stroke="#D9BD8C" stroke-width="1.1" opacity="0.55"/><circle cx="17.0" cy="1046" r="2.1" fill="#D9BD8C" opacity="0.6"/><path d="M 34 1066 L 51.0 1050 L 68 1066 Z" fill="none" stroke="#D9BD8C" stroke-width="1.1" opacity="0.55"/><circle cx="51.0" cy="1046" r="2.1" fill="#D9BD8C" opacity="0.6"/><path d="M 68 1066 L 85.0 1050 L 102 1066 Z" fill="none" stroke="#D9BD8C" stroke-width="1.1" opacity="0.55"/><circle cx="85.0" cy="1046" r="2.1" fill="#D9BD8C" opacity="0.6"/><path d="M 102 1066 L 119.0 1050 L 136 1066 Z" fill="none" stroke="#D9BD8C" stroke-width="1.1" opacity="0.55"/><circle cx="119.0" cy="1046" r="2.1" fill="#D9BD8C" opacity="0.6"/><path d="M 136 1066 L 153.0 1050 L 170 1066 Z" fill="none" stroke="#D9BD8C" stroke-width="1.1" opacity="0.55"/><circle cx="153.0" cy="1046" r="2.1" fill="#D9BD8C" opacity="0.6"/><path d="M 170 1066 L 187.0 1050 L 204 1066 Z" fill="none" stroke="#D9BD8C" stroke-width="1.1" opacity="0.55"/><circle cx="187.0" cy="1046" r="2.1" fill="#D9BD8C" opacity="0.6"/><path d="M 204 1066 L 221.0 1050 L 238 1066 Z" fill="none" stroke="#D9BD8C" stroke-width="1.1" opacity="0.55"/><circle cx="221.0" cy="1046" r="2.1" fill="#D9BD8C" opacity="0.6"/><path d="M 238 1066 L 255.0 1050 L 272 1066 Z" fill="none" stroke="#D9BD8C" stroke-width="1.1" opacity="0.55"/><circle cx="255.0" cy="1046" r="2.1" fill="#D9BD8C" opacity="0.6"/><path d="M 272 1066 L 289.0 1050 L 306 1066 Z" fill="none" stroke="#D9BD8C" stroke-width="1.1" opacity="0.55"/><circle cx="289.0" cy="1046" r="2.1" fill="#D9BD8C" opacity="0.6"/><path d="M 306 1066 L 323.0 1050 L 340 1066 Z" fill="none" stroke="#D9BD8C" stroke-width="1.1" opacity="0.55"/><circle cx="323.0" cy="1046" r="2.1" fill="#D9BD8C" opacity="0.6"/><path d="M 340 1066 L 357.0 1050 L 374 1066 Z" fill="none" stroke="#D9BD8C" stroke-width="1.1" opacity="0.55"/><circle cx="357.0" cy="1046" r="2.1" fill="#D9BD8C" opacity="0.6"/><path d="M 374 1066 L 391.0 1050 L 408 1066 Z" fill="none" stroke="#D9BD8C" stroke-width="1.1" opacity="0.55"/><circle cx="391.0" cy="1046" r="2.1" fill="#D9BD8C" opacity="0.6"/><path d="M 408 1066 L 425.0 1050 L 442 1066 Z" fill="none" stroke="#D9BD8C" stroke-width="1.1" opacity="0.55"/><circle cx="425.0" cy="1046" r="2.1" fill="#D9BD8C" opacity="0.6"/><path d="M 442 1066 L 459.0 1050 L 476 1066 Z" fill="none" stroke="#D9BD8C" stroke-width="1.1" opacity="0.55"/><circle cx="459.0" cy="1046" r="2.1" fill="#D9BD8C" opacity="0.6"/><path d="M 476 1066 L 493.0 1050 L 510 1066 Z" fill="none" stroke="#D9BD8C" stroke-width="1.1" opacity="0.55"/><circle cx="493.0" cy="1046" r="2.1" fill="#D9BD8C" opacity="0.6"/><path d="M 510 1066 L 527.0 1050 L 544 1066 Z" fill="none" stroke="#D9BD8C" stroke-width="1.1" opacity="0.55"/><circle cx="527.0" cy="1046" r="2.1" fill="#D9BD8C" opacity="0.6"/><path d="M 544 1066 L 561.0 1050 L 578 1066 Z" fill="none" stroke="#D9BD8C" stroke-width="1.1" opacity="0.55"/><circle cx="561.0" cy="1046" r="2.1" fill="#D9BD8C" opacity="0.6"/><path d="M 578 1066 L 595.0 1050 L 612 1066 Z" fill="none" stroke="#D9BD8C" stroke-width="1.1" opacity="0.55"/><circle cx="595.0" cy="1046" r="2.1" fill="#D9BD8C" opacity="0.6"/><path d="M 612 1066 L 629.0 1050 L 646 1066 Z" fill="none" stroke="#D9BD8C" stroke-width="1.1" opacity="0.55"/><circle cx="629.0" cy="1046" r="2.1" fill="#D9BD8C" opacity="0.6"/><path d="M 646 1066 L 663.0 1050 L 680 1066 Z" fill="none" stroke="#D9BD8C" stroke-width="1.1" opacity="0.55"/><circle cx="663.0" cy="1046" r="2.1" fill="#D9BD8C" opacity="0.6"/><path d="M 680 1066 L 697.0 1050 L 714 1066 Z" fill="none" stroke="#D9BD8C" stroke-width="1.1" opacity="0.55"/><circle cx="697.0" cy="1046" r="2.1" fill="#D9BD8C" opacity="0.6"/><path d="M 714 1066 L 731.0 1050 L 748 1066 Z" fill="none" stroke="#D9BD8C" stroke-width="1.1" opacity="0.55"/><circle cx="731.0" cy="1046" r="2.1" fill="#D9BD8C" opacity="0.6"/><path d="M 748 1066 L 765.0 1050 L 782 1066 Z" fill="none" stroke="#D9BD8C" stroke-width="1.1" opacity="0.55"/><circle cx="765.0" cy="1046" r="2.1" fill="#D9BD8C" opacity="0.6"/><path d="M 782 1066 L 799.0 1050 L 816 1066 Z" fill="none" stroke="#D9BD8C" stroke-width="1.1" opacity="0.55"/><circle cx="799.0" cy="1046" r="2.1" fill="#D9BD8C" opacity="0.6"/><path d="M 816 1066 L 833.0 1050 L 850 1066 Z" fill="none" stroke="#D9BD8C" stroke-width="1.1" opacity="0.55"/><circle cx="833.0" cy="1046" r="2.1" fill="#D9BD8C" opacity="0.6"/><path d="M 850 1066 L 867.0 1050 L 884 1066 Z" fill="none" stroke="#D9BD8C" stroke-width="1.1" opacity="0.55"/><circle cx="867.0" cy="1046" r="2.1" fill="#D9BD8C" opacity="0.6"/><path d="M 884 1066 L 901.0 1050 L 918 1066 Z" fill="none" stroke="#D9BD8C" stroke-width="1.1" opacity="0.55"/><circle cx="901.0" cy="1046" r="2.1" fill="#D9BD8C" opacity="0.6"/><path d="M 918 1066 L 935.0 1050 L 952 1066 Z" fill="none" stroke="#D9BD8C" stroke-width="1.1" opacity="0.55"/><circle cx="935.0" cy="1046" r="2.1" fill="#D9BD8C" opacity="0.6"/><path d="M 952 1066 L 969.0 1050 L 986 1066 Z" fill="none" stroke="#D9BD8C" stroke-width="1.1" opacity="0.55"/><circle cx="969.0" cy="1046" r="2.1" fill="#D9BD8C" opacity="0.6"/><path d="M 986 1066 L 1003.0 1050 L 1020 1066 Z" fill="none" stroke="#D9BD8C" stroke-width="1.1" opacity="0.55"/><circle cx="1003.0" cy="1046" r="2.1" fill="#D9BD8C" opacity="0.6"/><path d="M 1020 1066 L 1037.0 1050 L 1054 1066 Z" fill="none" stroke="#D9BD8C" stroke-width="1.1" opacity="0.55"/><circle cx="1037.0" cy="1046" r="2.1" fill="#D9BD8C" opacity="0.6"/><path d="M 1054 1066 L 1071.0 1050 L 1088 1066 Z" fill="none" stroke="#D9BD8C" stroke-width="1.1" opacity="0.55"/><circle cx="1071.0" cy="1046" r="2.1" fill="#D9BD8C" opacity="0.6"/><path d="M 1088 1066 L 1105.0 1050 L 1122 1066 Z" fill="none" stroke="#D9BD8C" stroke-width="1.1" opacity="0.55"/><circle cx="1105.0" cy="1046" r="2.1" fill="#D9BD8C" opacity="0.6"/><path d="M 1122 1066 L 1139.0 1050 L 1156 1066 Z" fill="none" stroke="#D9BD8C" stroke-width="1.1" opacity="0.55"/><circle cx="1139.0" cy="1046" r="2.1" fill="#D9BD8C" opacity="0.6"/><path d="M 1156 1066 L 1173.0 1050 L 1190 1066 Z" fill="none" stroke="#D9BD8C" stroke-width="1.1" opacity="0.55"/><circle cx="1173.0" cy="1046" r="2.1" fill="#D9BD8C" opacity="0.6"/><path d="M 1190 1066 L 1207.0 1050 L 1224 1066 Z" fill="none" stroke="#D9BD8C" stroke-width="1.1" opacity="0.55"/><circle cx="1207.0" cy="1046" r="2.1" fill="#D9BD8C" opacity="0.6"/><path d="M 1224 1066 L 1241.0 1050 L 1258 1066 Z" fill="none" stroke="#D9BD8C" stroke-width="1.1" opacity="0.55"/><circle cx="1241.0" cy="1046" r="2.1" fill="#D9BD8C" opacity="0.6"/><path d="M 1258 1066 L 1275.0 1050 L 1292 1066 Z" fill="none" stroke="#D9BD8C" stroke-width="1.1" opacity="0.55"/><circle cx="1275.0" cy="1046" r="2.1" fill="#D9BD8C" opacity="0.6"/><path d="M 1292 1066 L 1309.0 1050 L 1326 1066 Z" fill="none" stroke="#D9BD8C" stroke-width="1.1" opacity="0.55"/><circle cx="1309.0" cy="1046" r="2.1" fill="#D9BD8C" opacity="0.6"/><path d="M 1326 1066 L 1343.0 1050 L 1360 1066 Z" fill="none" stroke="#D9BD8C" stroke-width="1.1" opacity="0.55"/><circle cx="1343.0" cy="1046" r="2.1" fill="#D9BD8C" opacity="0.6"/><path d="M 1360 1066 L 1377.0 1050 L 1394 1066 Z" fill="none" stroke="#D9BD8C" stroke-width="1.1" opacity="0.55"/><circle cx="1377.0" cy="1046" r="2.1" fill="#D9BD8C" opacity="0.6"/><path d="M 1394 1066 L 1411.0 1050 L 1428 1066 Z" fill="none" stroke="#D9BD8C" stroke-width="1.1" opacity="0.55"/><circle cx="1411.0" cy="1046" r="2.1" fill="#D9BD8C" opacity="0.6"/><path d="M 1428 1066 L 1445.0 1050 L 1462 1066 Z" fill="none" stroke="#D9BD8C" stroke-width="1.1" opacity="0.55"/><circle cx="1445.0" cy="1046" r="2.1" fill="#D9BD8C" opacity="0.6"/><path d="M 1462 1066 L 1479.0 1050 L 1496 1066 Z" fill="none" stroke="#D9BD8C" stroke-width="1.1" opacity="0.55"/><circle cx="1479.0" cy="1046" r="2.1" fill="#D9BD8C" opacity="0.6"/><path d="M 1496 1066 L 1513.0 1050 L 1530 1066 Z" fill="none" stroke="#D9BD8C" stroke-width="1.1" opacity="0.55"/><circle cx="1513.0" cy="1046" r="2.1" fill="#D9BD8C" opacity="0.6"/><path d="M 1530 1066 L 1547.0 1050 L 1564 1066 Z" fill="none" stroke="#D9BD8C" stroke-width="1.1" opacity="0.55"/><circle cx="1547.0" cy="1046" r="2.1" fill="#D9BD8C" opacity="0.6"/><path d="M 1564 1066 L 1581.0 1050 L 1598 1066 Z" fill="none" stroke="#D9BD8C" stroke-width="1.1" opacity="0.55"/><circle cx="1581.0" cy="1046" r="2.1" fill="#D9BD8C" opacity="0.6"/><path d="M 1598 1066 L 1615.0 1050 L 1632 1066 Z" fill="none" stroke="#D9BD8C" stroke-width="1.1" opacity="0.55"/><circle cx="1615.0" cy="1046" r="2.1" fill="#D9BD8C" opacity="0.6"/><path d="M 1632 1066 L 1649.0 1050 L 1666 1066 Z" fill="none" stroke="#D9BD8C" stroke-width="1.1" opacity="0.55"/><circle cx="1649.0" cy="1046" r="2.1" fill="#D9BD8C" opacity="0.6"/><path d="M 1666 1066 L 1683.0 1050 L 1700 1066 Z" fill="none" stroke="#D9BD8C" stroke-width="1.1" opacity="0.55"/><circle cx="1683.0" cy="1046" r="2.1" fill="#D9BD8C" opacity="0.6"/><path d="M 1700 1066 L 1717.0 1050 L 1734 1066 Z" fill="none" stroke="#D9BD8C" stroke-width="1.1" opacity="0.55"/><circle cx="1717.0" cy="1046" r="2.1" fill="#D9BD8C" opacity="0.6"/><path d="M 1734 1066 L 1751.0 1050 L 1768 1066 Z" fill="none" stroke="#D9BD8C" stroke-width="1.1" opacity="0.55"/><circle cx="1751.0" cy="1046" r="2.1" fill="#D9BD8C" opacity="0.6"/><path d="M 1768 1066 L 1785.0 1050 L 1802 1066 Z" fill="none" stroke="#D9BD8C" stroke-width="1.1" opacity="0.55"/><circle cx="1785.0" cy="1046" r="2.1" fill="#D9BD8C" opacity="0.6"/><path d="M 1802 1066 L 1819.0 1050 L 1836 1066 Z" fill="none" stroke="#D9BD8C" stroke-width="1.1" opacity="0.55"/><circle cx="1819.0" cy="1046" r="2.1" fill="#D9BD8C" opacity="0.6"/><path d="M 1836 1066 L 1853.0 1050 L 1870 1066 Z" fill="none" stroke="#D9BD8C" stroke-width="1.1" opacity="0.55"/><circle cx="1853.0" cy="1046" r="2.1" fill="#D9BD8C" opacity="0.6"/><path d="M 1870 1066 L 1887.0 1050 L 1904 1066 Z" fill="none" stroke="#D9BD8C" stroke-width="1.1" opacity="0.55"/><circle cx="1887.0" cy="1046" r="2.1" fill="#D9BD8C" opacity="0.6"/><path d="M 1904 1066 L 1921.0 1050 L 1938 1066 Z" fill="none" stroke="#D9BD8C" stroke-width="1.1" opacity="0.55"/><circle cx="1921.0" cy="1046" r="2.1" fill="#D9BD8C" opacity="0.6"/><path d="M 1938 1066 L 1955.0 1050 L 1972 1066 Z" fill="none" stroke="#D9BD8C" stroke-width="1.1" opacity="0.55"/><circle cx="1955.0" cy="1046" r="2.1" fill="#D9BD8C" opacity="0.6"/></svg>