<svg xmlns="http://www.w3.org/2000/svg" viewBox="0 0 1920 1080" width="1920" height="1080" role="img"><defs>
      <linearGradient id="heroGrad4" x1="0%" y1="0%" x2="100%" y2="100%">
        <stop offset="0%" stop-color="#EDE0CB"/>
        <stop offset="100%" stop-color="#B08D57"/>
      </linearGradient>
      <linearGradient id="foldShade4" x1="0%" y1="0%" x2="0%" y2="100%">
        <stop offset="0%" stop-color="#000000" stop-opacity="0"/>
        <stop offset="100%" stop-color="#000000" stop-opacity="0.35"/>
      </linearGradient>
    </defs><rect width="1920" height="1080" fill="url(#heroGrad4)"/><path d="M -100 151 Q 120 91.0, 240 151.0 Q 360 138.84771477741668, 480 198.84771477741668 Q 600 148.7396831700906, 720 208.7396831700906 Q 840 112.82898823946331, 960 172.8289882394633 Q 1080 59.60219900199451, 1200 119.6021990019945 Q 1320 31.282074111250083, 1440 91.28207411125008 Q 1560 50.333876180872636, 1680 110.33387618087264 Q 1800 101.64454556128806, 1920 161.64454556128806 Q 2040 144.51130756630292, 2160 204.51130756630292 L 2020 1180 L -100 1180 Z" fill="#000000" opacity="0.08"/><path d="M -100 355 Q 120 344.220026966937, 240 412.220026966937 Q 360 350.82400162333613, 480 418.82400162333613 Q 600 306.7988578329306, 720 374.7988578329306 Q 840 247.06804387394726, 960 315.06804387394726 Q 1080 219.01371031570596, 1200 287.01371031570596 Q 1320 244.8902777608007, 1440 312.8902777608007 Q 1560 304.1708634558409, 1680 372.1708634558409 Q 1800 349.83046554552504, 1920 417.83046554552504 Q 2040 345.64908303280885, 2160 413.64908303280885 L 2020 1180 L -100 1180 Z" fill="#000000" opacity="0.11"/><path d="M -100 462 Q 120 455.1066044387518, 240 531.1066044387518 Q 360 402.4753475199296, 480 478.4753475199296 Q 600 336.77483295785424, 720 412.77483295785424 Q 840 310.12274452625996, 960 386.12274452625996 Q 1080 343.66115586103933, 1200 419.66115586103933 Q 1320 410.7853390103594, 1440 486.7853390103594 Q 1560 458.2482688289125, 1680 534.2482688289125 Q 1800 448.3994339965609, 1920 524.3994339965609 Q 2040 389.0515352623567, 2160 465.0515352623567 L 2020 1180 L -100 1180 Z" fill="#000000" opacity="0.14"/><path d="M -100 646 Q 120 573.8540806770288, 240 657.8540806770288 Q 360 502.8359581620949, 480 586.8359581620949 Q 600 478.7503877563315, 720 562.7503877563315 Q 840 520.7035233503838, 960 604.7035233503838 Q 1080 595.4155608394977, 1200 679.4155608394977 Q 1320 643.6203229356697, 1440 727.6203229356697 Q 1560 627.0788313894574, 1680 711.0788313894574 Q 1800 558.9128133486269, 1920 642.9128133486269 Q 2040 493.19574138864834, 2160 577.1957413886483 L 2020 1180 L -100 1180 Z" fill="#000000" opacity="0.08"/><path d="M -100 799 Q 120 637.3741704316706, 240 729.3741704316706 Q 360 617.0343707150168, 480 709.0343707150168 Q 600 668.0608342435264, 720 760.0608342435264 Q 840 749.9762358699479, 960 841.9762358699479 Q 1080 797.8002474093234, 1200 889.8002474093234 Q 1320 773.5959253412847, 1440 865.5959253412847 Q 1560 696.5636246692584, 1680 788.5636246692584 Q 1800 627.810097959005, 1920 719.810097959005 Q 2040 621.8748657500238, 2160 713.8748657500238 L 2020 1180 L -100 1180 Z" fill="#000000" opacity="0.11"/><path d="M -100 914 Q 120 718.1075725336862, 240 818.1075725336862 Q 360 778.7624332456792, 480 878.7624332456792 Q 600 867.369896358105, 720 967.369896358105 Q 840 913.641079458589, 960 1013.641079458589 Q 1080 880.8708379262455, 1200 980.8708379262455 Q 1320 795.0545402411478, 1440 895.0545402411478 Q 1560 724.266944952695, 1680 824.266944952695 Q 1800 724.6611207383164, 1920 824.6611207383164 Q 2040 795.9243831527956, 2160 895.9243831527956 L 2020 1180 L -100 1180 Z" fill="#000000" opacity="0.14"/><g fill="#D9BD8C" opacity="0.07"><path d="M 892 106.69999999999999 C 942.25 106.69999999999999 955.65 150.25 932.2 177.05 C 915.45 195.14 895.35 190.45 893.34 208.54 C 892 223.95 906.74 230.65 918.8 223.95 C 902.05 237.35000000000002 871.9 230.65 868.55 210.55 C 865.2 187.1 878.6 170.35 861.85 150.25 C 845.1 126.80000000000001 868.55 106.69999999999999 892 106.69999999999999 Z" transform="rotate(107 892 167)" /></g><g fill="#D9BD8C" opacity="0.07"><path d="M 351 447.0 C 396.0 447.0 408.0 486.0 387.0 510.0 C 372.0 526.2 354.0 522.0 352.2 538.2 C 351 552.0 364.2 558.0 375.0 552.0 C 360.0 564.0 333.0 558.0 330.0 540.0 C 327.0 519.0 339.0 504.0 324.0 486.0 C 309.0 465.0 330.0 447.0 351 447.0 Z" transform="rotate(170 351 501)" /></g><g fill="#D9BD8C" opacity="0.07"><path d="M 298 733.6 C 347.5 733.6 360.7 776.5 337.6 802.9 C 321.1 820.72 301.3 816.1 299.32 833.92 C 298 849.1 312.52 855.7 324.4 849.1 C 307.9 862.3 278.2 855.7 274.9 835.9 C 271.6 812.8 284.8 796.3 268.3 776.5 C 251.8 753.4 274.9 733.6 298 733.6 Z" transform="rotate(80 298 793)" /></g><g fill="#D9BD8C" opacity="0.07"><path d="M 750 471.4 C 775.5 471.4 782.3 493.5 770.4 507.1 C 761.9 516.28 751.7 513.9 750.68 523.08 C 750 530.9 757.48 534.3 763.6 530.9 C 755.1 537.7 739.8 534.3 738.1 524.1 C 736.4 512.2 743.2 503.7 734.7 493.5 C 726.2 481.6 738.1 471.4 750 471.4 Z" transform="rotate(224 750 502)" /></g><g fill="#D9BD8C" opacity="0.07"><path d="M 218 494.3 C 265.25 494.3 277.85 535.25 255.8 560.45 C 240.05 577.46 221.15 573.05 219.26 590.06 C 218 604.55 231.86 610.85 243.2 604.55 C 227.45 617.15 199.1 610.85 195.95 591.95 C 192.8 569.9 205.4 554.15 189.65 535.25 C 173.9 513.2 195.95 494.3 218 494.3 Z" transform="rotate(183 218 551)" /></g><g fill="#D9BD8C" opacity="0.07"><path d="M 1768 196.2 C 1799.5 196.2 1807.9 223.5 1793.2 240.3 C 1782.7 251.64 1770.1 248.7 1768.84 260.04 C 1768 269.7 1777.24 273.9 1784.8 269.7 C 1774.3 278.1 1755.4 273.9 1753.3 261.3 C 1751.2 246.6 1759.6 236.1 1749.1 223.5 C 1738.6 208.8 1753.3 196.2 1768 196.2 Z" transform="rotate(116 1768 234)" /></g><g fill="#D9BD8C" opacity="0.07"><path d="M 682 283.3 C 714.25 283.3 722.85 311.25 707.8 328.45 C 697.05 340.06 684.15 337.05 682.86 348.66 C 682 358.55 691.46 362.85 699.2 358.55 C 688.45 367.15 669.1 362.85 666.95 349.95 C 664.8 334.9 673.4 324.15 662.65 311.25 C 651.9 296.2 666.95 283.3 682 283.3 Z" transform="rotate(87 682 322)" /></g><g fill="#D9BD8C" opacity="0.07"><path d="M 703 491.4 C 743.5 491.4 754.3 526.5 735.4 548.1 C 721.9 562.68 705.7 558.9 704.08 573.48 C 703 585.9 714.88 591.3 724.6 585.9 C 711.1 596.7 686.8 591.3 684.1 575.1 C 681.4 556.2 692.2 542.7 678.7 526.5 C 665.2 507.6 684.1 491.4 703 491.4 Z" transform="rotate(105 703 540)" /></g><g fill="#D9BD8C" opacity="0.07"><path d="M 742 800.7 C 777.25 800.7 786.65 831.25 770.2 850.05 C 758.45 862.74 744.35 859.45 742.94 872.14 C 742 882.95 752.34 887.65 760.8 882.95 C 749.05 892.35 727.9 887.65 725.55 873.55 C 723.2 857.1 732.6 845.35 720.85 831.25 C 709.1 814.8 725.55 800.7 742 800.7 Z" transform="rotate(68 742 843)" /></g><g fill="#D9BD8C" opacity="0.07"><path d="M 911 552.8 C 962.0 552.8 975.6 597.0 951.8 624.2 C 934.8 642.56 914.4 637.8 912.36 656.16 C 911 671.8 925.96 678.6 938.2 671.8 C 921.2 685.4 890.6 678.6 887.2 658.2 C 883.8 634.4 897.4 617.4 880.4 597.0 C 863.4 573.2 887.2 552.8 911 552.8 Z" transform="rotate(17 911 614)" /></g><g fill="#D9BD8C" opacity="0.07"><path d="M 1665 150.6 C 1714.5 150.6 1727.7 193.5 1704.6 219.9 C 1688.1 237.72 1668.3 233.1 1666.32 250.92000000000002 C 1665 266.1 1679.52 272.7 1691.4 266.1 C 1674.9 279.3 1645.2 272.7 1641.9 252.9 C 1638.6 229.8 1651.8 213.3 1635.3 193.5 C 1618.8 170.4 1641.9 150.6 1665 150.6 Z" transform="rotate(283 1665 210)" /></g><g fill="#D9BD8C" opacity="0.07"><path d="M 997 488.5 C 1038.25 488.5 1049.25 524.25 1030.0 546.25 C 1016.25 561.1 999.75 557.25 998.1 572.1 C 997 584.75 1009.1 590.25 1019.0 584.75 C 1005.25 595.75 980.5 590.25 977.75 573.75 C 975.0 554.5 986.0 540.75 972.25 524.25 C 958.5 505.0 977.75 488.5 997 488.5 Z" transform="rotate(190 997 538)" /></g><g fill="#D9BD8C" opacity="0.07"><path d="M 1163 92.8 C 1206.5 92.8 1218.1 130.5 1197.8 153.7 C 1183.3 169.36 1165.9 165.3 1164.16 180.96 C 1163 194.3 1175.76 200.1 1186.2 194.3 C 1171.7 205.9 1145.6 200.1 1142.7 182.7 C 1139.8 162.4 1151.4 147.9 1136.9 130.5 C 1122.4 110.2 1142.7 92.8 1163 92.8 Z" transform="rotate(227 1163 145)" /></g><g fill="#D9BD8C" opacity="0.07"><path d="M 743 213.9 C 787.25 213.9 799.05 252.25 778.4 275.85 C 763.65 291.78 745.95 287.65 744.18 303.58 C 743 317.15 755.98 323.05 766.6 317.15 C 751.85 328.95 725.3 323.05 722.35 305.35 C 719.4 284.7 731.2 269.95 716.45 252.25 C 701.7 231.6 722.35 213.9 743 213.9 Z" transform="rotate(147 743 267)" /></g><rect width="1920" height="1080" fill="url(#foldShade4)"/><rect x="0" y="1066" width="1920" height="6" fill="#D9BD8C" opacity="0.85"/><path d="M 0 1066 L 17.0 1050 L 34 1066 Z" fill="none" stroke="#D9BD8C" stroke-width="1.1" opacity="0.55"/><circle cx="17.0" cy="1046" r="2.1" fill="#D9BD8C" opacity="0.6"/><path d="M 34 1066 L 51.0 1050 L 68 1066 Z" fill="none" stroke="#D9BD8C" stroke-width="1.1" opacity="0.55"/><circle cx="51.0" cy="1046" r="2.1" fill="#D9BD8C" opacity="0.6"/><path d="M 68 1066 L 85.0 1050 L 102 1066 Z" fill="none" stroke="#D9BD8C" stroke-width="1.1" opacity="0.55"/><circle cx="85.0" cy="1046" r="2.1" fill="#D9BD8C" opacity="0.6"/><path d="M 102 1066 L 119.0 1050 L 136 1066 Z" fill="none" stroke="#D9BD8C" stroke-width="1.1" opacity="0.55"/><circle cx="119.0" cy="1046" r="2.1" fill="#D9BD8C" opacity="0.6"/><path d="M 136 1066 L 153.0 1050 L 170 1066 Z" fill="none" stroke="#D9BD8C" stroke-width="1.1" opacity="0.55"/><circle cx="153.0" cy="1046" r="2.1" fill="#D9BD8C" opacity="0.6"/><path d="M 170 1066 L 187.0 1050 L 204 1066 Z" fill="none" stroke="#D9BD8C" stroke-width="1.1" opacity="0.55"/><circle cx="187.0" cy="1046" r="2.1" fill="#D9BD8C" opacity="0.6"/><path d="M 204 1066 L 221.0 1050 L 238 1066 Z" fill="none" stroke="#D9BD8C" stroke-width="1.1" opacity="0.55"/><circle cx="221.0" cy="1046" r="2.1" fill="#D9BD8C" opacity="0.6"/><path d="M 238 1066 L 255.0 1050 L 272 1066 Z" fill="none" stroke="#D9BD8C" stroke-width="1.1" opacity="0.55"/><circle cx="255.0" cy="1046" r="2.1" fill="#D9BD8C" opacity="0.6"/><path d="M 272 1066 L 289.0 1050 L 306 1066 Z" fill="none" stroke="#D9BD8C" stroke-width="1.1" opacity="0.55"/><circle cx="289.0" cy="1046" r="2.1" fill="#D9BD8C" opacity="0.6"/><path d="M 306 1066 L 323.0 1050 L 340 1066 Z" fill="none" stroke="#D9BD8C" stroke-width="1.1" opacity="0.55"/><circle cx="323.0" cy="1046" r="2.1" fill="#D9BD8C" opacity="0.6"/><path d="M 340 1066 L 357.0 1050 L 374 1066 Z" fill="none" stroke="#D9BD8C" stroke-width="1.1" opacity="0.55"/><circle cx="357.0" cy="1046" r="2.1" fill="#D9BD8C" opacity="0.6"/><path d="M 374 1066 L 391.0 1050 L 408 1066 Z" fill="none" stroke="#D9BD8C" stroke-width="1.1" opacity="0.55"/><circle cx="391.0" cy="1046" r="2.1" fill="#D9BD8C" opacity="0.6"/><path d="M 408 1066 L 425.0 1050 L 442 1066 Z" fill="none" stroke="#D9BD8C" stroke-width="1.1" opacity="0.55"/><circle cx="425.0" cy="1046" r="2.1" fill="#D9BD8C" opacity="0.6"/><path d="M 442 1066 L 459.0 1050 L 476 1066 Z" fill="none" stroke="#D9BD8C" stroke-width="1.1" opacity="0.55"/><circle cx="459.0" cy="1046" r="2.1" fill="#D9BD8C" opacity="0.6"/><path d="M 476 1066 L 493.0 1050 L 510 1066 Z" fill="none" stroke="#D9BD8C" stroke-width="1.1" opacity="0.55"/><circle cx="493.0" cy="1046" r="2.1" fill="#D9BD8C" opacity="0.6"/><path d="M 510 1066 L 527.0 1050 L 544 1066 Z" fill="none" stroke="#D9BD8C" stroke-width="1.1" opacity="0.55"/><circle cx="527.0" cy="1046" r="2.1" fill="#D9BD8C" opacity="0.6"/><path d="M 544 1066 L 561.0 1050 L 578 1066 Z" fill="none" stroke="#D9BD8C" stroke-width="1.1" opacity="0.55"/><circle cx="561.0" cy="1046" r="2.1" fill="#D9BD8C" opacity="0.6"/><path d="M 578 1066 L 595.0 1050 L 612 1066 Z" fill="none" stroke="#D9BD8C" stroke-width="1.1" opacity="0.55"/><circle cx="595.0" cy="1046" r="2.1" fill="#D9BD8C" opacity="0.6"/><path d="M 612 1066 L 629.0 1050 L 646 1066 Z" fill="none" stroke="#D9BD8C" stroke-width="1.1" opacity="0.55"/><circle cx="629.0" cy="1046" r="2.1" fill="#D9BD8C" opacity="0.6"/><path d="M 646 1066 L 663.0 1050 L 680 1066 Z" fill="none" stroke="#D9BD8C" stroke-width="1.1" opacity="0.55"/><circle cx="663.0" cy="1046" r="2.1" fill="#D9BD8C" opacity="0.6"/><path d="M 680 1066 L 697.0 1050 L 714 1066 Z" fill="none" stroke="#D9BD8C" stroke-width="1.1" opacity="0.55"/><circle cx="697.0" cy="1046" r="2.1" fill="#D9BD8C" opacity="0.6"/><path d="M 714 1066 L 731.0 1050 L 748 1066 Z" fill="none" stroke="#D9BD8C" stroke-width="1.1" opacity="0.55"/><circle cx="731.0" cy="1046" r="2.1" fill="#D9BD8C" opacity="0.6"/><path d="M 748 1066 L 765.0 1050 L 782 1066 Z" fill="none" stroke="#D9BD8C" stroke-width="1.1" opacity="0.55"/><circle cx="765.0" cy="1046" r="2.1" fill="#D9BD8C" opacity="0.6"/><path d="M 782 1066 L 799.0 1050 L 816 1066 Z" fill="none" stroke="#D9BD8C" stroke-width="1.1" opacity="0.55"/><circle cx="799.0" cy="1046" r="2.1" fill="#D9BD8C" opacity="0.6"/><path d="M 816 1066 L 833.0 1050 L 850 1066 Z" fill="none" stroke="#D9BD8C" stroke-width="1.1" opacity="0.55"/><circle cx="833.0" cy="1046" r="2.1" fill="#D9BD8C" opacity="0.6"/><path d="M 850 1066 L 867.0 1050 L 884 1066 Z" fill="none" stroke="#D9BD8C" stroke-width="1.1" opacity="0.55"/><circle cx="867.0" cy="1046" r="2.1" fill="#D9BD8C" opacity="0.6"/><path d="M 884 1066 L 901.0 1050 L 918 1066 Z" fill="none" stroke="#D9BD8C" stroke-width="1.1" opacity="0.55"/><circle cx="901.0" cy="1046" r="2.1" fill="#D9BD8C" opacity="0.6"/><path d="M 918 1066 L 935.0 1050 L 952 1066 Z" fill="none" stroke="#D9BD8C" stroke-width="1.1" opacity="0.55"/><circle cx="935.0" cy="1046" r="2.1" fill="#D9BD8C" opacity="0.6"/><path d="M 952 1066 L 969.0 1050 L 986 1066 Z" fill="none" stroke="#D9BD8C" stroke-width="1.1" opacity="0.55"/><circle cx="969.0" cy="1046" r="2.1" fill="#D9BD8C" opacity="0.6"/><path d="M 986 1066 L 1003.0 1050 L 1020 1066 Z" fill="none" stroke="#D9BD8C" stroke-width="1.1" opacity="0.55"/><circle cx="1003.0" cy="1046" r="2.1" fill="#D9BD8C" opacity="0.6"/><path d="M 1020 1066 L 1037.0 1050 L 1054 1066 Z" fill="none" stroke="#D9BD8C" stroke-width="1.1" opacity="0.55"/><circle cx="1037.0" cy="1046" r="2.1" fill="#D9BD8C" opacity="0.6"/><path d="M 1054 1066 L 1071.0 1050 L 1088 1066 Z" fill="none" stroke="#D9BD8C" stroke-width="1.1" opacity="0.55"/><circle cx="1071.0" cy="1046" r="2.1" fill="#D9BD8C" opacity="0.6"/><path d="M 1088 1066 L 1105.0 1050 L 1122 1066 Z" fill="none" stroke="#D9BD8C" stroke-width="1.1" opacity="0.55"/><circle cx="1105.0" cy="1046" r="2.1" fill="#D9BD8C" opacity="0.6"/><path d="M 1122 1066 L 1139.0 1050 L 1156 1066 Z" fill="none" stroke="#D9BD8C" stroke-width="1.1" opacity="0.55"/><circle cx="1139.0" cy="1046" r="2.1" fill="#D9BD8C" opacity="0.6"/><path d="M 1156 1066 L 1173.0 1050 L 1190 1066 Z" fill="none" stroke="#D9BD8C" stroke-width="1.1" opacity="0.55"/><circle cx="1173.0" cy="1046" r="2.1" fill="#D9BD8C" opacity="0.6"/><path d="M 1190 1066 L 1207.0 1050 L 1224 1066 Z" fill="none" stroke="#D9BD8C" stroke-width="1.1" opacity="0.55"/><circle cx="1207.0" cy="1046" r="2.1" fill="#D9BD8C" opacity="0.6"/><path d="M 1224 1066 L 1241.0 1050 L 1258 1066 Z" fill="none" stroke="#D9BD8C" stroke-width="1.1" opacity="0.55"/><circle cx="1241.0" cy="1046" r="2.1" fill="#D9BD8C" opacity="0.6"/><path d="M 1258 1066 L 1275.0 1050 L 1292 1066 Z" fill="none" stroke="#D9BD8C" stroke-width="1.1" opacity="0.55"/><circle cx="1275.0" cy="1046" r="2.1" fill="#D9BD8C" opacity="0.6"/><path d="M 1292 1066 L 1309.0 1050 L 1326 1066 Z" fill="none" stroke="#D9BD8C" stroke-width="1.1" opacity="0.55"/><circle cx="1309.0" cy="1046" r="2.1" fill="#D9BD8C" opacity="0.6"/><path d="M 1326 1066 L 1343.0 1050 L 1360 1066 Z" fill="none" stroke="#D9BD8C" stroke-width="1.1" opacity="0.55"/><circle cx="1343.0" cy="1046" r="2.1" fill="#D9BD8C" opacity="0.6"/><path d="M 1360 1066 L 1377.0 1050 L 1394 1066 Z" fill="none" stroke="#D9BD8C" stroke-width="1.1" opacity="0.55"/><circle cx="1377.0" cy="1046" r="2.1" fill="#D9BD8C" opacity="0.6"/><path d="M 1394 1066 L 1411.0 1050 L 1428 1066 Z" fill="none" stroke="#D9BD8C" stroke-width="1.1" opacity="0.55"/><circle cx="1411.0" cy="1046" r="2.1" fill="#D9BD8C" opacity="0.6"/><path d="M 1428 1066 L 1445.0 1050 L 1462 1066 Z" fill="none" stroke="#D9BD8C" stroke-width="1.1" opacity="0.55"/><circle cx="1445.0" cy="1046" r="2.1" fill="#D9BD8C" opacity="0.6"/><path d="M 1462 1066 L 1479.0 1050 L 1496 1066 Z" fill="none" stroke="#D9BD8C" stroke-width="1.1" opacity="0.55"/><circle cx="1479.0" cy="1046" r="2.1" fill="#D9BD8C" opacity="0.6"/><path d="M 1496 1066 L 1513.0 1050 L 1530 1066 Z" fill="none" stroke="#D9BD8C" stroke-width="1.1" opacity="0.55"/><circle cx="1513.0" cy="1046" r="2.1" fill="#D9BD8C" opacity="0.6"/><path d="M 1530 1066 L 1547.0 1050 L 1564 1066 Z" fill="none" stroke="#D9BD8C" stroke-width="1.1" opacity="0.55"/><circle cx="1547.0" cy="1046" r="2.1" fill="#D9BD8C" opacity="0.6"/><path d="M 1564 1066 L 1581.0 1050 L 1598 1066 Z" fill="none" stroke="#D9BD8C" stroke-width="1.1" opacity="0.55"/><circle cx="1581.0" cy="1046" r="2.1" fill="#D9BD8C" opacity="0.6"/><path d="M 1598 1066 L 1615.0 1050 L 1632 1066 Z" fill="none" stroke="#D9BD8C" stroke-width="1.1" opacity="0.55"/><circle cx="1615.0" cy="1046" r="2.1" fill="#D9BD8C" opacity="0.6"/><path d="M 1632 1066 L 1649.0 1050 L 1666 1066 Z" fill="none" stroke="#D9BD8C" stroke-width="1.1" opacity="0.55"/><circle cx="1649.0" cy="1046" r="2.1" fill="#D9BD8C" opacity="0.6"/><path d="M 1666 1066 L 1683.0 1050 L 1700 1066 Z" fill="none" stroke="#D9BD8C" stroke-width="1.1" opacity="0.55"/><circle cx="1683.0" cy="1046" r="2.1" fill="#D9BD8C" opacity="0.6"/><path d="M 1700 1066 L 1717.0 1050 L 1734 1066 Z" fill="none" stroke="#D9BD8C" stroke-width="1.1" opacity="0.55"/><circle cx="1717.0" cy="1046" r="2.1" fill="#D9BD8C" opacity="0.6"/><path d="M 1734 1066 L 1751.0 1050 L 1768 1066 Z" fill="none" stroke="#D9BD8C" stroke-width="1.1" opacity="0.55"/><circle cx="1751.0" cy="1046" r="2.1" fill="#D9BD8C" opacity="0.6"/><path d="M 1768 1066 L 1785.0 1050 L 1802 1066 Z" fill="none" stroke="#D9BD8C" stroke-width="1.1" opacity="0.55"/><circle cx="1785.0" cy="1046" r="2.1" fill="#D9BD8C" opacity="0.6"/><path d="M 1802 1066 L 1819.0 1050 L 1836 1066 Z" fill="none" stroke="#D9BD8C" stroke-width="1.1" opacity="0.55"/><circle cx="1819.0" cy="1046" r="2.1" fill="#D9BD8C" opacity="0.6"/><path d="M 1836 1066 L 1853.0 1050 L 1870 1066 Z" fill="none" stroke="#D9BD8C" stroke-width="1.1" opacity="0.55"/><circle cx="1853.0" cy="1046" r="2.1" fill="#D9BD8C" opacity="0.6"/><path d="M 1870 1066 L 1887.0 1050 L 1904 1066 Z" fill="none" stroke="#D9BD8C" stroke-width="1.1" opacity="0.55"/><circle cx="1887.0" cy="1046" r="2.1" fill="#D9BD8C" opacity="0.6"/><path d="M 1904 1066 L 1921.0 1050 L 1938 1066 Z" fill="none" stroke="#D9BD8C" stroke-width="1.1" opacity="0.55"/><circle cx="1921.0" cy="1046" r="2.1" fill="#D9BD8C" opacity="0.6"/><path d="M 1938 1066 L 1955.0 1050 L 1972 1066 Z" fill="none" stroke="#D9BD8C" stroke-width="1.1" opacity="0.55"/><circle cx="1955.0" cy="1046" r="2.1" fill="#D9BD8C" opacity="0.6"/></svg>