<svg xmlns="http://www.w3.org/2000/svg" viewBox="0 0 1920 1080" width="1920" height="1080" role="img"><defs>
      <linearGradient id="heroGrad2" x1="0%" y1="0%" x2="100%" y2="100%">
        <stop offset="0%" stop-color="#1E4638"/>
        <stop offset="100%" stop-color="#142F26"/>
      </linearGradient>
      <linearGradient id="foldShade2" x1="0%" y1="0%" x2="0%" y2="100%">
        <stop offset="0%" stop-color="#000000" stop-opacity="0"/>
        <stop offset="100%" stop-color="#000000" stop-opacity="0.35"/>
      </linearGradient>
    </defs><rect width="1920" height="1080" fill="url(#heroGrad2)"/><path d="M -100 159 Q 120 99.0, 240 159.0 Q 360 146.84771477741668, 480 206.84771477741668 Q 600 156.7396831700906, 720 216.7396831700906 Q 840 120.82898823946331, 960 180.8289882394633 Q 1080 67.6021990019945, 1200 127.6021990019945 Q 1320 39.28207411125008, 1440 99.28207411125008 Q 1560 58.333876180872636, 1680 118.33387618087264 Q 1800 109.64454556128806, 1920 169.64454556128806 Q 2040 152.51130756630292, 2160 212.51130756630292 L 2020 1180 L -100 1180 Z" fill="#000000" opacity="0.08"/><path d="M -100 343 Q 120 332.220026966937, 240 400.220026966937 Q 360 338.82400162333613, 480 406.82400162333613 Q 600 294.7988578329306, 720 362.7988578329306 Q 840 235.06804387394726, 960 303.06804387394726 Q 1080 207.01371031570596, 1200 275.01371031570596 Q 1320 232.8902777608007, 1440 300.8902777608007 Q 1560 292.1708634558409, 1680 360.1708634558409 Q 1800 337.83046554552504, 1920 405.83046554552504 Q 2040 333.64908303280885, 2160 401.64908303280885 L 2020 1180 L -100 1180 Z" fill="#000000" opacity="0.11"/><path d="M -100 489 Q 120 482.1066044387518, 240 558.1066044387518 Q 360 429.4753475199296, 480 505.4753475199296 Q 600 363.77483295785424, 720 439.77483295785424 Q 840 337.12274452625996, 960 413.12274452625996 Q 1080 370.66115586103933, 1200 446.66115586103933 Q 1320 437.7853390103594, 1440 513.7853390103594 Q 1560 485.2482688289125, 1680 561.2482688289125 Q 1800 475.3994339965609, 1920 551.3994339965609 Q 2040 416.0515352623567, 2160 492.0515352623567 L 2020 1180 L -100 1180 Z" fill="#000000" opacity="0.14"/><path d="M -100 622 Q 120 549.8540806770288, 240 633.8540806770288 Q 360 478.8359581620949, 480 562.8359581620949 Q 600 454.7503877563315, 720 538.7503877563315 Q 840 496.70352335038376, 960 580.7035233503838 Q 1080 571.4155608394977, 1200 655.4155608394977 Q 1320 619.6203229356697, 1440 703.6203229356697 Q 1560 603.0788313894574, 1680 687.0788313894574 Q 1800 534.9128133486269, 1920 618.9128133486269 Q 2040 469.19574138864834, 2160 553.1957413886483 L 2020 1180 L -100 1180 Z" fill="#000000" opacity="0.08"/><path d="M -100 760 Q 120 598.3741704316706, 240 690.3741704316706 Q 360 578.0343707150168, 480 670.0343707150168 Q 600 629.0608342435264, 720 721.0608342435264 Q 840 710.9762358699479, 960 802.9762358699479 Q 1080 758.8002474093234, 1200 850.8002474093234 Q 1320 734.5959253412847, 1440 826.5959253412847 Q 1560 657.5636246692584, 1680 749.5636246692584 Q 1800 588.810097959005, 1920 680.810097959005 Q 2040 582.8748657500238, 2160 674.8748657500238 L 2020 1180 L -100 1180 Z" fill="#000000" opacity="0.11"/><path d="M -100 935 Q 120 739.1075725336862, 240 839.1075725336862 Q 360 799.7624332456792, 480 899.7624332456792 Q 600 888.369896358105, 720 988.369896358105 Q 840 934.641079458589, 960 1034.641079458589 Q 1080 901.8708379262455, 1200 1001.8708379262455 Q 1320 816.0545402411478, 1440 916.0545402411478 Q 1560 745.266944952695, 1680 845.266944952695 Q 1800 745.6611207383164, 1920 845.6611207383164 Q 2040 816.9243831527956, 2160 916.9243831527956 L 2020 1180 L -100 1180 Z" fill="#000000" opacity="0.14"/><g fill="#D9BD8C" opacity="0.07"><path d="M 1644 420.0 C 1689.0 420.0 1701.0 459.0 1680.0 483.0 C 1665.0 499.2 1647.0 495.0 1645.2 511.2 C 1644 525.0 1657.2 531.0 1668.0 525.0 C 1653.0 537.0 1626.0 531.0 1623.0 513.0 C 1620.0 492.0 1632.0 477.0 1617.0 459.0 C 1602.0 438.0 1623.0 420.0 1644 420.0 Z" transform="rotate(209 1644 474)" /></g><g fill="#D9BD8C" opacity="0.07"><path d="M 485 230.5 C 526.25 230.5 537.25 266.25 518.0 288.25 C 504.25 303.1 487.75 299.25 486.1 314.1 C 485 326.75 497.1 332.25 507.0 326.75 C 493.25 337.75 468.5 332.25 465.75 315.75 C 463.0 296.5 474.0 282.75 460.25 266.25 C 446.5 247.0 465.75 230.5 485 230.5 Z" transform="rotate(28 485 280)" /></g><g fill="#D9BD8C" opacity="0.07"><path d="M 956 480.8 C 999.5 480.8 1011.1 518.5 990.8 541.7 C 976.3 557.36 958.9 553.3 957.16 568.96 C 956 582.3 968.76 588.1 979.2 582.3 C 964.7 593.9 938.6 588.1 935.7 570.7 C 932.8 550.4 944.4 535.9 929.9 518.5 C 915.4 498.2 935.7 480.8 956 480.8 Z" transform="rotate(18 956 533)" /></g><g fill="#D9BD8C" opacity="0.07"><path d="M 1160 375.2 C 1191.5 375.2 1199.9 402.5 1185.2 419.3 C 1174.7 430.64 1162.1 427.7 1160.84 439.04 C 1160 448.7 1169.24 452.9 1176.8 448.7 C 1166.3 457.1 1147.4 452.9 1145.3 440.3 C 1143.2 425.6 1151.6 415.1 1141.1 402.5 C 1130.6 387.8 1145.3 375.2 1160 375.2 Z" transform="rotate(121 1160 413)" /></g><g fill="#D9BD8C" opacity="0.07"><path d="M 1092 661.9 C 1143.75 661.9 1157.55 706.75 1133.4 734.35 C 1116.15 752.98 1095.45 748.15 1093.38 766.78 C 1092 782.65 1107.18 789.55 1119.6 782.65 C 1102.35 796.45 1071.3 789.55 1067.85 768.85 C 1064.4 744.7 1078.2 727.45 1060.95 706.75 C 1043.7 682.6 1067.85 661.9 1092 661.9 Z" transform="rotate(329 1092 724)" /></g><g fill="#D9BD8C" opacity="0.07"><path d="M 1151 226.5 C 1192.25 226.5 1203.25 262.25 1184.0 284.25 C 1170.25 299.1 1153.75 295.25 1152.1 310.1 C 1151 322.75 1163.1 328.25 1173.0 322.75 C 1159.25 333.75 1134.5 328.25 1131.75 311.75 C 1129.0 292.5 1140.0 278.75 1126.25 262.25 C 1112.5 243.0 1131.75 226.5 1151 226.5 Z" transform="rotate(167 1151 276)" /></g><g fill="#D9BD8C" opacity="0.07"><path d="M 1055 159.7 C 1097.75 159.7 1109.15 196.75 1089.2 219.55 C 1074.95 234.94 1057.85 230.95 1056.14 246.34 C 1055 259.45 1067.54 265.15 1077.8 259.45 C 1063.55 270.85 1037.9 265.15 1035.05 248.05 C 1032.2 228.1 1043.6 213.85 1029.35 196.75 C 1015.1 176.8 1035.05 159.7 1055 159.7 Z" transform="rotate(238 1055 211)" /></g><g fill="#D9BD8C" opacity="0.07"><path d="M 1606 783.2 C 1630.0 783.2 1636.4 804.0 1625.2 816.8 C 1617.2 825.44 1607.6 823.2 1606.64 831.84 C 1606 839.2 1613.04 842.4 1618.8 839.2 C 1610.8 845.6 1596.4 842.4 1594.8 832.8 C 1593.2 821.6 1599.6 813.6 1591.6 804.0 C 1583.6 792.8 1594.8 783.2 1606 783.2 Z" transform="rotate(267 1606 812)" /></g><g fill="#D9BD8C" opacity="0.07"><path d="M 589 808.6 C 623.5 808.6 632.7 838.5 616.6 856.9 C 605.1 869.32 591.3 866.1 589.92 878.52 C 589 889.1 599.12 893.7 607.4 889.1 C 595.9 898.3 575.2 893.7 572.9 879.9 C 570.6 863.8 579.8 852.3 568.3 838.5 C 556.8 822.4 572.9 808.6 589 808.6 Z" transform="rotate(228 589 850)" /></g><g fill="#D9BD8C" opacity="0.07"><path d="M 1045 541.7 C 1080.25 541.7 1089.65 572.25 1073.2 591.05 C 1061.45 603.74 1047.35 600.45 1045.94 613.14 C 1045 623.95 1055.34 628.65 1063.8 623.95 C 1052.05 633.35 1030.9 628.65 1028.55 614.55 C 1026.2 598.1 1035.6 586.35 1023.85 572.25 C 1012.1 555.8 1028.55 541.7 1045 541.7 Z" transform="rotate(23 1045 584)" /></g><g fill="#D9BD8C" opacity="0.07"><path d="M 442 688.6 C 469.0 688.6 476.2 712.0 463.6 726.4 C 454.6 736.12 443.8 733.6 442.72 743.32 C 442 751.6 449.92 755.2 456.4 751.6 C 447.4 758.8 431.2 755.2 429.4 744.4 C 427.6 731.8 434.8 722.8 425.8 712.0 C 416.8 699.4 429.4 688.6 442 688.6 Z" transform="rotate(19 442 721)" /></g><g fill="#D9BD8C" opacity="0.07"><path d="M 858 319.0 C 880.5 319.0 886.5 338.5 876.0 350.5 C 868.5 358.6 859.5 356.5 858.6 364.6 C 858 371.5 864.6 374.5 870.0 371.5 C 862.5 377.5 849.0 374.5 847.5 365.5 C 846.0 355.0 852.0 347.5 844.5 338.5 C 837.0 328.0 847.5 319.0 858 319.0 Z" transform="rotate(90 858 346)" /></g><g fill="#D9BD8C" opacity="0.07"><path d="M 516 252.7 C 543.75 252.7 551.15 276.75 538.2 291.55 C 528.95 301.54 517.85 298.95 516.74 308.94 C 516 317.45 524.14 321.15 530.8 317.45 C 521.55 324.85 504.9 321.15 503.05 310.05 C 501.2 297.1 508.6 287.85 499.35 276.75 C 490.1 263.8 503.05 252.7 516 252.7 Z" transform="rotate(183 516 286)" /></g><g fill="#D9BD8C" opacity="0.07"><path d="M 341 267.2 C 372.5 267.2 380.9 294.5 366.2 311.3 C 355.7 322.64 343.1 319.7 341.84 331.04 C 341 340.7 350.24 344.9 357.8 340.7 C 347.3 349.1 328.4 344.9 326.3 332.3 C 324.2 317.6 332.6 307.1 322.1 294.5 C 311.6 279.8 326.3 267.2 341 267.2 Z" transform="rotate(223 341 305)" /></g><rect width="1920" height="1080" fill="url(#foldShade2)"/><rect x="0" y="1066" width="1920" height="6" fill="#D9BD8C" opacity="0.85"/><path d="M 0 1066 L 17.0 1050 L 34 1066 Z" fill="none" stroke="#D9BD8C" stroke-width="1.1" opacity="0.55"/><circle cx="17.0" cy="1046" r="2.1" fill="#D9BD8C" opacity="0.6"/><path d="M 34 1066 L 51.0 1050 L 68 1066 Z" fill="none" stroke="#D9BD8C" stroke-width="1.1" opacity="0.55"/><circle cx="51.0" cy="1046" r="2.1" fill="#D9BD8C" opacity="0.6"/><path d="M 68 1066 L 85.0 1050 L 102 1066 Z" fill="none" stroke="#D9BD8C" stroke-width="1.1" opacity="0.55"/><circle cx="85.0" cy="1046" r="2.1" fill="#D9BD8C" opacity="0.6"/><path d="M 102 1066 L 119.0 1050 L 136 1066 Z" fill="none" stroke="#D9BD8C" stroke-width="1.1" opacity="0.55"/><circle cx="119.0" cy="1046" r="2.1" fill="#D9BD8C" opacity="0.6"/><path d="M 136 1066 L 153.0 1050 L 170 1066 Z" fill="none" stroke="#D9BD8C" stroke-width="1.1" opacity="0.55"/><circle cx="153.0" cy="1046" r="2.1" fill="#D9BD8C" opacity="0.6"/><path d="M 170 1066 L 187.0 1050 L 204 1066 Z" fill="none" stroke="#D9BD8C" stroke-width="1.1" opacity="0.55"/><circle cx="187.0" cy="1046" r="2.1" fill="#D9BD8C" opacity="0.6"/><path d="M 204 1066 L 221.0 1050 L 238 1066 Z" fill="none" stroke="#D9BD8C" stroke-width="1.1" opacity="0.55"/><circle cx="221.0" cy="1046" r="2.1" fill="#D9BD8C" opacity="0.6"/><path d="M 238 1066 L 255.0 1050 L 272 1066 Z" fill="none" stroke="#D9BD8C" stroke-width="1.1" opacity="0.55"/><circle cx="255.0" cy="1046" r="2.1" fill="#D9BD8C" opacity="0.6"/><path d="M 272 1066 L 289.0 1050 L 306 1066 Z" fill="none" stroke="#D9BD8C" stroke-width="1.1" opacity="0.55"/><circle cx="289.0" cy="1046" r="2.1" fill="#D9BD8C" opacity="0.6"/><path d="M 306 1066 L 323.0 1050 L 340 1066 Z" fill="none" stroke="#D9BD8C" stroke-width="1.1" opacity="0.55"/><circle cx="323.0" cy="1046" r="2.1" fill="#D9BD8C" opacity="0.6"/><path d="M 340 1066 L 357.0 1050 L 374 1066 Z" fill="none" stroke="#D9BD8C" stroke-width="1.1" opacity="0.55"/><circle cx="357.0" cy="1046" r="2.1" fill="#D9BD8C" opacity="0.6"/><path d="M 374 1066 L 391.0 1050 L 408 1066 Z" fill="none" stroke="#D9BD8C" stroke-width="1.1" opacity="0.55"/><circle cx="391.0" cy="1046" r="2.1" fill="#D9BD8C" opacity="0.6"/><path d="M 408 1066 L 425.0 1050 L 442 1066 Z" fill="none" stroke="#D9BD8C" stroke-width="1.1" opacity="0.55"/><circle cx="425.0" cy="1046" r="2.1" fill="#D9BD8C" opacity="0.6"/><path d="M 442 1066 L 459.0 1050 L 476 1066 Z" fill="none" stroke="#D9BD8C" stroke-width="1.1" opacity="0.55"/><circle cx="459.0" cy="1046" r="2.1" fill="#D9BD8C" opacity="0.6"/><path d="M 476 1066 L 493.0 1050 L 510 1066 Z" fill="none" stroke="#D9BD8C" stroke-width="1.1" opacity="0.55"/><circle cx="493.0" cy="1046" r="2.1" fill="#D9BD8C" opacity="0.6"/><path d="M 510 1066 L 527.0 1050 L 544 1066 Z" fill="none" stroke="#D9BD8C" stroke-width="1.1" opacity="0.55"/><circle cx="527.0" cy="1046" r="2.1" fill="#D9BD8C" opacity="0.6"/><path d="M 544 1066 L 561.0 1050 L 578 1066 Z" fill="none" stroke="#D9BD8C" stroke-width="1.1" opacity="0.55"/><circle cx="561.0" cy="1046" r="2.1" fill="#D9BD8C" opacity="0.6"/><path d="M 578 1066 L 595.0 1050 L 612 1066 Z" fill="none" stroke="#D9BD8C" stroke-width="1.1" opacity="0.55"/><circle cx="595.0" cy="1046" r="2.1" fill="#D9BD8C" opacity="0.6"/><path d="M 612 1066 L 629.0 1050 L 646 1066 Z" fill="none" stroke="#D9BD8C" stroke-width="1.1" opacity="0.55"/><circle cx="629.0" cy="1046" r="2.1" fill="#D9BD8C" opacity="0.6"/><path d="M 646 1066 L 663.0 1050 L 680 1066 Z" fill="none" stroke="#D9BD8C" stroke-width="1.1" opacity="0.55"/><circle cx="663.0" cy="1046" r="2.1" fill="#D9BD8C" opacity="0.6"/><path d="M 680 1066 L 697.0 1050 L 714 1066 Z" fill="none" stroke="#D9BD8C" stroke-width="1.1" opacity="0.55"/><circle cx="697.0" cy="1046" r="2.1" fill="#D9BD8C" opacity="0.6"/><path d="M 714 1066 L 731.0 1050 L 748 1066 Z" fill="none" stroke="#D9BD8C" stroke-width="1.1" opacity="0.55"/><circle cx="731.0" cy="1046" r="2.1" fill="#D9BD8C" opacity="0.6"/><path d="M 748 1066 L 765.0 1050 L 782 1066 Z" fill="none" stroke="#D9BD8C" stroke-width="1.1" opacity="0.55"/><circle cx="765.0" cy="1046" r="2.1" fill="#D9BD8C" opacity="0.6"/><path d="M 782 1066 L 799.0 1050 L 816 1066 Z" fill="none" stroke="#D9BD8C" stroke-width="1.1" opacity="0.55"/><circle cx="799.0" cy="1046" r="2.1" fill="#D9BD8C" opacity="0.6"/><path d="M 816 1066 L 833.0 1050 L 850 1066 Z" fill="none" stroke="#D9BD8C" stroke-width="1.1" opacity="0.55"/><circle cx="833.0" cy="1046" r="2.1" fill="#D9BD8C" opacity="0.6"/><path d="M 850 1066 L 867.0 1050 L 884 1066 Z" fill="none" stroke="#D9BD8C" stroke-width="1.1" opacity="0.55"/><circle cx="867.0" cy="1046" r="2.1" fill="#D9BD8C" opacity="0.6"/><path d="M 884 1066 L 901.0 1050 L 918 1066 Z" fill="none" stroke="#D9BD8C" stroke-width="1.1" opacity="0.55"/><circle cx="901.0" cy="1046" r="2.1" fill="#D9BD8C" opacity="0.6"/><path d="M 918 1066 L 935.0 1050 L 952 1066 Z" fill="none" stroke="#D9BD8C" stroke-width="1.1" opacity="0.55"/><circle cx="935.0" cy="1046" r="2.1" fill="#D9BD8C" opacity="0.6"/><path d="M 952 1066 L 969.0 1050 L 986 1066 Z" fill="none" stroke="#D9BD8C" stroke-width="1.1" opacity="0.55"/><circle cx="969.0" cy="1046" r="2.1" fill="#D9BD8C" opacity="0.6"/><path d="M 986 1066 L 1003.0 1050 L 1020 1066 Z" fill="none" stroke="#D9BD8C" stroke-width="1.1" opacity="0.55"/><circle cx="1003.0" cy="1046" r="2.1" fill="#D9BD8C" opacity="0.6"/><path d="M 1020 1066 L 1037.0 1050 L 1054 1066 Z" fill="none" stroke="#D9BD8C" stroke-width="1.1" opacity="0.55"/><circle cx="1037.0" cy="1046" r="2.1" fill="#D9BD8C" opacity="0.6"/><path d="M 1054 1066 L 1071.0 1050 L 1088 1066 Z" fill="none" stroke="#D9BD8C" stroke-width="1.1" opacity="0.55"/><circle cx="1071.0" cy="1046" r="2.1" fill="#D9BD8C" opacity="0.6"/><path d="M 1088 1066 L 1105.0 1050 L 1122 1066 Z" fill="none" stroke="#D9BD8C" stroke-width="1.1" opacity="0.55"/><circle cx="1105.0" cy="1046" r="2.1" fill="#D9BD8C" opacity="0.6"/><path d="M 1122 1066 L 1139.0 1050 L 1156 1066 Z" fill="none" stroke="#D9BD8C" stroke-width="1.1" opacity="0.55"/><circle cx="1139.0" cy="1046" r="2.1" fill="#D9BD8C" opacity="0.6"/><path d="M 1156 1066 L 1173.0 1050 L 1190 1066 Z" fill="none" stroke="#D9BD8C" stroke-width="1.1" opacity="0.55"/><circle cx="1173.0" cy="1046" r="2.1" fill="#D9BD8C" opacity="0.6"/><path d="M 1190 1066 L 1207.0 1050 L 1224 1066 Z" fill="none" stroke="#D9BD8C" stroke-width="1.1" opacity="0.55"/><circle cx="1207.0" cy="1046" r="2.1" fill="#D9BD8C" opacity="0.6"/><path d="M 1224 1066 L 1241.0 1050 L 1258 1066 Z" fill="none" stroke="#D9BD8C" stroke-width="1.1" opacity="0.55"/><circle cx="1241.0" cy="1046" r="2.1" fill="#D9BD8C" opacity="0.6"/><path d="M 1258 1066 L 1275.0 1050 L 1292 1066 Z" fill="none" stroke="#D9BD8C" stroke-width="1.1" opacity="0.55"/><circle cx="1275.0" cy="1046" r="2.1" fill="#D9BD8C" opacity="0.6"/><path d="M 1292 1066 L 1309.0 1050 L 1326 1066 Z" fill="none" stroke="#D9BD8C" stroke-width="1.1" opacity="0.55"/><circle cx="1309.0" cy="1046" r="2.1" fill="#D9BD8C" opacity="0.6"/><path d="M 1326 1066 L 1343.0 1050 L 1360 1066 Z" fill="none" stroke="#D9BD8C" stroke-width="1.1" opacity="0.55"/><circle cx="1343.0" cy="1046" r="2.1" fill="#D9BD8C" opacity="0.6"/><path d="M 1360 1066 L 1377.0 1050 L 1394 1066 Z" fill="none" stroke="#D9BD8C" stroke-width="1.1" opacity="0.55"/><circle cx="1377.0" cy="1046" r="2.1" fill="#D9BD8C" opacity="0.6"/><path d="M 1394 1066 L 1411.0 1050 L 1428 1066 Z" fill="none" stroke="#D9BD8C" stroke-width="1.1" opacity="0.55"/><circle cx="1411.0" cy="1046" r="2.1" fill="#D9BD8C" opacity="0.6"/><path d="M 1428 1066 L 1445.0 1050 L 1462 1066 Z" fill="none" stroke="#D9BD8C" stroke-width="1.1" opacity="0.55"/><circle cx="1445.0" cy="1046" r="2.1" fill="#D9BD8C" opacity="0.6"/><path d="M 1462 1066 L 1479.0 1050 L 1496 1066 Z" fill="none" stroke="#D9BD8C" stroke-width="1.1" opacity="0.55"/><circle cx="1479.0" cy="1046" r="2.1" fill="#D9BD8C" opacity="0.6"/><path d="M 1496 1066 L 1513.0 1050 L 1530 1066 Z" fill="none" stroke="#D9BD8C" stroke-width="1.1" opacity="0.55"/><circle cx="1513.0" cy="1046" r="2.1" fill="#D9BD8C" opacity="0.6"/><path d="M 1530 1066 L 1547.0 1050 L 1564 1066 Z" fill="none" stroke="#D9BD8C" stroke-width="1.1" opacity="0.55"/><circle cx="1547.0" cy="1046" r="2.1" fill="#D9BD8C" opacity="0.6"/><path d="M 1564 1066 L 1581.0 1050 L 1598 1066 Z" fill="none" stroke="#D9BD8C" stroke-width="1.1" opacity="0.55"/><circle cx="1581.0" cy="1046" r="2.1" fill="#D9BD8C" opacity="0.6"/><path d="M 1598 1066 L 1615.0 1050 L 1632 1066 Z" fill="none" stroke="#D9BD8C" stroke-width="1.1" opacity="0.55"/><circle cx="1615.0" cy="1046" r="2.1" fill="#D9BD8C" opacity="0.6"/><path d="M 1632 1066 L 1649.0 1050 L 1666 1066 Z" fill="none" stroke="#D9BD8C" stroke-width="1.1" opacity="0.55"/><circle cx="1649.0" cy="1046" r="2.1" fill="#D9BD8C" opacity="0.6"/><path d="M 1666 1066 L 1683.0 1050 L 1700 1066 Z" fill="none" stroke="#D9BD8C" stroke-width="1.1" opacity="0.55"/><circle cx="1683.0" cy="1046" r="2.1" fill="#D9BD8C" opacity="0.6"/><path d="M 1700 1066 L 1717.0 1050 L 1734 1066 Z" fill="none" stroke="#D9BD8C" stroke-width="1.1" opacity="0.55"/><circle cx="1717.0" cy="1046" r="2.1" fill="#D9BD8C" opacity="0.6"/><path d="M 1734 1066 L 1751.0 1050 L 1768 1066 Z" fill="none" stroke="#D9BD8C" stroke-width="1.1" opacity="0.55"/><circle cx="1751.0" cy="1046" r="2.1" fill="#D9BD8C" opacity="0.6"/><path d="M 1768 1066 L 1785.0 1050 L 1802 1066 Z" fill="none" stroke="#D9BD8C" stroke-width="1.1" opacity="0.55"/><circle cx="1785.0" cy="1046" r="2.1" fill="#D9BD8C" opacity="0.6"/><path d="M 1802 1066 L 1819.0 1050 L 1836 1066 Z" fill="none" stroke="#D9BD8C" stroke-width="1.1" opacity="0.55"/><circle cx="1819.0" cy="1046" r="2.1" fill="#D9BD8C" opacity="0.6"/><path d="M 1836 1066 L 1853.0 1050 L 1870 1066 Z" fill="none" stroke="#D9BD8C" stroke-width="1.1" opacity="0.55"/><circle cx="1853.0" cy="1046" r="2.1" fill="#D9BD8C" opacity="0.6"/><path d="M 1870 1066 L 1887.0 1050 L 1904 1066 Z" fill="none" stroke="#D9BD8C" stroke-width="1.1" opacity="0.55"/><circle cx="1887.0" cy="1046" r="2.1" fill="#D9BD8C" opacity="0.6"/><path d="M 1904 1066 L 1921.0 1050 L 1938 1066 Z" fill="none" stroke="#D9BD8C" stroke-width="1.1" opacity="0.55"/><circle cx="1921.0" cy="1046" r="2.1" fill="#D9BD8C" opacity="0.6"/><path d="M 1938 1066 L 1955.0 1050 L 1972 1066 Z" fill="none" stroke="#D9BD8C" stroke-width="1.1" opacity="0.55"/><circle cx="1955.0" cy="1046" r="2.1" fill="#D9BD8C" opacity="0.6"/></svg>