<svg xmlns="http://www.w3.org/2000/svg" viewBox="0 0 1400 900" width="1400" height="900" role="img"><defs>
      <linearGradient id="lifeGrad1" x1="0%" y1="0%" x2="100%" y2="100%">
        <stop offset="0%" stop-color="#EDE0CB"/>
        <stop offset="100%" stop-color="#6B1220"/>
      </linearGradient>
    </defs><rect width="1400" height="900" fill="url(#lifeGrad1)"/><g fill="#3D0A14" opacity="0.10"><path d="M 729 659.5 C 815.25 659.5 838.25 734.25 798.0 780.25 C 769.25 811.3 734.75 803.25 731.3 834.3 C 729 860.75 754.3 872.25 775.0 860.75 C 746.25 883.75 694.5 872.25 688.75 837.75 C 683.0 797.5 706.0 768.75 677.25 734.25 C 648.5 694.0 688.75 659.5 729 659.5 Z" transform="rotate(123 729 763)" /></g><g fill="#3D0A14" opacity="0.10"><path d="M 821 340.7 C 923.75 340.7 951.15 429.75 903.2 484.55 C 868.95 521.54 827.85 511.95 823.74 548.94 C 821 580.45 851.14 594.15 875.8 580.45 C 841.55 607.85 779.9 594.15 773.05 553.05 C 766.2 505.1 793.6 470.85 759.35 429.75 C 725.1 381.8 773.05 340.7 821 340.7 Z" transform="rotate(186 821 464)" /></g><g fill="#3D0A14" opacity="0.10"><path d="M 501 365.5 C 587.25 365.5 610.25 440.25 570.0 486.25 C 541.25 517.3 506.75 509.25 503.3 540.3 C 501 566.75 526.3 578.25 547.0 566.75 C 518.25 589.75 466.5 578.25 460.75 543.75 C 455.0 503.5 478.0 474.75 449.25 440.25 C 420.5 400.0 460.75 365.5 501 365.5 Z" transform="rotate(230 501 469)" /></g><g fill="#3D0A14" opacity="0.10"><path d="M 1090 24.700000000000003 C 1177.75 24.700000000000003 1201.15 100.75 1160.2 147.55 C 1130.95 179.14 1095.85 170.95 1092.34 202.54000000000002 C 1090 229.45 1115.74 241.14999999999998 1136.8 229.45 C 1107.55 252.85000000000002 1054.9 241.14999999999998 1049.05 206.05 C 1043.2 165.1 1066.6 135.85 1037.35 100.75 C 1008.1 59.8 1049.05 24.700000000000003 1090 24.700000000000003 Z" transform="rotate(236 1090 130)" /></g><circle cx="1148.0" cy="252.00000000000003" r="120" fill="none" stroke="#3D0A14" stroke-width="1.4" stroke-dasharray="none" opacity="0.18"/><circle cx="1148.0" cy="252.00000000000003" r="93.60000000000001" fill="none" stroke="#3D0A14" stroke-width="0.7" stroke-dasharray="none" opacity="0.18"/><circle cx="1148.0" cy="252.00000000000003" r="66.0" fill="none" stroke="#3D0A14" stroke-width="1.4" stroke-dasharray="3 5" opacity="0.18"/><circle cx="1282.4" cy="252.00000000000003" r="5.3999999999999995" fill="#3D0A14" opacity="0.18"/><circle cx="1264.3938142686286" cy="319.20000000000005" r="5.3999999999999995" fill="#3D0A14" opacity="0.18"/><circle cx="1215.2" cy="368.3938142686286" r="5.3999999999999995" fill="#3D0A14" opacity="0.18"/><circle cx="1148.0" cy="386.40000000000003" r="5.3999999999999995" fill="#3D0A14" opacity="0.18"/><circle cx="1080.8" cy="368.3938142686286" r="5.3999999999999995" fill="#3D0A14" opacity="0.18"/><circle cx="1031.6061857313714" cy="319.20000000000005" r="5.3999999999999995" fill="#3D0A14" opacity="0.18"/><circle cx="1013.6" cy="252.00000000000006" r="5.3999999999999995" fill="#3D0A14" opacity="0.18"/><circle cx="1031.6061857313714" cy="184.80000000000007" r="5.3999999999999995" fill="#3D0A14" opacity="0.18"/><circle cx="1080.8" cy="135.6061857313715" r="5.3999999999999995" fill="#3D0A14" opacity="0.18"/><circle cx="1148.0" cy="117.60000000000002" r="5.3999999999999995" fill="#3D0A14" opacity="0.18"/><circle cx="1215.2" cy="135.60618573137148" r="5.3999999999999995" fill="#3D0A14" opacity="0.18"/><circle cx="1264.3938142686286" cy="184.79999999999995" r="5.3999999999999995" fill="#3D0A14" opacity="0.18"/><rect x="0" y="888" width="1400" height="5" fill="#B08D57" opacity="0.85"/><path d="M 0 888 L 17.0 872 L 34 888 Z" fill="none" stroke="#B08D57" stroke-width="1.1" opacity="0.55"/><circle cx="17.0" cy="868" r="2.1" fill="#B08D57" opacity="0.6"/><path d="M 34 888 L 51.0 872 L 68 888 Z" fill="none" stroke="#B08D57" stroke-width="1.1" opacity="0.55"/><circle cx="51.0" cy="868" r="2.1" fill="#B08D57" opacity="0.6"/><path d="M 68 888 L 85.0 872 L 102 888 Z" fill="none" stroke="#B08D57" stroke-width="1.1" opacity="0.55"/><circle cx="85.0" cy="868" r="2.1" fill="#B08D57" opacity="0.6"/><path d="M 102 888 L 119.0 872 L 136 888 Z" fill="none" stroke="#B08D57" stroke-width="1.1" opacity="0.55"/><circle cx="119.0" cy="868" r="2.1" fill="#B08D57" opacity="0.6"/><path d="M 136 888 L 153.0 872 L 170 888 Z" fill="none" stroke="#B08D57" stroke-width="1.1" opacity="0.55"/><circle cx="153.0" cy="868" r="2.1" fill="#B08D57" opacity="0.6"/><path d="M 170 888 L 187.0 872 L 204 888 Z" fill="none" stroke="#B08D57" stroke-width="1.1" opacity="0.55"/><circle cx="187.0" cy="868" r="2.1" fill="#B08D57" opacity="0.6"/><path d="M 204 888 L 221.0 872 L 238 888 Z" fill="none" stroke="#B08D57" stroke-width="1.1" opacity="0.55"/><circle cx="221.0" cy="868" r="2.1" fill="#B08D57" opacity="0.6"/><path d="M 238 888 L 255.0 872 L 272 888 Z" fill="none" stroke="#B08D57" stroke-width="1.1" opacity="0.55"/><circle cx="255.0" cy="868" r="2.1" fill="#B08D57" opacity="0.6"/><path d="M 272 888 L 289.0 872 L 306 888 Z" fill="none" stroke="#B08D57" stroke-width="1.1" opacity="0.55"/><circle cx="289.0" cy="868" r="2.1" fill="#B08D57" opacity="0.6"/><path d="M 306 888 L 323.0 872 L 340 888 Z" fill="none" stroke="#B08D57" stroke-width="1.1" opacity="0.55"/><circle cx="323.0" cy="868" r="2.1" fill="#B08D57" opacity="0.6"/><path d="M 340 888 L 357.0 872 L 374 888 Z" fill="none" stroke="#B08D57" stroke-width="1.1" opacity="0.55"/><circle cx="357.0" cy="868" r="2.1" fill="#B08D57" opacity="0.6"/><path d="M 374 888 L 391.0 872 L 408 888 Z" fill="none" stroke="#B08D57" stroke-width="1.1" opacity="0.55"/><circle cx="391.0" cy="868" r="2.1" fill="#B08D57" opacity="0.6"/><path d="M 408 888 L 425.0 872 L 442 888 Z" fill="none" stroke="#B08D57" stroke-width="1.1" opacity="0.55"/><circle cx="425.0" cy="868" r="2.1" fill="#B08D57" opacity="0.6"/><path d="M 442 888 L 459.0 872 L 476 888 Z" fill="none" stroke="#B08D57" stroke-width="1.1" opacity="0.55"/><circle cx="459.0" cy="868" r="2.1" fill="#B08D57" opacity="0.6"/><path d="M 476 888 L 493.0 872 L 510 888 Z" fill="none" stroke="#B08D57" stroke-width="1.1" opacity="0.55"/><circle cx="493.0" cy="868" r="2.1" fill="#B08D57" opacity="0.6"/><path d="M 510 888 L 527.0 872 L 544 888 Z" fill="none" stroke="#B08D57" stroke-width="1.1" opacity="0.55"/><circle cx="527.0" cy="868" r="2.1" fill="#B08D57" opacity="0.6"/><path d="M 544 888 L 561.0 872 L 578 888 Z" fill="none" stroke="#B08D57" stroke-width="1.1" opacity="0.55"/><circle cx="561.0" cy="868" r="2.1" fill="#B08D57" opacity="0.6"/><path d="M 578 888 L 595.0 872 L 612 888 Z" fill="none" stroke="#B08D57" stroke-width="1.1" opacity="0.55"/><circle cx="595.0" cy="868" r="2.1" fill="#B08D57" opacity="0.6"/><path d="M 612 888 L 629.0 872 L 646 888 Z" fill="none" stroke="#B08D57" stroke-width="1.1" opacity="0.55"/><circle cx="629.0" cy="868" r="2.1" fill="#B08D57" opacity="0.6"/><path d="M 646 888 L 663.0 872 L 680 888 Z" fill="none" stroke="#B08D57" stroke-width="1.1" opacity="0.55"/><circle cx="663.0" cy="868" r="2.1" fill="#B08D57" opacity="0.6"/><path d="M 680 888 L 697.0 872 L 714 888 Z" fill="none" stroke="#B08D57" stroke-width="1.1" opacity="0.55"/><circle cx="697.0" cy="868" r="2.1" fill="#B08D57" opacity="0.6"/><path d="M 714 888 L 731.0 872 L 748 888 Z" fill="none" stroke="#B08D57" stroke-width="1.1" opacity="0.55"/><circle cx="731.0" cy="868" r="2.1" fill="#B08D57" opacity="0.6"/><path d="M 748 888 L 765.0 872 L 782 888 Z" fill="none" stroke="#B08D57" stroke-width="1.1" opacity="0.55"/><circle cx="765.0" cy="868" r="2.1" fill="#B08D57" opacity="0.6"/><path d="M 782 888 L 799.0 872 L 816 888 Z" fill="none" stroke="#B08D57" stroke-width="1.1" opacity="0.55"/><circle cx="799.0" cy="868" r="2.1" fill="#B08D57" opacity="0.6"/><path d="M 816 888 L 833.0 872 L 850 888 Z" fill="none" stroke="#B08D57" stroke-width="1.1" opacity="0.55"/><circle cx="833.0" cy="868" r="2.1" fill="#B08D57" opacity="0.6"/><path d="M 850 888 L 867.0 872 L 884 888 Z" fill="none" stroke="#B08D57" stroke-width="1.1" opacity="0.55"/><circle cx="867.0" cy="868" r="2.1" fill="#B08D57" opacity="0.6"/><path d="M 884 888 L 901.0 872 L 918 888 Z" fill="none" stroke="#B08D57" stroke-width="1.1" opacity="0.55"/><circle cx="901.0" cy="868" r="2.1" fill="#B08D57" opacity="0.6"/><path d="M 918 888 L 935.0 872 L 952 888 Z" fill="none" stroke="#B08D57" stroke-width="1.1" opacity="0.55"/><circle cx="935.0" cy="868" r="2.1" fill="#B08D57" opacity="0.6"/><path d="M 952 888 L 969.0 872 L 986 888 Z" fill="none" stroke="#B08D57" stroke-width="1.1" opacity="0.55"/><circle cx="969.0" cy="868" r="2.1" fill="#B08D57" opacity="0.6"/><path d="M 986 888 L 1003.0 872 L 1020 888 Z" fill="none" stroke="#B08D57" stroke-width="1.1" opacity="0.55"/><circle cx="1003.0" cy="868" r="2.1" fill="#B08D57" opacity="0.6"/><path d="M 1020 888 L 1037.0 872 L 1054 888 Z" fill="none" stroke="#B08D57" stroke-width="1.1" opacity="0.55"/><circle cx="1037.0" cy="868" r="2.1" fill="#B08D57" opacity="0.6"/><path d="M 1054 888 L 1071.0 872 L 1088 888 Z" fill="none" stroke="#B08D57" stroke-width="1.1" opacity="0.55"/><circle cx="1071.0" cy="868" r="2.1" fill="#B08D57" opacity="0.6"/><path d="M 1088 888 L 1105.0 872 L 1122 888 Z" fill="none" stroke="#B08D57" stroke-width="1.1" opacity="0.55"/><circle cx="1105.0" cy="868" r="2.1" fill="#B08D57" opacity="0.6"/><path d="M 1122 888 L 1139.0 872 L 1156 888 Z" fill="none" stroke="#B08D57" stroke-width="1.1" opacity="0.55"/><circle cx="1139.0" cy="868" r="2.1" fill="#B08D57" opacity="0.6"/><path d="M 1156 888 L 1173.0 872 L 1190 888 Z" fill="none" stroke="#B08D57" stroke-width="1.1" opacity="0.55"/><circle cx="1173.0" cy="868" r="2.1" fill="#B08D57" opacity="0.6"/><path d="M 1190 888 L 1207.0 872 L 1224 888 Z" fill="none" stroke="#B08D57" stroke-width="1.1" opacity="0.55"/><circle cx="1207.0" cy="868" r="2.1" fill="#B08D57" opacity="0.6"/><path d="M 1224 888 L 1241.0 872 L 1258 888 Z" fill="none" stroke="#B08D57" stroke-width="1.1" opacity="0.55"/><circle cx="1241.0" cy="868" r="2.1" fill="#B08D57" opacity="0.6"/><path d="M 1258 888 L 1275.0 872 L 1292 888 Z" fill="none" stroke="#B08D57" stroke-width="1.1" opacity="0.55"/><circle cx="1275.0" cy="868" r="2.1" fill="#B08D57" opacity="0.6"/><path d="M 1292 888 L 1309.0 872 L 1326 888 Z" fill="none" stroke="#B08D57" stroke-width="1.1" opacity="0.55"/><circle cx="1309.0" cy="868" r="2.1" fill="#B08D57" opacity="0.6"/><path d="M 1326 888 L 1343.0 872 L 1360 888 Z" fill="none" stroke="#B08D57" stroke-width="1.1" opacity="0.55"/><circle cx="1343.0" cy="868" r="2.1" fill="#B08D57" opacity="0.6"/><path d="M 1360 888 L 1377.0 872 L 1394 888 Z" fill="none" stroke="#B08D57" stroke-width="1.1" opacity="0.55"/><circle cx="1377.0" cy="868" r="2.1" fill="#B08D57" opacity="0.6"/><path d="M 1394 888 L 1411.0 872 L 1428 888 Z" fill="none" stroke="#B08D57" stroke-width="1.1" opacity="0.55"/><circle cx="1411.0" cy="868" r="2.1" fill="#B08D57" opacity="0.6"/><path d="M 1428 888 L 1445.0 872 L 1462 888 Z" fill="none" stroke="#B08D57" stroke-width="1.1" opacity="0.55"/><circle cx="1445.0" cy="868" r="2.1" fill="#B08D57" opacity="0.6"/></svg>