<svg xmlns="http://www.w3.org/2000/svg" viewBox="0 0 1400 900" width="1400" height="900" role="img"><defs>
      <linearGradient id="lifeGrad2" x1="0%" y1="0%" x2="100%" y2="100%">
        <stop offset="0%" stop-color="#EDE0CB"/>
        <stop offset="100%" stop-color="#1E4638"/>
      </linearGradient>
    </defs><rect width="1400" height="900" fill="url(#lifeGrad2)"/><g fill="#142F26" opacity="0.10"><path d="M 1185 410.1 C 1253.25 410.1 1271.45 469.25 1239.6 505.65 C 1216.85 530.22 1189.55 523.85 1186.82 548.42 C 1185 569.35 1205.02 578.45 1221.4 569.35 C 1198.65 587.55 1157.7 578.45 1153.15 551.15 C 1148.6 519.3 1166.8 496.55 1144.05 469.25 C 1121.3 437.4 1153.15 410.1 1185 410.1 Z" transform="rotate(322 1185 492)" /></g><g fill="#142F26" opacity="0.10"><path d="M 870 181.39999999999998 C 963.0 181.39999999999998 987.8 262.0 944.4 311.6 C 913.4 345.08 876.2 336.4 872.48 369.88 C 870 398.4 897.28 410.8 919.6 398.4 C 888.6 423.20000000000005 832.8 410.8 826.6 373.6 C 820.4 330.2 845.2 299.2 814.2 262.0 C 783.2 218.60000000000002 826.6 181.39999999999998 870 181.39999999999998 Z" transform="rotate(20 870 293)" /></g><g fill="#142F26" opacity="0.10"><path d="M 926 566.9 C 985.25 566.9 1001.05 618.25 973.4 649.85 C 953.65 671.18 929.95 665.65 927.58 686.98 C 926 705.15 943.38 713.05 957.6 705.15 C 937.85 720.95 902.3 713.05 898.35 689.35 C 894.4 661.7 910.2 641.95 890.45 618.25 C 870.7 590.6 898.35 566.9 926 566.9 Z" transform="rotate(126 926 638)" /></g><g fill="#142F26" opacity="0.10"><path d="M 803 246.3 C 865.25 246.3 881.85 300.25 852.8 333.45 C 832.05 355.86 807.15 350.05 804.66 372.46 C 803 391.55 821.26 399.85 836.2 391.55 C 815.45 408.15 778.1 399.85 773.95 374.95 C 769.8 345.9 786.4 325.15 765.65 300.25 C 744.9 271.2 773.95 246.3 803 246.3 Z" transform="rotate(338 803 321)" /></g><circle cx="1148.0" cy="252.00000000000003" r="120" fill="none" stroke="#142F26" stroke-width="1.4" stroke-dasharray="none" opacity="0.18"/><circle cx="1148.0" cy="252.00000000000003" r="93.60000000000001" fill="none" stroke="#142F26" stroke-width="0.7" stroke-dasharray="none" opacity="0.18"/><circle cx="1148.0" cy="252.00000000000003" r="66.0" fill="none" stroke="#142F26" stroke-width="1.4" stroke-dasharray="3 5" opacity="0.18"/><circle cx="1282.4" cy="252.00000000000003" r="5.3999999999999995" fill="#142F26" opacity="0.18"/><circle cx="1264.3938142686286" cy="319.20000000000005" r="5.3999999999999995" fill="#142F26" opacity="0.18"/><circle cx="1215.2" cy="368.3938142686286" r="5.3999999999999995" fill="#142F26" opacity="0.18"/><circle cx="1148.0" cy="386.40000000000003" r="5.3999999999999995" fill="#142F26" opacity="0.18"/><circle cx="1080.8" cy="368.3938142686286" r="5.3999999999999995" fill="#142F26" opacity="0.18"/><circle cx="1031.6061857313714" cy="319.20000000000005" r="5.3999999999999995" fill="#142F26" opacity="0.18"/><circle cx="1013.6" cy="252.00000000000006" r="5.3999999999999995" fill="#142F26" opacity="0.18"/><circle cx="1031.6061857313714" cy="184.80000000000007" r="5.3999999999999995" fill="#142F26" opacity="0.18"/><circle cx="1080.8" cy="135.6061857313715" r="5.3999999999999995" fill="#142F26" opacity="0.18"/><circle cx="1148.0" cy="117.60000000000002" r="5.3999999999999995" fill="#142F26" opacity="0.18"/><circle cx="1215.2" cy="135.60618573137148" r="5.3999999999999995" fill="#142F26" opacity="0.18"/><circle cx="1264.3938142686286" cy="184.79999999999995" r="5.3999999999999995" fill="#142F26" opacity="0.18"/><rect x="0" y="888" width="1400" height="5" fill="#B08D57" opacity="0.85"/><path d="M 0 888 L 17.0 872 L 34 888 Z" fill="none" stroke="#B08D57" stroke-width="1.1" opacity="0.55"/><circle cx="17.0" cy="868" r="2.1" fill="#B08D57" opacity="0.6"/><path d="M 34 888 L 51.0 872 L 68 888 Z" fill="none" stroke="#B08D57" stroke-width="1.1" opacity="0.55"/><circle cx="51.0" cy="868" r="2.1" fill="#B08D57" opacity="0.6"/><path d="M 68 888 L 85.0 872 L 102 888 Z" fill="none" stroke="#B08D57" stroke-width="1.1" opacity="0.55"/><circle cx="85.0" cy="868" r="2.1" fill="#B08D57" opacity="0.6"/><path d="M 102 888 L 119.0 872 L 136 888 Z" fill="none" stroke="#B08D57" stroke-width="1.1" opacity="0.55"/><circle cx="119.0" cy="868" r="2.1" fill="#B08D57" opacity="0.6"/><path d="M 136 888 L 153.0 872 L 170 888 Z" fill="none" stroke="#B08D57" stroke-width="1.1" opacity="0.55"/><circle cx="153.0" cy="868" r="2.1" fill="#B08D57" opacity="0.6"/><path d="M 170 888 L 187.0 872 L 204 888 Z" fill="none" stroke="#B08D57" stroke-width="1.1" opacity="0.55"/><circle cx="187.0" cy="868" r="2.1" fill="#B08D57" opacity="0.6"/><path d="M 204 888 L 221.0 872 L 238 888 Z" fill="none" stroke="#B08D57" stroke-width="1.1" opacity="0.55"/><circle cx="221.0" cy="868" r="2.1" fill="#B08D57" opacity="0.6"/><path d="M 238 888 L 255.0 872 L 272 888 Z" fill="none" stroke="#B08D57" stroke-width="1.1" opacity="0.55"/><circle cx="255.0" cy="868" r="2.1" fill="#B08D57" opacity="0.6"/><path d="M 272 888 L 289.0 872 L 306 888 Z" fill="none" stroke="#B08D57" stroke-width="1.1" opacity="0.55"/><circle cx="289.0" cy="868" r="2.1" fill="#B08D57" opacity="0.6"/><path d="M 306 888 L 323.0 872 L 340 888 Z" fill="none" stroke="#B08D57" stroke-width="1.1" opacity="0.55"/><circle cx="323.0" cy="868" r="2.1" fill="#B08D57" opacity="0.6"/><path d="M 340 888 L 357.0 872 L 374 888 Z" fill="none" stroke="#B08D57" stroke-width="1.1" opacity="0.55"/><circle cx="357.0" cy="868" r="2.1" fill="#B08D57" opacity="0.6"/><path d="M 374 888 L 391.0 872 L 408 888 Z" fill="none" stroke="#B08D57" stroke-width="1.1" opacity="0.55"/><circle cx="391.0" cy="868" r="2.1" fill="#B08D57" opacity="0.6"/><path d="M 408 888 L 425.0 872 L 442 888 Z" fill="none" stroke="#B08D57" stroke-width="1.1" opacity="0.55"/><circle cx="425.0" cy="868" r="2.1" fill="#B08D57" opacity="0.6"/><path d="M 442 888 L 459.0 872 L 476 888 Z" fill="none" stroke="#B08D57" stroke-width="1.1" opacity="0.55"/><circle cx="459.0" cy="868" r="2.1" fill="#B08D57" opacity="0.6"/><path d="M 476 888 L 493.0 872 L 510 888 Z" fill="none" stroke="#B08D57" stroke-width="1.1" opacity="0.55"/><circle cx="493.0" cy="868" r="2.1" fill="#B08D57" opacity="0.6"/><path d="M 510 888 L 527.0 872 L 544 888 Z" fill="none" stroke="#B08D57" stroke-width="1.1" opacity="0.55"/><circle cx="527.0" cy="868" r="2.1" fill="#B08D57" opacity="0.6"/><path d="M 544 888 L 561.0 872 L 578 888 Z" fill="none" stroke="#B08D57" stroke-width="1.1" opacity="0.55"/><circle cx="561.0" cy="868" r="2.1" fill="#B08D57" opacity="0.6"/><path d="M 578 888 L 595.0 872 L 612 888 Z" fill="none" stroke="#B08D57" stroke-width="1.1" opacity="0.55"/><circle cx="595.0" cy="868" r="2.1" fill="#B08D57" opacity="0.6"/><path d="M 612 888 L 629.0 872 L 646 888 Z" fill="none" stroke="#B08D57" stroke-width="1.1" opacity="0.55"/><circle cx="629.0" cy="868" r="2.1" fill="#B08D57" opacity="0.6"/><path d="M 646 888 L 663.0 872 L 680 888 Z" fill="none" stroke="#B08D57" stroke-width="1.1" opacity="0.55"/><circle cx="663.0" cy="868" r="2.1" fill="#B08D57" opacity="0.6"/><path d="M 680 888 L 697.0 872 L 714 888 Z" fill="none" stroke="#B08D57" stroke-width="1.1" opacity="0.55"/><circle cx="697.0" cy="868" r="2.1" fill="#B08D57" opacity="0.6"/><path d="M 714 888 L 731.0 872 L 748 888 Z" fill="none" stroke="#B08D57" stroke-width="1.1" opacity="0.55"/><circle cx="731.0" cy="868" r="2.1" fill="#B08D57" opacity="0.6"/><path d="M 748 888 L 765.0 872 L 782 888 Z" fill="none" stroke="#B08D57" stroke-width="1.1" opacity="0.55"/><circle cx="765.0" cy="868" r="2.1" fill="#B08D57" opacity="0.6"/><path d="M 782 888 L 799.0 872 L 816 888 Z" fill="none" stroke="#B08D57" stroke-width="1.1" opacity="0.55"/><circle cx="799.0" cy="868" r="2.1" fill="#B08D57" opacity="0.6"/><path d="M 816 888 L 833.0 872 L 850 888 Z" fill="none" stroke="#B08D57" stroke-width="1.1" opacity="0.55"/><circle cx="833.0" cy="868" r="2.1" fill="#B08D57" opacity="0.6"/><path d="M 850 888 L 867.0 872 L 884 888 Z" fill="none" stroke="#B08D57" stroke-width="1.1" opacity="0.55"/><circle cx="867.0" cy="868" r="2.1" fill="#B08D57" opacity="0.6"/><path d="M 884 888 L 901.0 872 L 918 888 Z" fill="none" stroke="#B08D57" stroke-width="1.1" opacity="0.55"/><circle cx="901.0" cy="868" r="2.1" fill="#B08D57" opacity="0.6"/><path d="M 918 888 L 935.0 872 L 952 888 Z" fill="none" stroke="#B08D57" stroke-width="1.1" opacity="0.55"/><circle cx="935.0" cy="868" r="2.1" fill="#B08D57" opacity="0.6"/><path d="M 952 888 L 969.0 872 L 986 888 Z" fill="none" stroke="#B08D57" stroke-width="1.1" opacity="0.55"/><circle cx="969.0" cy="868" r="2.1" fill="#B08D57" opacity="0.6"/><path d="M 986 888 L 1003.0 872 L 1020 888 Z" fill="none" stroke="#B08D57" stroke-width="1.1" opacity="0.55"/><circle cx="1003.0" cy="868" r="2.1" fill="#B08D57" opacity="0.6"/><path d="M 1020 888 L 1037.0 872 L 1054 888 Z" fill="none" stroke="#B08D57" stroke-width="1.1" opacity="0.55"/><circle cx="1037.0" cy="868" r="2.1" fill="#B08D57" opacity="0.6"/><path d="M 1054 888 L 1071.0 872 L 1088 888 Z" fill="none" stroke="#B08D57" stroke-width="1.1" opacity="0.55"/><circle cx="1071.0" cy="868" r="2.1" fill="#B08D57" opacity="0.6"/><path d="M 1088 888 L 1105.0 872 L 1122 888 Z" fill="none" stroke="#B08D57" stroke-width="1.1" opacity="0.55"/><circle cx="1105.0" cy="868" r="2.1" fill="#B08D57" opacity="0.6"/><path d="M 1122 888 L 1139.0 872 L 1156 888 Z" fill="none" stroke="#B08D57" stroke-width="1.1" opacity="0.55"/><circle cx="1139.0" cy="868" r="2.1" fill="#B08D57" opacity="0.6"/><path d="M 1156 888 L 1173.0 872 L 1190 888 Z" fill="none" stroke="#B08D57" stroke-width="1.1" opacity="0.55"/><circle cx="1173.0" cy="868" r="2.1" fill="#B08D57" opacity="0.6"/><path d="M 1190 888 L 1207.0 872 L 1224 888 Z" fill="none" stroke="#B08D57" stroke-width="1.1" opacity="0.55"/><circle cx="1207.0" cy="868" r="2.1" fill="#B08D57" opacity="0.6"/><path d="M 1224 888 L 1241.0 872 L 1258 888 Z" fill="none" stroke="#B08D57" stroke-width="1.1" opacity="0.55"/><circle cx="1241.0" cy="868" r="2.1" fill="#B08D57" opacity="0.6"/><path d="M 1258 888 L 1275.0 872 L 1292 888 Z" fill="none" stroke="#B08D57" stroke-width="1.1" opacity="0.55"/><circle cx="1275.0" cy="868" r="2.1" fill="#B08D57" opacity="0.6"/><path d="M 1292 888 L 1309.0 872 L 1326 888 Z" fill="none" stroke="#B08D57" stroke-width="1.1" opacity="0.55"/><circle cx="1309.0" cy="868" r="2.1" fill="#B08D57" opacity="0.6"/><path d="M 1326 888 L 1343.0 872 L 1360 888 Z" fill="none" stroke="#B08D57" stroke-width="1.1" opacity="0.55"/><circle cx="1343.0" cy="868" r="2.1" fill="#B08D57" opacity="0.6"/><path d="M 1360 888 L 1377.0 872 L 1394 888 Z" fill="none" stroke="#B08D57" stroke-width="1.1" opacity="0.55"/><circle cx="1377.0" cy="868" r="2.1" fill="#B08D57" opacity="0.6"/><path d="M 1394 888 L 1411.0 872 L 1428 888 Z" fill="none" stroke="#B08D57" stroke-width="1.1" opacity="0.55"/><circle cx="1411.0" cy="868" r="2.1" fill="#B08D57" opacity="0.6"/><path d="M 1428 888 L 1445.0 872 L 1462 888 Z" fill="none" stroke="#B08D57" stroke-width="1.1" opacity="0.55"/><circle cx="1445.0" cy="868" r="2.1" fill="#B08D57" opacity="0.6"/></svg>