<svg xmlns="http://www.w3.org/2000/svg" viewBox="0 0 1400 900" width="1400" height="900" role="img"><defs>
      <linearGradient id="lifeGrad3" x1="0%" y1="0%" x2="100%" y2="100%">
        <stop offset="0%" stop-color="#EDE0CB"/>
        <stop offset="100%" stop-color="#B08D57"/>
      </linearGradient>
    </defs><rect width="1400" height="900" fill="url(#lifeGrad3)"/><g fill="#4A0C17" opacity="0.10"><path d="M 500 171.5 C 586.25 171.5 609.25 246.25 569.0 292.25 C 540.25 323.3 505.75 315.25 502.3 346.3 C 500 372.75 525.3 384.25 546.0 372.75 C 517.25 395.75 465.5 384.25 459.75 349.75 C 454.0 309.5 477.0 280.75 448.25 246.25 C 419.5 206.0 459.75 171.5 500 171.5 Z" transform="rotate(98 500 275)" /></g><g fill="#4A0C17" opacity="0.10"><path d="M 923 359.7 C 988.25 359.7 1005.65 416.25 975.2 451.05 C 953.45 474.54 927.35 468.45 924.74 491.94 C 923 511.95 942.14 520.65 957.8 511.95 C 936.05 529.35 896.9 520.65 892.55 494.55 C 888.2 464.1 905.6 442.35 883.85 416.25 C 862.1 385.8 892.55 359.7 923 359.7 Z" transform="rotate(331 923 438)" /></g><g fill="#4A0C17" opacity="0.10"><path d="M 188 50.39999999999999 C 281.0 50.39999999999999 305.8 131.0 262.4 180.6 C 231.4 214.07999999999998 194.2 205.4 190.48 238.88 C 188 267.4 215.28 279.8 237.6 267.4 C 206.6 292.20000000000005 150.8 279.8 144.6 242.60000000000002 C 138.4 199.2 163.2 168.2 132.2 131.0 C 101.2 87.60000000000001 144.6 50.39999999999999 188 50.39999999999999 Z" transform="rotate(358 188 162)" /></g><g fill="#4A0C17" opacity="0.10"><path d="M 403 82.39999999999999 C 458.5 82.39999999999999 473.3 130.5 447.4 160.1 C 428.9 180.07999999999998 406.7 174.9 404.48 194.88 C 403 211.9 419.28 219.3 432.6 211.9 C 414.1 226.7 380.8 219.3 377.1 197.1 C 373.4 171.2 388.2 152.7 369.7 130.5 C 351.2 104.6 377.1 82.39999999999999 403 82.39999999999999 Z" transform="rotate(285 403 149)" /></g><circle cx="1148.0" cy="252.00000000000003" r="120" fill="none" stroke="#4A0C17" stroke-width="1.4" stroke-dasharray="none" opacity="0.18"/><circle cx="1148.0" cy="252.00000000000003" r="93.60000000000001" fill="none" stroke="#4A0C17" stroke-width="0.7" stroke-dasharray="none" opacity="0.18"/><circle cx="1148.0" cy="252.00000000000003" r="66.0" fill="none" stroke="#4A0C17" stroke-width="1.4" stroke-dasharray="3 5" opacity="0.18"/><circle cx="1282.4" cy="252.00000000000003" r="5.3999999999999995" fill="#4A0C17" opacity="0.18"/><circle cx="1264.3938142686286" cy="319.20000000000005" r="5.3999999999999995" fill="#4A0C17" opacity="0.18"/><circle cx="1215.2" cy="368.3938142686286" r="5.3999999999999995" fill="#4A0C17" opacity="0.18"/><circle cx="1148.0" cy="386.40000000000003" r="5.3999999999999995" fill="#4A0C17" opacity="0.18"/><circle cx="1080.8" cy="368.3938142686286" r="5.3999999999999995" fill="#4A0C17" opacity="0.18"/><circle cx="1031.6061857313714" cy="319.20000000000005" r="5.3999999999999995" fill="#4A0C17" opacity="0.18"/><circle cx="1013.6" cy="252.00000000000006" r="5.3999999999999995" fill="#4A0C17" opacity="0.18"/><circle cx="1031.6061857313714" cy="184.80000000000007" r="5.3999999999999995" fill="#4A0C17" opacity="0.18"/><circle cx="1080.8" cy="135.6061857313715" r="5.3999999999999995" fill="#4A0C17" opacity="0.18"/><circle cx="1148.0" cy="117.60000000000002" r="5.3999999999999995" fill="#4A0C17" opacity="0.18"/><circle cx="1215.2" cy="135.60618573137148" r="5.3999999999999995" fill="#4A0C17" opacity="0.18"/><circle cx="1264.3938142686286" cy="184.79999999999995" r="5.3999999999999995" fill="#4A0C17" opacity="0.18"/><rect x="0" y="888" width="1400" height="5" fill="#B08D57" opacity="0.85"/><path d="M 0 888 L 17.0 872 L 34 888 Z" fill="none" stroke="#B08D57" stroke-width="1.1" opacity="0.55"/><circle cx="17.0" cy="868" r="2.1" fill="#B08D57" opacity="0.6"/><path d="M 34 888 L 51.0 872 L 68 888 Z" fill="none" stroke="#B08D57" stroke-width="1.1" opacity="0.55"/><circle cx="51.0" cy="868" r="2.1" fill="#B08D57" opacity="0.6"/><path d="M 68 888 L 85.0 872 L 102 888 Z" fill="none" stroke="#B08D57" stroke-width="1.1" opacity="0.55"/><circle cx="85.0" cy="868" r="2.1" fill="#B08D57" opacity="0.6"/><path d="M 102 888 L 119.0 872 L 136 888 Z" fill="none" stroke="#B08D57" stroke-width="1.1" opacity="0.55"/><circle cx="119.0" cy="868" r="2.1" fill="#B08D57" opacity="0.6"/><path d="M 136 888 L 153.0 872 L 170 888 Z" fill="none" stroke="#B08D57" stroke-width="1.1" opacity="0.55"/><circle cx="153.0" cy="868" r="2.1" fill="#B08D57" opacity="0.6"/><path d="M 170 888 L 187.0 872 L 204 888 Z" fill="none" stroke="#B08D57" stroke-width="1.1" opacity="0.55"/><circle cx="187.0" cy="868" r="2.1" fill="#B08D57" opacity="0.6"/><path d="M 204 888 L 221.0 872 L 238 888 Z" fill="none" stroke="#B08D57" stroke-width="1.1" opacity="0.55"/><circle cx="221.0" cy="868" r="2.1" fill="#B08D57" opacity="0.6"/><path d="M 238 888 L 255.0 872 L 272 888 Z" fill="none" stroke="#B08D57" stroke-width="1.1" opacity="0.55"/><circle cx="255.0" cy="868" r="2.1" fill="#B08D57" opacity="0.6"/><path d="M 272 888 L 289.0 872 L 306 888 Z" fill="none" stroke="#B08D57" stroke-width="1.1" opacity="0.55"/><circle cx="289.0" cy="868" r="2.1" fill="#B08D57" opacity="0.6"/><path d="M 306 888 L 323.0 872 L 340 888 Z" fill="none" stroke="#B08D57" stroke-width="1.1" opacity="0.55"/><circle cx="323.0" cy="868" r="2.1" fill="#B08D57" opacity="0.6"/><path d="M 340 888 L 357.0 872 L 374 888 Z" fill="none" stroke="#B08D57" stroke-width="1.1" opacity="0.55"/><circle cx="357.0" cy="868" r="2.1" fill="#B08D57" opacity="0.6"/><path d="M 374 888 L 391.0 872 L 408 888 Z" fill="none" stroke="#B08D57" stroke-width="1.1" opacity="0.55"/><circle cx="391.0" cy="868" r="2.1" fill="#B08D57" opacity="0.6"/><path d="M 408 888 L 425.0 872 L 442 888 Z" fill="none" stroke="#B08D57" stroke-width="1.1" opacity="0.55"/><circle cx="425.0" cy="868" r="2.1" fill="#B08D57" opacity="0.6"/><path d="M 442 888 L 459.0 872 L 476 888 Z" fill="none" stroke="#B08D57" stroke-width="1.1" opacity="0.55"/><circle cx="459.0" cy="868" r="2.1" fill="#B08D57" opacity="0.6"/><path d="M 476 888 L 493.0 872 L 510 888 Z" fill="none" stroke="#B08D57" stroke-width="1.1" opacity="0.55"/><circle cx="493.0" cy="868" r="2.1" fill="#B08D57" opacity="0.6"/><path d="M 510 888 L 527.0 872 L 544 888 Z" fill="none" stroke="#B08D57" stroke-width="1.1" opacity="0.55"/><circle cx="527.0" cy="868" r="2.1" fill="#B08D57" opacity="0.6"/><path d="M 544 888 L 561.0 872 L 578 888 Z" fill="none" stroke="#B08D57" stroke-width="1.1" opacity="0.55"/><circle cx="561.0" cy="868" r="2.1" fill="#B08D57" opacity="0.6"/><path d="M 578 888 L 595.0 872 L 612 888 Z" fill="none" stroke="#B08D57" stroke-width="1.1" opacity="0.55"/><circle cx="595.0" cy="868" r="2.1" fill="#B08D57" opacity="0.6"/><path d="M 612 888 L 629.0 872 L 646 888 Z" fill="none" stroke="#B08D57" stroke-width="1.1" opacity="0.55"/><circle cx="629.0" cy="868" r="2.1" fill="#B08D57" opacity="0.6"/><path d="M 646 888 L 663.0 872 L 680 888 Z" fill="none" stroke="#B08D57" stroke-width="1.1" opacity="0.55"/><circle cx="663.0" cy="868" r="2.1" fill="#B08D57" opacity="0.6"/><path d="M 680 888 L 697.0 872 L 714 888 Z" fill="none" stroke="#B08D57" stroke-width="1.1" opacity="0.55"/><circle cx="697.0" cy="868" r="2.1" fill="#B08D57" opacity="0.6"/><path d="M 714 888 L 731.0 872 L 748 888 Z" fill="none" stroke="#B08D57" stroke-width="1.1" opacity="0.55"/><circle cx="731.0" cy="868" r="2.1" fill="#B08D57" opacity="0.6"/><path d="M 748 888 L 765.0 872 L 782 888 Z" fill="none" stroke="#B08D57" stroke-width="1.1" opacity="0.55"/><circle cx="765.0" cy="868" r="2.1" fill="#B08D57" opacity="0.6"/><path d="M 782 888 L 799.0 872 L 816 888 Z" fill="none" stroke="#B08D57" stroke-width="1.1" opacity="0.55"/><circle cx="799.0" cy="868" r="2.1" fill="#B08D57" opacity="0.6"/><path d="M 816 888 L 833.0 872 L 850 888 Z" fill="none" stroke="#B08D57" stroke-width="1.1" opacity="0.55"/><circle cx="833.0" cy="868" r="2.1" fill="#B08D57" opacity="0.6"/><path d="M 850 888 L 867.0 872 L 884 888 Z" fill="none" stroke="#B08D57" stroke-width="1.1" opacity="0.55"/><circle cx="867.0" cy="868" r="2.1" fill="#B08D57" opacity="0.6"/><path d="M 884 888 L 901.0 872 L 918 888 Z" fill="none" stroke="#B08D57" stroke-width="1.1" opacity="0.55"/><circle cx="901.0" cy="868" r="2.1" fill="#B08D57" opacity="0.6"/><path d="M 918 888 L 935.0 872 L 952 888 Z" fill="none" stroke="#B08D57" stroke-width="1.1" opacity="0.55"/><circle cx="935.0" cy="868" r="2.1" fill="#B08D57" opacity="0.6"/><path d="M 952 888 L 969.0 872 L 986 888 Z" fill="none" stroke="#B08D57" stroke-width="1.1" opacity="0.55"/><circle cx="969.0" cy="868" r="2.1" fill="#B08D57" opacity="0.6"/><path d="M 986 888 L 1003.0 872 L 1020 888 Z" fill="none" stroke="#B08D57" stroke-width="1.1" opacity="0.55"/><circle cx="1003.0" cy="868" r="2.1" fill="#B08D57" opacity="0.6"/><path d="M 1020 888 L 1037.0 872 L 1054 888 Z" fill="none" stroke="#B08D57" stroke-width="1.1" opacity="0.55"/><circle cx="1037.0" cy="868" r="2.1" fill="#B08D57" opacity="0.6"/><path d="M 1054 888 L 1071.0 872 L 1088 888 Z" fill="none" stroke="#B08D57" stroke-width="1.1" opacity="0.55"/><circle cx="1071.0" cy="868" r="2.1" fill="#B08D57" opacity="0.6"/><path d="M 1088 888 L 1105.0 872 L 1122 888 Z" fill="none" stroke="#B08D57" stroke-width="1.1" opacity="0.55"/><circle cx="1105.0" cy="868" r="2.1" fill="#B08D57" opacity="0.6"/><path d="M 1122 888 L 1139.0 872 L 1156 888 Z" fill="none" stroke="#B08D57" stroke-width="1.1" opacity="0.55"/><circle cx="1139.0" cy="868" r="2.1" fill="#B08D57" opacity="0.6"/><path d="M 1156 888 L 1173.0 872 L 1190 888 Z" fill="none" stroke="#B08D57" stroke-width="1.1" opacity="0.55"/><circle cx="1173.0" cy="868" r="2.1" fill="#B08D57" opacity="0.6"/><path d="M 1190 888 L 1207.0 872 L 1224 888 Z" fill="none" stroke="#B08D57" stroke-width="1.1" opacity="0.55"/><circle cx="1207.0" cy="868" r="2.1" fill="#B08D57" opacity="0.6"/><path d="M 1224 888 L 1241.0 872 L 1258 888 Z" fill="none" stroke="#B08D57" stroke-width="1.1" opacity="0.55"/><circle cx="1241.0" cy="868" r="2.1" fill="#B08D57" opacity="0.6"/><path d="M 1258 888 L 1275.0 872 L 1292 888 Z" fill="none" stroke="#B08D57" stroke-width="1.1" opacity="0.55"/><circle cx="1275.0" cy="868" r="2.1" fill="#B08D57" opacity="0.6"/><path d="M 1292 888 L 1309.0 872 L 1326 888 Z" fill="none" stroke="#B08D57" stroke-width="1.1" opacity="0.55"/><circle cx="1309.0" cy="868" r="2.1" fill="#B08D57" opacity="0.6"/><path d="M 1326 888 L 1343.0 872 L 1360 888 Z" fill="none" stroke="#B08D57" stroke-width="1.1" opacity="0.55"/><circle cx="1343.0" cy="868" r="2.1" fill="#B08D57" opacity="0.6"/><path d="M 1360 888 L 1377.0 872 L 1394 888 Z" fill="none" stroke="#B08D57" stroke-width="1.1" opacity="0.55"/><circle cx="1377.0" cy="868" r="2.1" fill="#B08D57" opacity="0.6"/><path d="M 1394 888 L 1411.0 872 L 1428 888 Z" fill="none" stroke="#B08D57" stroke-width="1.1" opacity="0.55"/><circle cx="1411.0" cy="868" r="2.1" fill="#B08D57" opacity="0.6"/><path d="M 1428 888 L 1445.0 872 L 1462 888 Z" fill="none" stroke="#B08D57" stroke-width="1.1" opacity="0.55"/><circle cx="1445.0" cy="868" r="2.1" fill="#B08D57" opacity="0.6"/></svg>