<svg xmlns="http://www.w3.org/2000/svg" viewBox="0 0 800 1050" width="800" height="1050" role="img"><defs>
      <linearGradient id="wGrad9" x1="0%" y1="0%" x2="100%" y2="100%">
        <stop offset="0%" stop-color="#3D0A14"/>
        <stop offset="100%" stop-color="#6B1220"/>
      </linearGradient>
      <pattern id="weave9" width="18" height="18" patternUnits="userSpaceOnUse" patternTransform="rotate(45)">
        <rect width="18" height="18" fill="none"/>
        <line x1="0" y1="0" x2="0" y2="18" stroke="#D9BD8C" stroke-width="1" opacity="0.10"/>
        <line x1="0" y1="0" x2="18" y2="0" stroke="#D9BD8C" stroke-width="1" opacity="0.10"/>
      </pattern>
    </defs><rect width="800" height="1050" fill="url(#wGrad9)"/><rect width="800" height="1050" fill="url(#weave9)"/><circle cx="504.2929637828184" cy="544.8985064122497" r="224.00000000000003" fill="none" stroke="#FBF7EF" stroke-width="1.4" stroke-dasharray="none" opacity="0.28"/><circle cx="504.2929637828184" cy="544.8985064122497" r="174.72000000000003" fill="none" stroke="#FBF7EF" stroke-width="0.7" stroke-dasharray="none" opacity="0.28"/><circle cx="504.2929637828184" cy="544.8985064122497" r="123.20000000000003" fill="none" stroke="#FBF7EF" stroke-width="1.4" stroke-dasharray="3 5" opacity="0.28"/><circle cx="755.1729637828184" cy="544.8985064122497" r="10.08" fill="#FBF7EF" opacity="0.28"/><circle cx="721.5614170842584" cy="670.3385064122498" r="10.08" fill="#FBF7EF" opacity="0.28"/><circle cx="629.7329637828184" cy="762.1669597136897" r="10.08" fill="#FBF7EF" opacity="0.28"/><circle cx="504.2929637828184" cy="795.7785064122497" r="10.08" fill="#FBF7EF" opacity="0.28"/><circle cx="378.8529637828184" cy="762.1669597136897" r="10.08" fill="#FBF7EF" opacity="0.28"/><circle cx="287.02451048137834" cy="670.3385064122498" r="10.08" fill="#FBF7EF" opacity="0.28"/><circle cx="253.41296378281834" cy="544.8985064122497" r="10.08" fill="#FBF7EF" opacity="0.28"/><circle cx="287.02451048137834" cy="419.4585064122498" r="10.08" fill="#FBF7EF" opacity="0.28"/><circle cx="378.8529637828183" cy="327.6300531108098" r="10.08" fill="#FBF7EF" opacity="0.28"/><circle cx="504.29296378281833" cy="294.0185064122497" r="10.08" fill="#FBF7EF" opacity="0.28"/><circle cx="629.7329637828184" cy="327.63005311080974" r="10.08" fill="#FBF7EF" opacity="0.28"/><circle cx="721.5614170842583" cy="419.45850641224956" r="10.08" fill="#FBF7EF" opacity="0.28"/><g fill="#D9BD8C" opacity="0.18"><path d="M 504.2929637828184 386.49850641224975 C 636.2929637828183 386.49850641224975 671.4929637828184 500.89850641224973 609.8929637828184 571.2985064122497 C 565.8929637828184 618.8185064122497 513.0929637828184 606.4985064122498 507.8129637828184 654.0185064122497 C 504.2929637828184 694.4985064122498 543.0129637828184 712.0985064122497 574.6929637828184 694.4985064122498 C 530.6929637828184 729.6985064122498 451.4929637828184 712.0985064122497 442.6929637828184 659.2985064122497 C 433.89296378281836 597.6985064122497 469.0929637828184 553.6985064122497 425.0929637828184 500.89850641224973 C 381.0929637828184 439.2985064122497 442.6929637828184 386.49850641224975 504.2929637828184 386.49850641224975 Z" transform="rotate(76 504.2929637828184 544.8985064122497)" /></g></svg>