<svg xmlns="http://www.w3.org/2000/svg" viewBox="0 0 1000 900" width="1000" height="900" role="img"><defs>
      <linearGradient id="wGrad6" x1="0%" y1="0%" x2="100%" y2="100%">
        <stop offset="0%" stop-color="#1E4638"/>
        <stop offset="100%" stop-color="#142F26"/>
      </linearGradient>
      <pattern id="weave6" width="18" height="18" patternUnits="userSpaceOnUse" patternTransform="rotate(45)">
        <rect width="18" height="18" fill="none"/>
        <line x1="0" y1="0" x2="0" y2="18" stroke="#D9BD8C" stroke-width="1" opacity="0.10"/>
        <line x1="0" y1="0" x2="18" y2="0" stroke="#D9BD8C" stroke-width="1" opacity="0.10"/>
      </pattern>
    </defs><rect width="1000" height="900" fill="url(#wGrad6)"/><rect width="1000" height="900" fill="url(#weave6)"/><circle cx="468.4066144480415" cy="420.0980842275075" r="252.00000000000003" fill="none" stroke="#FBF7EF" stroke-width="1.4" stroke-dasharray="none" opacity="0.28"/><circle cx="468.4066144480415" cy="420.0980842275075" r="196.56000000000003" fill="none" stroke="#FBF7EF" stroke-width="0.7" stroke-dasharray="none" opacity="0.28"/><circle cx="468.4066144480415" cy="420.0980842275075" r="138.60000000000002" fill="none" stroke="#FBF7EF" stroke-width="1.4" stroke-dasharray="3 5" opacity="0.28"/><circle cx="750.6466144480416" cy="420.0980842275075" r="11.340000000000002" fill="#FBF7EF" opacity="0.28"/><circle cx="712.8336244121615" cy="561.2180842275075" r="11.340000000000002" fill="#FBF7EF" opacity="0.28"/><circle cx="609.5266144480415" cy="664.5250941916275" r="11.340000000000002" fill="#FBF7EF" opacity="0.28"/><circle cx="468.4066144480415" cy="702.3380842275076" r="11.340000000000002" fill="#FBF7EF" opacity="0.28"/><circle cx="327.2866144480415" cy="664.5250941916275" r="11.340000000000002" fill="#FBF7EF" opacity="0.28"/><circle cx="223.9796044839215" cy="561.2180842275075" r="11.340000000000002" fill="#FBF7EF" opacity="0.28"/><circle cx="186.16661444804146" cy="420.09808422750757" r="11.340000000000002" fill="#FBF7EF" opacity="0.28"/><circle cx="223.97960448392146" cy="278.97808422750757" r="11.340000000000002" fill="#FBF7EF" opacity="0.28"/><circle cx="327.2866144480414" cy="175.67107426338757" r="11.340000000000002" fill="#FBF7EF" opacity="0.28"/><circle cx="468.40661444804147" cy="137.85808422750745" r="11.340000000000002" fill="#FBF7EF" opacity="0.28"/><circle cx="609.5266144480415" cy="175.6710742633875" r="11.340000000000002" fill="#FBF7EF" opacity="0.28"/><circle cx="712.8336244121615" cy="278.97808422750734" r="11.340000000000002" fill="#FBF7EF" opacity="0.28"/><g fill="#D9BD8C" opacity="0.18"><path d="M 468.4066144480415 241.8980842275075 C 616.9066144480415 241.8980842275075 656.5066144480415 370.5980842275075 587.2066144480415 449.7980842275075 C 537.7066144480415 503.25808422750754 478.3066144480415 489.3980842275075 472.3666144480415 542.8580842275076 C 468.4066144480415 588.3980842275075 511.9666144480415 608.1980842275075 547.6066144480416 588.3980842275075 C 498.1066144480415 627.9980842275075 409.00661444804155 608.1980842275075 399.1066144480415 548.7980842275075 C 389.20661444804153 479.4980842275075 428.8066144480415 429.9980842275075 379.3066144480415 370.5980842275075 C 329.8066144480415 301.2980842275075 399.1066144480415 241.8980842275075 468.4066144480415 241.8980842275075 Z" transform="rotate(202 468.4066144480415 420.0980842275075)" /></g></svg>