<svg xmlns="http://www.w3.org/2000/svg" viewBox="0 0 900 1000" width="900" height="1000" role="img"><defs>
      <linearGradient id="wGrad5" x1="0%" y1="0%" x2="100%" y2="100%">
        <stop offset="0%" stop-color="#6B1220"/>
        <stop offset="100%" stop-color="#3D0A14"/>
      </linearGradient>
      <pattern id="weave5" width="18" height="18" patternUnits="userSpaceOnUse" patternTransform="rotate(45)">
        <rect width="18" height="18" fill="none"/>
        <line x1="0" y1="0" x2="0" y2="18" stroke="#D9BD8C" stroke-width="1" opacity="0.10"/>
        <line x1="0" y1="0" x2="18" y2="0" stroke="#D9BD8C" stroke-width="1" opacity="0.10"/>
      </pattern>
    </defs><rect width="900" height="1000" fill="url(#wGrad5)"/><rect width="900" height="1000" fill="url(#weave5)"/><circle cx="285.6707905713272" cy="686.9503519283608" r="252.00000000000003" fill="none" stroke="#FBF7EF" stroke-width="1.4" stroke-dasharray="none" opacity="0.28"/><circle cx="285.6707905713272" cy="686.9503519283608" r="196.56000000000003" fill="none" stroke="#FBF7EF" stroke-width="0.7" stroke-dasharray="none" opacity="0.28"/><circle cx="285.6707905713272" cy="686.9503519283608" r="138.60000000000002" fill="none" stroke="#FBF7EF" stroke-width="1.4" stroke-dasharray="3 5" opacity="0.28"/><circle cx="567.9107905713272" cy="686.9503519283608" r="11.340000000000002" fill="#FBF7EF" opacity="0.28"/><circle cx="530.0978005354473" cy="828.0703519283608" r="11.340000000000002" fill="#FBF7EF" opacity="0.28"/><circle cx="426.79079057132725" cy="931.3773618924807" r="11.340000000000002" fill="#FBF7EF" opacity="0.28"/><circle cx="285.6707905713272" cy="969.1903519283608" r="11.340000000000002" fill="#FBF7EF" opacity="0.28"/><circle cx="144.5507905713272" cy="931.3773618924808" r="11.340000000000002" fill="#FBF7EF" opacity="0.28"/><circle cx="41.24378060720716" cy="828.0703519283608" r="11.340000000000002" fill="#FBF7EF" opacity="0.28"/><circle cx="3.4307905713271225" cy="686.9503519283608" r="11.340000000000002" fill="#FBF7EF" opacity="0.28"/><circle cx="41.24378060720713" cy="545.8303519283609" r="11.340000000000002" fill="#FBF7EF" opacity="0.28"/><circle cx="144.55079057132704" cy="442.5233419642408" r="11.340000000000002" fill="#FBF7EF" opacity="0.28"/><circle cx="285.67079057132713" cy="404.7103519283607" r="11.340000000000002" fill="#FBF7EF" opacity="0.28"/><circle cx="426.79079057132725" cy="442.5233419642408" r="11.340000000000002" fill="#FBF7EF" opacity="0.28"/><circle cx="530.0978005354472" cy="545.8303519283606" r="11.340000000000002" fill="#FBF7EF" opacity="0.28"/><g fill="#D9BD8C" opacity="0.18"><path d="M 285.6707905713272 508.7503519283607 C 434.1707905713272 508.7503519283607 473.7707905713272 637.4503519283608 404.4707905713272 716.6503519283608 C 354.9707905713272 770.1103519283607 295.57079057132717 756.2503519283607 289.63079057132717 809.7103519283608 C 285.6707905713272 855.2503519283607 329.2307905713272 875.0503519283608 364.8707905713272 855.2503519283607 C 315.3707905713272 894.8503519283607 226.27079057132718 875.0503519283608 216.37079057132718 815.6503519283608 C 206.4707905713272 746.3503519283607 246.0707905713272 696.8503519283607 196.57079057132717 637.4503519283608 C 147.0707905713272 568.1503519283608 216.37079057132718 508.7503519283607 285.6707905713272 508.7503519283607 Z" transform="rotate(235 285.6707905713272 686.9503519283608)" /></g></svg>