<svg xmlns="http://www.w3.org/2000/svg" viewBox="0 0 1000 800" width="1000" height="800" role="img"><defs>
      <linearGradient id="wGrad1" x1="0%" y1="0%" x2="100%" y2="100%">
        <stop offset="0%" stop-color="#1E4638"/>
        <stop offset="100%" stop-color="#142F26"/>
      </linearGradient>
      <pattern id="weave1" width="18" height="18" patternUnits="userSpaceOnUse" patternTransform="rotate(45)">
        <rect width="18" height="18" fill="none"/>
        <line x1="0" y1="0" x2="0" y2="18" stroke="#D9BD8C" stroke-width="1" opacity="0.10"/>
        <line x1="0" y1="0" x2="18" y2="0" stroke="#D9BD8C" stroke-width="1" opacity="0.10"/>
      </pattern>
    </defs><rect width="1000" height="800" fill="url(#wGrad1)"/><rect width="1000" height="800" fill="url(#weave1)"/><circle cx="499.0745636860391" cy="376.8594236909429" r="224.00000000000003" fill="none" stroke="#FBF7EF" stroke-width="1.4" stroke-dasharray="none" opacity="0.28"/><circle cx="499.0745636860391" cy="376.8594236909429" r="174.72000000000003" fill="none" stroke="#FBF7EF" stroke-width="0.7" stroke-dasharray="none" opacity="0.28"/><circle cx="499.0745636860391" cy="376.8594236909429" r="123.20000000000003" fill="none" stroke="#FBF7EF" stroke-width="1.4" stroke-dasharray="3 5" opacity="0.28"/><circle cx="749.9545636860391" cy="376.8594236909429" r="10.08" fill="#FBF7EF" opacity="0.28"/><circle cx="716.3430169874791" cy="502.2994236909429" r="10.08" fill="#FBF7EF" opacity="0.28"/><circle cx="624.5145636860391" cy="594.1278769923829" r="10.08" fill="#FBF7EF" opacity="0.28"/><circle cx="499.0745636860391" cy="627.7394236909429" r="10.08" fill="#FBF7EF" opacity="0.28"/><circle cx="373.6345636860391" cy="594.1278769923829" r="10.08" fill="#FBF7EF" opacity="0.28"/><circle cx="281.80611038459904" cy="502.2994236909429" r="10.08" fill="#FBF7EF" opacity="0.28"/><circle cx="248.19456368603903" cy="376.85942369094295" r="10.08" fill="#FBF7EF" opacity="0.28"/><circle cx="281.80611038459904" cy="251.41942369094295" r="10.08" fill="#FBF7EF" opacity="0.28"/><circle cx="373.634563686039" cy="159.59097038950296" r="10.08" fill="#FBF7EF" opacity="0.28"/><circle cx="499.074563686039" cy="125.97942369094284" r="10.08" fill="#FBF7EF" opacity="0.28"/><circle cx="624.5145636860391" cy="159.5909703895029" r="10.08" fill="#FBF7EF" opacity="0.28"/><circle cx="716.343016987479" cy="251.41942369094275" r="10.08" fill="#FBF7EF" opacity="0.28"/><g fill="#D9BD8C" opacity="0.18"><path d="M 499.0745636860391 218.45942369094288 C 631.074563686039 218.45942369094288 666.2745636860391 332.8594236909429 604.674563686039 403.25942369094287 C 560.674563686039 450.7794236909429 507.8745636860391 438.4594236909429 502.59456368603907 485.9794236909429 C 499.0745636860391 526.4594236909429 537.794563686039 544.0594236909428 569.4745636860391 526.4594236909429 C 525.4745636860391 561.659423690943 446.2745636860391 544.0594236909428 437.4745636860391 491.25942369094287 C 428.67456368603905 429.6594236909429 463.8745636860391 385.6594236909429 419.8745636860391 332.8594236909429 C 375.8745636860391 271.25942369094287 437.4745636860391 218.45942369094288 499.0745636860391 218.45942369094288 Z" transform="rotate(143 499.0745636860391 376.8594236909429)" /></g></svg>