<svg xmlns="http://www.w3.org/2000/svg" viewBox="0 0 1050 800" width="1050" height="800" role="img"><defs>
      <linearGradient id="wGrad10" x1="0%" y1="0%" x2="100%" y2="100%">
        <stop offset="0%" stop-color="#6B1220"/>
        <stop offset="100%" stop-color="#3D0A14"/>
      </linearGradient>
      <pattern id="weave10" width="18" height="18" patternUnits="userSpaceOnUse" patternTransform="rotate(45)">
        <rect width="18" height="18" fill="none"/>
        <line x1="0" y1="0" x2="0" y2="18" stroke="#D9BD8C" stroke-width="1" opacity="0.10"/>
        <line x1="0" y1="0" x2="18" y2="0" stroke="#D9BD8C" stroke-width="1" opacity="0.10"/>
      </pattern>
    </defs><rect width="1050" height="800" fill="url(#wGrad10)"/><rect width="1050" height="800" fill="url(#weave10)"/><circle cx="376.77530935347534" cy="545.9324486508957" r="224.00000000000003" fill="none" stroke="#FBF7EF" stroke-width="1.4" stroke-dasharray="none" opacity="0.28"/><circle cx="376.77530935347534" cy="545.9324486508957" r="174.72000000000003" fill="none" stroke="#FBF7EF" stroke-width="0.7" stroke-dasharray="none" opacity="0.28"/><circle cx="376.77530935347534" cy="545.9324486508957" r="123.20000000000003" fill="none" stroke="#FBF7EF" stroke-width="1.4" stroke-dasharray="3 5" opacity="0.28"/><circle cx="627.6553093534753" cy="545.9324486508957" r="10.08" fill="#FBF7EF" opacity="0.28"/><circle cx="594.0437626549153" cy="671.3724486508958" r="10.08" fill="#FBF7EF" opacity="0.28"/><circle cx="502.2153093534754" cy="763.2009019523357" r="10.08" fill="#FBF7EF" opacity="0.28"/><circle cx="376.77530935347534" cy="796.8124486508957" r="10.08" fill="#FBF7EF" opacity="0.28"/><circle cx="251.33530935347537" cy="763.2009019523357" r="10.08" fill="#FBF7EF" opacity="0.28"/><circle cx="159.50685605203532" cy="671.3724486508958" r="10.08" fill="#FBF7EF" opacity="0.28"/><circle cx="125.89530935347528" cy="545.9324486508957" r="10.08" fill="#FBF7EF" opacity="0.28"/><circle cx="159.5068560520353" cy="420.49244865089577" r="10.08" fill="#FBF7EF" opacity="0.28"/><circle cx="251.3353093534752" cy="328.6639953494558" r="10.08" fill="#FBF7EF" opacity="0.28"/><circle cx="376.7753093534753" cy="295.05244865089566" r="10.08" fill="#FBF7EF" opacity="0.28"/><circle cx="502.2153093534754" cy="328.6639953494557" r="10.08" fill="#FBF7EF" opacity="0.28"/><circle cx="594.0437626549153" cy="420.49244865089554" r="10.08" fill="#FBF7EF" opacity="0.28"/><g fill="#D9BD8C" opacity="0.18"><path d="M 376.77530935347534 387.53244865089573 C 508.77530935347534 387.53244865089573 543.9753093534753 501.9324486508957 482.37530935347536 572.3324486508957 C 438.37530935347536 619.8524486508957 385.57530935347535 607.5324486508957 380.2953093534753 655.0524486508957 C 376.77530935347534 695.5324486508957 415.49530935347536 713.1324486508956 447.1753093534753 695.5324486508957 C 403.1753093534753 730.7324486508958 323.9753093534753 713.1324486508956 315.1753093534753 660.3324486508957 C 306.37530935347536 598.7324486508957 341.57530935347535 554.7324486508957 297.57530935347535 501.9324486508957 C 253.57530935347535 440.3324486508957 315.1753093534753 387.53244865089573 376.77530935347534 387.53244865089573 Z" transform="rotate(9 376.77530935347534 545.9324486508957)" /></g></svg>