<svg xmlns="http://www.w3.org/2000/svg" viewBox="0 0 800 1100" width="800" height="1100" role="img"><defs>
      <linearGradient id="wGrad3" x1="0%" y1="0%" x2="100%" y2="100%">
        <stop offset="0%" stop-color="#EDE0CB"/>
        <stop offset="100%" stop-color="#B08D57"/>
      </linearGradient>
      <pattern id="weave3" width="18" height="18" patternUnits="userSpaceOnUse" patternTransform="rotate(45)">
        <rect width="18" height="18" fill="none"/>
        <line x1="0" y1="0" x2="0" y2="18" stroke="#D9BD8C" stroke-width="1" opacity="0.10"/>
        <line x1="0" y1="0" x2="18" y2="0" stroke="#D9BD8C" stroke-width="1" opacity="0.10"/>
      </pattern>
    </defs><rect width="800" height="1100" fill="url(#wGrad3)"/><rect width="800" height="1100" fill="url(#weave3)"/><circle cx="319.8854771234986" cy="480.4619632336912" r="224.00000000000003" fill="none" stroke="#FBF7EF" stroke-width="1.4" stroke-dasharray="none" opacity="0.28"/><circle cx="319.8854771234986" cy="480.4619632336912" r="174.72000000000003" fill="none" stroke="#FBF7EF" stroke-width="0.7" stroke-dasharray="none" opacity="0.28"/><circle cx="319.8854771234986" cy="480.4619632336912" r="123.20000000000003" fill="none" stroke="#FBF7EF" stroke-width="1.4" stroke-dasharray="3 5" opacity="0.28"/><circle cx="570.7654771234986" cy="480.4619632336912" r="10.08" fill="#FBF7EF" opacity="0.28"/><circle cx="537.1539304249386" cy="605.9019632336913" r="10.08" fill="#FBF7EF" opacity="0.28"/><circle cx="445.3254771234987" cy="697.7304165351312" r="10.08" fill="#FBF7EF" opacity="0.28"/><circle cx="319.8854771234986" cy="731.3419632336913" r="10.08" fill="#FBF7EF" opacity="0.28"/><circle cx="194.44547712349865" cy="697.7304165351312" r="10.08" fill="#FBF7EF" opacity="0.28"/><circle cx="102.6170238220586" cy="605.9019632336913" r="10.08" fill="#FBF7EF" opacity="0.28"/><circle cx="69.00547712349857" cy="480.4619632336913" r="10.08" fill="#FBF7EF" opacity="0.28"/><circle cx="102.61702382205857" cy="355.0219632336913" r="10.08" fill="#FBF7EF" opacity="0.28"/><circle cx="194.44547712349848" cy="263.1935099322513" r="10.08" fill="#FBF7EF" opacity="0.28"/><circle cx="319.88547712349856" cy="229.58196323369117" r="10.08" fill="#FBF7EF" opacity="0.28"/><circle cx="445.3254771234987" cy="263.19350993225123" r="10.08" fill="#FBF7EF" opacity="0.28"/><circle cx="537.1539304249386" cy="355.02196323369105" r="10.08" fill="#FBF7EF" opacity="0.28"/><g fill="#D9BD8C" opacity="0.18"><path d="M 319.8854771234986 322.06196323369124 C 451.8854771234986 322.06196323369124 487.0854771234986 436.4619632336912 425.48547712349864 506.8619632336912 C 381.48547712349864 554.3819632336912 328.68547712349863 542.0619632336912 323.4054771234986 589.5819632336912 C 319.8854771234986 630.0619632336912 358.60547712349864 647.6619632336913 390.2854771234986 630.0619632336912 C 346.2854771234986 665.2619632336912 267.0854771234986 647.6619632336913 258.2854771234986 594.8619632336912 C 249.4854771234986 533.2619632336912 284.68547712349863 489.26196323369123 240.68547712349863 436.4619632336912 C 196.68547712349863 374.8619632336912 258.2854771234986 322.06196323369124 319.8854771234986 322.06196323369124 Z" transform="rotate(82 319.8854771234986 480.4619632336912)" /></g></svg>