<svg xmlns="http://www.w3.org/2000/svg" viewBox="0 0 900 900" width="900" height="900" role="img"><defs>
      <linearGradient id="wGrad2" x1="0%" y1="0%" x2="100%" y2="100%">
        <stop offset="0%" stop-color="#B08D57"/>
        <stop offset="100%" stop-color="#4A0C17"/>
      </linearGradient>
      <pattern id="weave2" width="18" height="18" patternUnits="userSpaceOnUse" patternTransform="rotate(45)">
        <rect width="18" height="18" fill="none"/>
        <line x1="0" y1="0" x2="0" y2="18" stroke="#D9BD8C" stroke-width="1" opacity="0.10"/>
        <line x1="0" y1="0" x2="18" y2="0" stroke="#D9BD8C" stroke-width="1" opacity="0.10"/>
      </pattern>
    </defs><rect width="900" height="900" fill="url(#wGrad2)"/><rect width="900" height="900" fill="url(#weave2)"/><circle cx="565.8864725848822" cy="305.03371245997835" r="252.00000000000003" fill="none" stroke="#FBF7EF" stroke-width="1.4" stroke-dasharray="none" opacity="0.28"/><circle cx="565.8864725848822" cy="305.03371245997835" r="196.56000000000003" fill="none" stroke="#FBF7EF" stroke-width="0.7" stroke-dasharray="none" opacity="0.28"/><circle cx="565.8864725848822" cy="305.03371245997835" r="138.60000000000002" fill="none" stroke="#FBF7EF" stroke-width="1.4" stroke-dasharray="3 5" opacity="0.28"/><circle cx="848.1264725848823" cy="305.03371245997835" r="11.340000000000002" fill="#FBF7EF" opacity="0.28"/><circle cx="810.3134825490022" cy="446.15371245997835" r="11.340000000000002" fill="#FBF7EF" opacity="0.28"/><circle cx="707.0064725848822" cy="549.4607224240983" r="11.340000000000002" fill="#FBF7EF" opacity="0.28"/><circle cx="565.8864725848822" cy="587.2737124599785" r="11.340000000000002" fill="#FBF7EF" opacity="0.28"/><circle cx="424.7664725848822" cy="549.4607224240983" r="11.340000000000002" fill="#FBF7EF" opacity="0.28"/><circle cx="321.45946262076217" cy="446.15371245997835" r="11.340000000000002" fill="#FBF7EF" opacity="0.28"/><circle cx="283.64647258488213" cy="305.0337124599784" r="11.340000000000002" fill="#FBF7EF" opacity="0.28"/><circle cx="321.4594626207621" cy="163.9137124599784" r="11.340000000000002" fill="#FBF7EF" opacity="0.28"/><circle cx="424.7664725848821" cy="60.6067024958584" r="11.340000000000002" fill="#FBF7EF" opacity="0.28"/><circle cx="565.8864725848822" cy="22.79371245997828" r="11.340000000000002" fill="#FBF7EF" opacity="0.28"/><circle cx="707.0064725848822" cy="60.60670249585834" r="11.340000000000002" fill="#FBF7EF" opacity="0.28"/><circle cx="810.3134825490022" cy="163.9137124599782" r="11.340000000000002" fill="#FBF7EF" opacity="0.28"/><g fill="#D9BD8C" opacity="0.18"><path d="M 565.8864725848822 126.83371245997833 C 714.3864725848822 126.83371245997833 753.9864725848822 255.53371245997835 684.6864725848822 334.73371245997834 C 635.1864725848822 388.1937124599783 575.7864725848822 374.33371245997836 569.8464725848822 427.79371245997834 C 565.8864725848822 473.3337124599783 609.4464725848823 493.13371245997837 645.0864725848822 473.3337124599783 C 595.5864725848822 512.9337124599783 506.4864725848822 493.13371245997837 496.5864725848822 433.7337124599784 C 486.6864725848822 364.4337124599783 526.2864725848822 314.9337124599783 476.7864725848822 255.53371245997835 C 427.2864725848822 186.23371245997834 496.5864725848822 126.83371245997833 565.8864725848822 126.83371245997833 Z" transform="rotate(328 565.8864725848822 305.03371245997835)" /></g></svg>