<svg xmlns="http://www.w3.org/2000/svg" viewBox="0 0 900 1200" width="900" height="1200" role="img"><defs>
      <radialGradient id="colGrad9" cx="30%" cy="20%" r="90%">
        <stop offset="0%" stop-color="#3D0A14"/>
        <stop offset="100%" stop-color="#6B1220"/>
      </radialGradient>
    </defs><rect width="900" height="1200" fill="url(#colGrad9)"/><circle cx="450.0" cy="504.0" r="190" fill="none" stroke="#D9BD8C" stroke-width="1.4" stroke-dasharray="none" opacity="0.22"/><circle cx="450.0" cy="504.0" r="148.20000000000002" fill="none" stroke="#D9BD8C" stroke-width="0.7" stroke-dasharray="none" opacity="0.22"/><circle cx="450.0" cy="504.0" r="104.50000000000001" fill="none" stroke="#D9BD8C" stroke-width="1.4" stroke-dasharray="3 5" opacity="0.22"/><circle cx="662.8" cy="504.0" r="8.549999999999999" fill="#D9BD8C" opacity="0.22"/><circle cx="634.2902059253286" cy="610.4" r="8.549999999999999" fill="#D9BD8C" opacity="0.22"/><circle cx="556.4000000000001" cy="688.2902059253286" r="8.549999999999999" fill="#D9BD8C" opacity="0.22"/><circle cx="450.0" cy="716.8" r="8.549999999999999" fill="#D9BD8C" opacity="0.22"/><circle cx="343.6" cy="688.2902059253286" r="8.549999999999999" fill="#D9BD8C" opacity="0.22"/><circle cx="265.70979407467144" cy="610.4" r="8.549999999999999" fill="#D9BD8C" opacity="0.22"/><circle cx="237.2" cy="504.0" r="8.549999999999999" fill="#D9BD8C" opacity="0.22"/><circle cx="265.70979407467144" cy="397.6" r="8.549999999999999" fill="#D9BD8C" opacity="0.22"/><circle cx="343.5999999999999" cy="319.7097940746715" r="8.549999999999999" fill="#D9BD8C" opacity="0.22"/><circle cx="449.99999999999994" cy="291.2" r="8.549999999999999" fill="#D9BD8C" opacity="0.22"/><circle cx="556.4000000000001" cy="319.70979407467144" r="8.549999999999999" fill="#D9BD8C" opacity="0.22"/><circle cx="634.2902059253286" cy="397.5999999999999" r="8.549999999999999" fill="#D9BD8C" opacity="0.22"/><g fill="#D9BD8C" opacity="0.10"><path d="M 184 379.0 C 221.5 379.0 231.5 411.5 214.0 431.5 C 201.5 445.0 186.5 441.5 185.0 455.0 C 184 466.5 195.0 471.5 204.0 466.5 C 191.5 476.5 169.0 471.5 166.5 456.5 C 164.0 439.0 174.0 426.5 161.5 411.5 C 149.0 394.0 166.5 379.0 184 379.0 Z" transform="rotate(68 184 424)" /></g><g fill="#D9BD8C" opacity="0.10"><path d="M 322 923.7 C 402.25 923.7 423.65 993.25 386.2 1036.05 C 359.45 1064.94 327.35 1057.45 324.14 1086.34 C 322 1110.95 345.54 1121.65 364.8 1110.95 C 338.05 1132.35 289.9 1121.65 284.55 1089.55 C 279.2 1052.1 300.6 1025.35 273.85 993.25 C 247.10000000000002 955.8 284.55 923.7 322 923.7 Z" transform="rotate(122 322 1020)" /></g><g fill="#D9BD8C" opacity="0.10"><path d="M 328 269.6 C 400.0 269.6 419.2 332.0 385.6 370.4 C 361.6 396.32 332.8 389.6 329.92 415.52 C 328 437.6 349.12 447.2 366.4 437.6 C 342.4 456.8 299.2 447.2 294.4 418.4 C 289.6 384.8 308.8 360.8 284.8 332.0 C 260.8 298.4 294.4 269.6 328 269.6 Z" transform="rotate(254 328 356)" /></g><g fill="#D9BD8C" opacity="0.10"><path d="M 183 213.3 C 260.25 213.3 280.85 280.25 244.8 321.45 C 219.05 349.26 188.15 342.05 185.06 369.86 C 183 393.55 205.66 403.85 224.2 393.55 C 198.45 414.15 152.1 403.85 146.95 372.95 C 141.8 336.9 162.4 311.15 136.65 280.25 C 110.9 244.2 146.95 213.3 183 213.3 Z" transform="rotate(328 183 306)" /></g><g fill="#D9BD8C" opacity="0.10"><path d="M 390 491.0 C 427.5 491.0 437.5 523.5 420.0 543.5 C 407.5 557.0 392.5 553.5 391.0 567.0 C 390 578.5 401.0 583.5 410.0 578.5 C 397.5 588.5 375.0 583.5 372.5 568.5 C 370.0 551.0 380.0 538.5 367.5 523.5 C 355.0 506.0 372.5 491.0 390 491.0 Z" transform="rotate(278 390 536)" /></g><g fill="#FBF7EF" opacity="0.9"><path d="M 450.0 387.0 C 547.5 387.0 573.5 471.5 528.0 523.5 C 495.5 558.6 456.5 549.5 452.6 584.6 C 450.0 614.5 478.6 627.5 502.0 614.5 C 469.5 640.5 411.0 627.5 404.5 588.5 C 398.0 543.0 424.0 510.5 391.5 471.5 C 359.0 426.0 404.5 387.0 450.0 387.0 Z" transform="rotate(0 450.0 504.0)" /></g><rect x="0" y="1186" width="900" height="6" fill="#D9BD8C" opacity="0.85"/><path d="M 0 1186 L 17.0 1170 L 34 1186 Z" fill="none" stroke="#D9BD8C" stroke-width="1.1" opacity="0.55"/><circle cx="17.0" cy="1166" r="2.1" fill="#D9BD8C" opacity="0.6"/><path d="M 34 1186 L 51.0 1170 L 68 1186 Z" fill="none" stroke="#D9BD8C" stroke-width="1.1" opacity="0.55"/><circle cx="51.0" cy="1166" r="2.1" fill="#D9BD8C" opacity="0.6"/><path d="M 68 1186 L 85.0 1170 L 102 1186 Z" fill="none" stroke="#D9BD8C" stroke-width="1.1" opacity="0.55"/><circle cx="85.0" cy="1166" r="2.1" fill="#D9BD8C" opacity="0.6"/><path d="M 102 1186 L 119.0 1170 L 136 1186 Z" fill="none" stroke="#D9BD8C" stroke-width="1.1" opacity="0.55"/><circle cx="119.0" cy="1166" r="2.1" fill="#D9BD8C" opacity="0.6"/><path d="M 136 1186 L 153.0 1170 L 170 1186 Z" fill="none" stroke="#D9BD8C" stroke-width="1.1" opacity="0.55"/><circle cx="153.0" cy="1166" r="2.1" fill="#D9BD8C" opacity="0.6"/><path d="M 170 1186 L 187.0 1170 L 204 1186 Z" fill="none" stroke="#D9BD8C" stroke-width="1.1" opacity="0.55"/><circle cx="187.0" cy="1166" r="2.1" fill="#D9BD8C" opacity="0.6"/><path d="M 204 1186 L 221.0 1170 L 238 1186 Z" fill="none" stroke="#D9BD8C" stroke-width="1.1" opacity="0.55"/><circle cx="221.0" cy="1166" r="2.1" fill="#D9BD8C" opacity="0.6"/><path d="M 238 1186 L 255.0 1170 L 272 1186 Z" fill="none" stroke="#D9BD8C" stroke-width="1.1" opacity="0.55"/><circle cx="255.0" cy="1166" r="2.1" fill="#D9BD8C" opacity="0.6"/><path d="M 272 1186 L 289.0 1170 L 306 1186 Z" fill="none" stroke="#D9BD8C" stroke-width="1.1" opacity="0.55"/><circle cx="289.0" cy="1166" r="2.1" fill="#D9BD8C" opacity="0.6"/><path d="M 306 1186 L 323.0 1170 L 340 1186 Z" fill="none" stroke="#D9BD8C" stroke-width="1.1" opacity="0.55"/><circle cx="323.0" cy="1166" r="2.1" fill="#D9BD8C" opacity="0.6"/><path d="M 340 1186 L 357.0 1170 L 374 1186 Z" fill="none" stroke="#D9BD8C" stroke-width="1.1" opacity="0.55"/><circle cx="357.0" cy="1166" r="2.1" fill="#D9BD8C" opacity="0.6"/><path d="M 374 1186 L 391.0 1170 L 408 1186 Z" fill="none" stroke="#D9BD8C" stroke-width="1.1" opacity="0.55"/><circle cx="391.0" cy="1166" r="2.1" fill="#D9BD8C" opacity="0.6"/><path d="M 408 1186 L 425.0 1170 L 442 1186 Z" fill="none" stroke="#D9BD8C" stroke-width="1.1" opacity="0.55"/><circle cx="425.0" cy="1166" r="2.1" fill="#D9BD8C" opacity="0.6"/><path d="M 442 1186 L 459.0 1170 L 476 1186 Z" fill="none" stroke="#D9BD8C" stroke-width="1.1" opacity="0.55"/><circle cx="459.0" cy="1166" r="2.1" fill="#D9BD8C" opacity="0.6"/><path d="M 476 1186 L 493.0 1170 L 510 1186 Z" fill="none" stroke="#D9BD8C" stroke-width="1.1" opacity="0.55"/><circle cx="493.0" cy="1166" r="2.1" fill="#D9BD8C" opacity="0.6"/><path d="M 510 1186 L 527.0 1170 L 544 1186 Z" fill="none" stroke="#D9BD8C" stroke-width="1.1" opacity="0.55"/><circle cx="527.0" cy="1166" r="2.1" fill="#D9BD8C" opacity="0.6"/><path d="M 544 1186 L 561.0 1170 L 578 1186 Z" fill="none" stroke="#D9BD8C" stroke-width="1.1" opacity="0.55"/><circle cx="561.0" cy="1166" r="2.1" fill="#D9BD8C" opacity="0.6"/><path d="M 578 1186 L 595.0 1170 L 612 1186 Z" fill="none" stroke="#D9BD8C" stroke-width="1.1" opacity="0.55"/><circle cx="595.0" cy="1166" r="2.1" fill="#D9BD8C" opacity="0.6"/><path d="M 612 1186 L 629.0 1170 L 646 1186 Z" fill="none" stroke="#D9BD8C" stroke-width="1.1" opacity="0.55"/><circle cx="629.0" cy="1166" r="2.1" fill="#D9BD8C" opacity="0.6"/><path d="M 646 1186 L 663.0 1170 L 680 1186 Z" fill="none" stroke="#D9BD8C" stroke-width="1.1" opacity="0.55"/><circle cx="663.0" cy="1166" r="2.1" fill="#D9BD8C" opacity="0.6"/><path d="M 680 1186 L 697.0 1170 L 714 1186 Z" fill="none" stroke="#D9BD8C" stroke-width="1.1" opacity="0.55"/><circle cx="697.0" cy="1166" r="2.1" fill="#D9BD8C" opacity="0.6"/><path d="M 714 1186 L 731.0 1170 L 748 1186 Z" fill="none" stroke="#D9BD8C" stroke-width="1.1" opacity="0.55"/><circle cx="731.0" cy="1166" r="2.1" fill="#D9BD8C" opacity="0.6"/><path d="M 748 1186 L 765.0 1170 L 782 1186 Z" fill="none" stroke="#D9BD8C" stroke-width="1.1" opacity="0.55"/><circle cx="765.0" cy="1166" r="2.1" fill="#D9BD8C" opacity="0.6"/><path d="M 782 1186 L 799.0 1170 L 816 1186 Z" fill="none" stroke="#D9BD8C" stroke-width="1.1" opacity="0.55"/><circle cx="799.0" cy="1166" r="2.1" fill="#D9BD8C" opacity="0.6"/><path d="M 816 1186 L 833.0 1170 L 850 1186 Z" fill="none" stroke="#D9BD8C" stroke-width="1.1" opacity="0.55"/><circle cx="833.0" cy="1166" r="2.1" fill="#D9BD8C" opacity="0.6"/><path d="M 850 1186 L 867.0 1170 L 884 1186 Z" fill="none" stroke="#D9BD8C" stroke-width="1.1" opacity="0.55"/><circle cx="867.0" cy="1166" r="2.1" fill="#D9BD8C" opacity="0.6"/><path d="M 884 1186 L 901.0 1170 L 918 1186 Z" fill="none" stroke="#D9BD8C" stroke-width="1.1" opacity="0.55"/><circle cx="901.0" cy="1166" r="2.1" fill="#D9BD8C" opacity="0.6"/><path d="M 918 1186 L 935.0 1170 L 952 1186 Z" fill="none" stroke="#D9BD8C" stroke-width="1.1" opacity="0.55"/><circle cx="935.0" cy="1166" r="2.1" fill="#D9BD8C" opacity="0.6"/></svg>