<svg xmlns="http://www.w3.org/2000/svg" viewBox="0 0 900 1200" width="900" height="1200" role="img"><defs>
      <radialGradient id="colGrad4" cx="30%" cy="20%" r="90%">
        <stop offset="0%" stop-color="#3D0A14"/>
        <stop offset="100%" stop-color="#6B1220"/>
      </radialGradient>
    </defs><rect width="900" height="1200" fill="url(#colGrad4)"/><circle cx="450.0" cy="504.0" r="190" fill="none" stroke="#D9BD8C" stroke-width="1.4" stroke-dasharray="none" opacity="0.22"/><circle cx="450.0" cy="504.0" r="148.20000000000002" fill="none" stroke="#D9BD8C" stroke-width="0.7" stroke-dasharray="none" opacity="0.22"/><circle cx="450.0" cy="504.0" r="104.50000000000001" fill="none" stroke="#D9BD8C" stroke-width="1.4" stroke-dasharray="3 5" opacity="0.22"/><circle cx="662.8" cy="504.0" r="8.549999999999999" fill="#D9BD8C" opacity="0.22"/><circle cx="634.2902059253286" cy="610.4" r="8.549999999999999" fill="#D9BD8C" opacity="0.22"/><circle cx="556.4000000000001" cy="688.2902059253286" r="8.549999999999999" fill="#D9BD8C" opacity="0.22"/><circle cx="450.0" cy="716.8" r="8.549999999999999" fill="#D9BD8C" opacity="0.22"/><circle cx="343.6" cy="688.2902059253286" r="8.549999999999999" fill="#D9BD8C" opacity="0.22"/><circle cx="265.70979407467144" cy="610.4" r="8.549999999999999" fill="#D9BD8C" opacity="0.22"/><circle cx="237.2" cy="504.0" r="8.549999999999999" fill="#D9BD8C" opacity="0.22"/><circle cx="265.70979407467144" cy="397.6" r="8.549999999999999" fill="#D9BD8C" opacity="0.22"/><circle cx="343.5999999999999" cy="319.7097940746715" r="8.549999999999999" fill="#D9BD8C" opacity="0.22"/><circle cx="449.99999999999994" cy="291.2" r="8.549999999999999" fill="#D9BD8C" opacity="0.22"/><circle cx="556.4000000000001" cy="319.70979407467144" r="8.549999999999999" fill="#D9BD8C" opacity="0.22"/><circle cx="634.2902059253286" cy="397.5999999999999" r="8.549999999999999" fill="#D9BD8C" opacity="0.22"/><g fill="#D9BD8C" opacity="0.10"><path d="M 257 262.7 C 314.75 262.7 330.15 312.75 303.2 343.55 C 283.95 364.34 260.85 358.95 258.54 379.74 C 257 397.45 273.94 405.15 287.8 397.45 C 268.55 412.85 233.9 405.15 230.05 382.05 C 226.2 355.1 241.6 335.85 222.35 312.75 C 203.1 285.8 230.05 262.7 257 262.7 Z" transform="rotate(257 257 332)" /></g><g fill="#D9BD8C" opacity="0.10"><path d="M 582 118.4 C 630.0 118.4 642.8 160.0 620.4 185.6 C 604.4 202.88 585.2 198.4 583.28 215.68 C 582 230.4 596.08 236.8 607.6 230.4 C 591.6 243.2 562.8 236.8 559.6 217.6 C 556.4 195.2 569.2 179.2 553.2 160.0 C 537.2 137.6 559.6 118.4 582 118.4 Z" transform="rotate(342 582 176)" /></g><g fill="#D9BD8C" opacity="0.10"><path d="M 433 291.7 C 498.25 291.7 515.65 348.25 485.2 383.05 C 463.45 406.54 437.35 400.45 434.74 423.94 C 433 443.95 452.14 452.65 467.8 443.95 C 446.05 461.35 406.9 452.65 402.55 426.55 C 398.2 396.1 415.6 374.35 393.85 348.25 C 372.1 317.8 402.55 291.7 433 291.7 Z" transform="rotate(117 433 370)" /></g><g fill="#D9BD8C" opacity="0.10"><path d="M 171 111.8 C 222.0 111.8 235.6 156.0 211.8 183.2 C 194.8 201.56 174.4 196.8 172.36 215.16 C 171 230.8 185.96 237.6 198.2 230.8 C 181.2 244.4 150.6 237.6 147.2 217.2 C 143.8 193.4 157.4 176.4 140.4 156.0 C 123.4 132.2 147.2 111.8 171 111.8 Z" transform="rotate(135 171 173)" /></g><g fill="#D9BD8C" opacity="0.10"><path d="M 208 360.4 C 263.5 360.4 278.3 408.5 252.4 438.1 C 233.9 458.08 211.7 452.9 209.48 472.88 C 208 489.9 224.28 497.3 237.6 489.9 C 219.1 504.7 185.8 497.3 182.1 475.1 C 178.4 449.2 193.2 430.7 174.7 408.5 C 156.2 382.6 182.1 360.4 208 360.4 Z" transform="rotate(71 208 427)" /></g><g fill="#FBF7EF" opacity="0.9"><path d="M 450.0 387.0 C 547.5 387.0 573.5 471.5 528.0 523.5 C 495.5 558.6 456.5 549.5 452.6 584.6 C 450.0 614.5 478.6 627.5 502.0 614.5 C 469.5 640.5 411.0 627.5 404.5 588.5 C 398.0 543.0 424.0 510.5 391.5 471.5 C 359.0 426.0 404.5 387.0 450.0 387.0 Z" transform="rotate(0 450.0 504.0)" /></g><rect x="0" y="1186" width="900" height="6" fill="#D9BD8C" opacity="0.85"/><path d="M 0 1186 L 17.0 1170 L 34 1186 Z" fill="none" stroke="#D9BD8C" stroke-width="1.1" opacity="0.55"/><circle cx="17.0" cy="1166" r="2.1" fill="#D9BD8C" opacity="0.6"/><path d="M 34 1186 L 51.0 1170 L 68 1186 Z" fill="none" stroke="#D9BD8C" stroke-width="1.1" opacity="0.55"/><circle cx="51.0" cy="1166" r="2.1" fill="#D9BD8C" opacity="0.6"/><path d="M 68 1186 L 85.0 1170 L 102 1186 Z" fill="none" stroke="#D9BD8C" stroke-width="1.1" opacity="0.55"/><circle cx="85.0" cy="1166" r="2.1" fill="#D9BD8C" opacity="0.6"/><path d="M 102 1186 L 119.0 1170 L 136 1186 Z" fill="none" stroke="#D9BD8C" stroke-width="1.1" opacity="0.55"/><circle cx="119.0" cy="1166" r="2.1" fill="#D9BD8C" opacity="0.6"/><path d="M 136 1186 L 153.0 1170 L 170 1186 Z" fill="none" stroke="#D9BD8C" stroke-width="1.1" opacity="0.55"/><circle cx="153.0" cy="1166" r="2.1" fill="#D9BD8C" opacity="0.6"/><path d="M 170 1186 L 187.0 1170 L 204 1186 Z" fill="none" stroke="#D9BD8C" stroke-width="1.1" opacity="0.55"/><circle cx="187.0" cy="1166" r="2.1" fill="#D9BD8C" opacity="0.6"/><path d="M 204 1186 L 221.0 1170 L 238 1186 Z" fill="none" stroke="#D9BD8C" stroke-width="1.1" opacity="0.55"/><circle cx="221.0" cy="1166" r="2.1" fill="#D9BD8C" opacity="0.6"/><path d="M 238 1186 L 255.0 1170 L 272 1186 Z" fill="none" stroke="#D9BD8C" stroke-width="1.1" opacity="0.55"/><circle cx="255.0" cy="1166" r="2.1" fill="#D9BD8C" opacity="0.6"/><path d="M 272 1186 L 289.0 1170 L 306 1186 Z" fill="none" stroke="#D9BD8C" stroke-width="1.1" opacity="0.55"/><circle cx="289.0" cy="1166" r="2.1" fill="#D9BD8C" opacity="0.6"/><path d="M 306 1186 L 323.0 1170 L 340 1186 Z" fill="none" stroke="#D9BD8C" stroke-width="1.1" opacity="0.55"/><circle cx="323.0" cy="1166" r="2.1" fill="#D9BD8C" opacity="0.6"/><path d="M 340 1186 L 357.0 1170 L 374 1186 Z" fill="none" stroke="#D9BD8C" stroke-width="1.1" opacity="0.55"/><circle cx="357.0" cy="1166" r="2.1" fill="#D9BD8C" opacity="0.6"/><path d="M 374 1186 L 391.0 1170 L 408 1186 Z" fill="none" stroke="#D9BD8C" stroke-width="1.1" opacity="0.55"/><circle cx="391.0" cy="1166" r="2.1" fill="#D9BD8C" opacity="0.6"/><path d="M 408 1186 L 425.0 1170 L 442 1186 Z" fill="none" stroke="#D9BD8C" stroke-width="1.1" opacity="0.55"/><circle cx="425.0" cy="1166" r="2.1" fill="#D9BD8C" opacity="0.6"/><path d="M 442 1186 L 459.0 1170 L 476 1186 Z" fill="none" stroke="#D9BD8C" stroke-width="1.1" opacity="0.55"/><circle cx="459.0" cy="1166" r="2.1" fill="#D9BD8C" opacity="0.6"/><path d="M 476 1186 L 493.0 1170 L 510 1186 Z" fill="none" stroke="#D9BD8C" stroke-width="1.1" opacity="0.55"/><circle cx="493.0" cy="1166" r="2.1" fill="#D9BD8C" opacity="0.6"/><path d="M 510 1186 L 527.0 1170 L 544 1186 Z" fill="none" stroke="#D9BD8C" stroke-width="1.1" opacity="0.55"/><circle cx="527.0" cy="1166" r="2.1" fill="#D9BD8C" opacity="0.6"/><path d="M 544 1186 L 561.0 1170 L 578 1186 Z" fill="none" stroke="#D9BD8C" stroke-width="1.1" opacity="0.55"/><circle cx="561.0" cy="1166" r="2.1" fill="#D9BD8C" opacity="0.6"/><path d="M 578 1186 L 595.0 1170 L 612 1186 Z" fill="none" stroke="#D9BD8C" stroke-width="1.1" opacity="0.55"/><circle cx="595.0" cy="1166" r="2.1" fill="#D9BD8C" opacity="0.6"/><path d="M 612 1186 L 629.0 1170 L 646 1186 Z" fill="none" stroke="#D9BD8C" stroke-width="1.1" opacity="0.55"/><circle cx="629.0" cy="1166" r="2.1" fill="#D9BD8C" opacity="0.6"/><path d="M 646 1186 L 663.0 1170 L 680 1186 Z" fill="none" stroke="#D9BD8C" stroke-width="1.1" opacity="0.55"/><circle cx="663.0" cy="1166" r="2.1" fill="#D9BD8C" opacity="0.6"/><path d="M 680 1186 L 697.0 1170 L 714 1186 Z" fill="none" stroke="#D9BD8C" stroke-width="1.1" opacity="0.55"/><circle cx="697.0" cy="1166" r="2.1" fill="#D9BD8C" opacity="0.6"/><path d="M 714 1186 L 731.0 1170 L 748 1186 Z" fill="none" stroke="#D9BD8C" stroke-width="1.1" opacity="0.55"/><circle cx="731.0" cy="1166" r="2.1" fill="#D9BD8C" opacity="0.6"/><path d="M 748 1186 L 765.0 1170 L 782 1186 Z" fill="none" stroke="#D9BD8C" stroke-width="1.1" opacity="0.55"/><circle cx="765.0" cy="1166" r="2.1" fill="#D9BD8C" opacity="0.6"/><path d="M 782 1186 L 799.0 1170 L 816 1186 Z" fill="none" stroke="#D9BD8C" stroke-width="1.1" opacity="0.55"/><circle cx="799.0" cy="1166" r="2.1" fill="#D9BD8C" opacity="0.6"/><path d="M 816 1186 L 833.0 1170 L 850 1186 Z" fill="none" stroke="#D9BD8C" stroke-width="1.1" opacity="0.55"/><circle cx="833.0" cy="1166" r="2.1" fill="#D9BD8C" opacity="0.6"/><path d="M 850 1186 L 867.0 1170 L 884 1186 Z" fill="none" stroke="#D9BD8C" stroke-width="1.1" opacity="0.55"/><circle cx="867.0" cy="1166" r="2.1" fill="#D9BD8C" opacity="0.6"/><path d="M 884 1186 L 901.0 1170 L 918 1186 Z" fill="none" stroke="#D9BD8C" stroke-width="1.1" opacity="0.55"/><circle cx="901.0" cy="1166" r="2.1" fill="#D9BD8C" opacity="0.6"/><path d="M 918 1186 L 935.0 1170 L 952 1186 Z" fill="none" stroke="#D9BD8C" stroke-width="1.1" opacity="0.55"/><circle cx="935.0" cy="1166" r="2.1" fill="#D9BD8C" opacity="0.6"/></svg>