<svg xmlns="http://www.w3.org/2000/svg" viewBox="0 0 900 1200" width="900" height="1200" role="img"><defs>
      <radialGradient id="colGrad8" cx="30%" cy="20%" r="90%">
        <stop offset="0%" stop-color="#EDE0CB"/>
        <stop offset="100%" stop-color="#B08D57"/>
      </radialGradient>
    </defs><rect width="900" height="1200" fill="url(#colGrad8)"/><circle cx="450.0" cy="504.0" r="190" fill="none" stroke="#D9BD8C" stroke-width="1.4" stroke-dasharray="none" opacity="0.22"/><circle cx="450.0" cy="504.0" r="148.20000000000002" fill="none" stroke="#D9BD8C" stroke-width="0.7" stroke-dasharray="none" opacity="0.22"/><circle cx="450.0" cy="504.0" r="104.50000000000001" fill="none" stroke="#D9BD8C" stroke-width="1.4" stroke-dasharray="3 5" opacity="0.22"/><circle cx="662.8" cy="504.0" r="8.549999999999999" fill="#D9BD8C" opacity="0.22"/><circle cx="634.2902059253286" cy="610.4" r="8.549999999999999" fill="#D9BD8C" opacity="0.22"/><circle cx="556.4000000000001" cy="688.2902059253286" r="8.549999999999999" fill="#D9BD8C" opacity="0.22"/><circle cx="450.0" cy="716.8" r="8.549999999999999" fill="#D9BD8C" opacity="0.22"/><circle cx="343.6" cy="688.2902059253286" r="8.549999999999999" fill="#D9BD8C" opacity="0.22"/><circle cx="265.70979407467144" cy="610.4" r="8.549999999999999" fill="#D9BD8C" opacity="0.22"/><circle cx="237.2" cy="504.0" r="8.549999999999999" fill="#D9BD8C" opacity="0.22"/><circle cx="265.70979407467144" cy="397.6" r="8.549999999999999" fill="#D9BD8C" opacity="0.22"/><circle cx="343.5999999999999" cy="319.7097940746715" r="8.549999999999999" fill="#D9BD8C" opacity="0.22"/><circle cx="449.99999999999994" cy="291.2" r="8.549999999999999" fill="#D9BD8C" opacity="0.22"/><circle cx="556.4000000000001" cy="319.70979407467144" r="8.549999999999999" fill="#D9BD8C" opacity="0.22"/><circle cx="634.2902059253286" cy="397.5999999999999" r="8.549999999999999" fill="#D9BD8C" opacity="0.22"/><g fill="#D9BD8C" opacity="0.10"><path d="M 311 203.5 C 367.25 203.5 382.25 252.25 356.0 282.25 C 337.25 302.5 314.75 297.25 312.5 317.5 C 311 334.75 327.5 342.25 341.0 334.75 C 322.25 349.75 288.5 342.25 284.75 319.75 C 281.0 293.5 296.0 274.75 277.25 252.25 C 258.5 226.0 284.75 203.5 311 203.5 Z" transform="rotate(181 311 271)" /></g><g fill="#D9BD8C" opacity="0.10"><path d="M 502 866.2 C 563.5 866.2 579.9 919.5 551.2 952.3 C 530.7 974.44 506.1 968.7 503.64 990.84 C 502 1009.7 520.04 1017.9 534.8 1009.7 C 514.3 1026.1 477.4 1017.9 473.3 993.3 C 469.2 964.6 485.6 944.1 465.1 919.5 C 444.6 890.8 473.3 866.2 502 866.2 Z" transform="rotate(137 502 940)" /></g><g fill="#D9BD8C" opacity="0.10"><path d="M 300 503.9 C 351.75 503.9 365.55 548.75 341.4 576.35 C 324.15 594.98 303.45 590.15 301.38 608.78 C 300 624.65 315.18 631.55 327.6 624.65 C 310.35 638.45 279.3 631.55 275.85 610.85 C 272.4 586.7 286.2 569.45 268.95 548.75 C 251.7 524.6 275.85 503.9 300 503.9 Z" transform="rotate(219 300 566)" /></g><g fill="#D9BD8C" opacity="0.10"><path d="M 699 497.1 C 752.25 497.1 766.45 543.25 741.6 571.65 C 723.85 590.82 702.55 585.85 700.42 605.02 C 699 621.35 714.62 628.45 727.4 621.35 C 709.65 635.55 677.7 628.45 674.15 607.15 C 670.6 582.3 684.8 564.55 667.05 543.25 C 649.3 518.4 674.15 497.1 699 497.1 Z" transform="rotate(89 699 561)" /></g><g fill="#D9BD8C" opacity="0.10"><path d="M 295 645.5 C 336.25 645.5 347.25 681.25 328.0 703.25 C 314.25 718.1 297.75 714.25 296.1 729.1 C 295 741.75 307.1 747.25 317.0 741.75 C 303.25 752.75 278.5 747.25 275.75 730.75 C 273.0 711.5 284.0 697.75 270.25 681.25 C 256.5 662.0 275.75 645.5 295 645.5 Z" transform="rotate(44 295 695)" /></g><g fill="#FBF7EF" opacity="0.9"><path d="M 450.0 387.0 C 547.5 387.0 573.5 471.5 528.0 523.5 C 495.5 558.6 456.5 549.5 452.6 584.6 C 450.0 614.5 478.6 627.5 502.0 614.5 C 469.5 640.5 411.0 627.5 404.5 588.5 C 398.0 543.0 424.0 510.5 391.5 471.5 C 359.0 426.0 404.5 387.0 450.0 387.0 Z" transform="rotate(0 450.0 504.0)" /></g><rect x="0" y="1186" width="900" height="6" fill="#D9BD8C" opacity="0.85"/><path d="M 0 1186 L 17.0 1170 L 34 1186 Z" fill="none" stroke="#D9BD8C" stroke-width="1.1" opacity="0.55"/><circle cx="17.0" cy="1166" r="2.1" fill="#D9BD8C" opacity="0.6"/><path d="M 34 1186 L 51.0 1170 L 68 1186 Z" fill="none" stroke="#D9BD8C" stroke-width="1.1" opacity="0.55"/><circle cx="51.0" cy="1166" r="2.1" fill="#D9BD8C" opacity="0.6"/><path d="M 68 1186 L 85.0 1170 L 102 1186 Z" fill="none" stroke="#D9BD8C" stroke-width="1.1" opacity="0.55"/><circle cx="85.0" cy="1166" r="2.1" fill="#D9BD8C" opacity="0.6"/><path d="M 102 1186 L 119.0 1170 L 136 1186 Z" fill="none" stroke="#D9BD8C" stroke-width="1.1" opacity="0.55"/><circle cx="119.0" cy="1166" r="2.1" fill="#D9BD8C" opacity="0.6"/><path d="M 136 1186 L 153.0 1170 L 170 1186 Z" fill="none" stroke="#D9BD8C" stroke-width="1.1" opacity="0.55"/><circle cx="153.0" cy="1166" r="2.1" fill="#D9BD8C" opacity="0.6"/><path d="M 170 1186 L 187.0 1170 L 204 1186 Z" fill="none" stroke="#D9BD8C" stroke-width="1.1" opacity="0.55"/><circle cx="187.0" cy="1166" r="2.1" fill="#D9BD8C" opacity="0.6"/><path d="M 204 1186 L 221.0 1170 L 238 1186 Z" fill="none" stroke="#D9BD8C" stroke-width="1.1" opacity="0.55"/><circle cx="221.0" cy="1166" r="2.1" fill="#D9BD8C" opacity="0.6"/><path d="M 238 1186 L 255.0 1170 L 272 1186 Z" fill="none" stroke="#D9BD8C" stroke-width="1.1" opacity="0.55"/><circle cx="255.0" cy="1166" r="2.1" fill="#D9BD8C" opacity="0.6"/><path d="M 272 1186 L 289.0 1170 L 306 1186 Z" fill="none" stroke="#D9BD8C" stroke-width="1.1" opacity="0.55"/><circle cx="289.0" cy="1166" r="2.1" fill="#D9BD8C" opacity="0.6"/><path d="M 306 1186 L 323.0 1170 L 340 1186 Z" fill="none" stroke="#D9BD8C" stroke-width="1.1" opacity="0.55"/><circle cx="323.0" cy="1166" r="2.1" fill="#D9BD8C" opacity="0.6"/><path d="M 340 1186 L 357.0 1170 L 374 1186 Z" fill="none" stroke="#D9BD8C" stroke-width="1.1" opacity="0.55"/><circle cx="357.0" cy="1166" r="2.1" fill="#D9BD8C" opacity="0.6"/><path d="M 374 1186 L 391.0 1170 L 408 1186 Z" fill="none" stroke="#D9BD8C" stroke-width="1.1" opacity="0.55"/><circle cx="391.0" cy="1166" r="2.1" fill="#D9BD8C" opacity="0.6"/><path d="M 408 1186 L 425.0 1170 L 442 1186 Z" fill="none" stroke="#D9BD8C" stroke-width="1.1" opacity="0.55"/><circle cx="425.0" cy="1166" r="2.1" fill="#D9BD8C" opacity="0.6"/><path d="M 442 1186 L 459.0 1170 L 476 1186 Z" fill="none" stroke="#D9BD8C" stroke-width="1.1" opacity="0.55"/><circle cx="459.0" cy="1166" r="2.1" fill="#D9BD8C" opacity="0.6"/><path d="M 476 1186 L 493.0 1170 L 510 1186 Z" fill="none" stroke="#D9BD8C" stroke-width="1.1" opacity="0.55"/><circle cx="493.0" cy="1166" r="2.1" fill="#D9BD8C" opacity="0.6"/><path d="M 510 1186 L 527.0 1170 L 544 1186 Z" fill="none" stroke="#D9BD8C" stroke-width="1.1" opacity="0.55"/><circle cx="527.0" cy="1166" r="2.1" fill="#D9BD8C" opacity="0.6"/><path d="M 544 1186 L 561.0 1170 L 578 1186 Z" fill="none" stroke="#D9BD8C" stroke-width="1.1" opacity="0.55"/><circle cx="561.0" cy="1166" r="2.1" fill="#D9BD8C" opacity="0.6"/><path d="M 578 1186 L 595.0 1170 L 612 1186 Z" fill="none" stroke="#D9BD8C" stroke-width="1.1" opacity="0.55"/><circle cx="595.0" cy="1166" r="2.1" fill="#D9BD8C" opacity="0.6"/><path d="M 612 1186 L 629.0 1170 L 646 1186 Z" fill="none" stroke="#D9BD8C" stroke-width="1.1" opacity="0.55"/><circle cx="629.0" cy="1166" r="2.1" fill="#D9BD8C" opacity="0.6"/><path d="M 646 1186 L 663.0 1170 L 680 1186 Z" fill="none" stroke="#D9BD8C" stroke-width="1.1" opacity="0.55"/><circle cx="663.0" cy="1166" r="2.1" fill="#D9BD8C" opacity="0.6"/><path d="M 680 1186 L 697.0 1170 L 714 1186 Z" fill="none" stroke="#D9BD8C" stroke-width="1.1" opacity="0.55"/><circle cx="697.0" cy="1166" r="2.1" fill="#D9BD8C" opacity="0.6"/><path d="M 714 1186 L 731.0 1170 L 748 1186 Z" fill="none" stroke="#D9BD8C" stroke-width="1.1" opacity="0.55"/><circle cx="731.0" cy="1166" r="2.1" fill="#D9BD8C" opacity="0.6"/><path d="M 748 1186 L 765.0 1170 L 782 1186 Z" fill="none" stroke="#D9BD8C" stroke-width="1.1" opacity="0.55"/><circle cx="765.0" cy="1166" r="2.1" fill="#D9BD8C" opacity="0.6"/><path d="M 782 1186 L 799.0 1170 L 816 1186 Z" fill="none" stroke="#D9BD8C" stroke-width="1.1" opacity="0.55"/><circle cx="799.0" cy="1166" r="2.1" fill="#D9BD8C" opacity="0.6"/><path d="M 816 1186 L 833.0 1170 L 850 1186 Z" fill="none" stroke="#D9BD8C" stroke-width="1.1" opacity="0.55"/><circle cx="833.0" cy="1166" r="2.1" fill="#D9BD8C" opacity="0.6"/><path d="M 850 1186 L 867.0 1170 L 884 1186 Z" fill="none" stroke="#D9BD8C" stroke-width="1.1" opacity="0.55"/><circle cx="867.0" cy="1166" r="2.1" fill="#D9BD8C" opacity="0.6"/><path d="M 884 1186 L 901.0 1170 L 918 1186 Z" fill="none" stroke="#D9BD8C" stroke-width="1.1" opacity="0.55"/><circle cx="901.0" cy="1166" r="2.1" fill="#D9BD8C" opacity="0.6"/><path d="M 918 1186 L 935.0 1170 L 952 1186 Z" fill="none" stroke="#D9BD8C" stroke-width="1.1" opacity="0.55"/><circle cx="935.0" cy="1166" r="2.1" fill="#D9BD8C" opacity="0.6"/></svg>