<svg xmlns="http://www.w3.org/2000/svg" viewBox="0 0 900 1200" width="900" height="1200" role="img"><defs>
      <radialGradient id="colGrad7" cx="30%" cy="20%" r="90%">
        <stop offset="0%" stop-color="#B08D57"/>
        <stop offset="100%" stop-color="#4A0C17"/>
      </radialGradient>
    </defs><rect width="900" height="1200" fill="url(#colGrad7)"/><circle cx="450.0" cy="504.0" r="190" fill="none" stroke="#D9BD8C" stroke-width="1.4" stroke-dasharray="none" opacity="0.22"/><circle cx="450.0" cy="504.0" r="148.20000000000002" fill="none" stroke="#D9BD8C" stroke-width="0.7" stroke-dasharray="none" opacity="0.22"/><circle cx="450.0" cy="504.0" r="104.50000000000001" fill="none" stroke="#D9BD8C" stroke-width="1.4" stroke-dasharray="3 5" opacity="0.22"/><circle cx="662.8" cy="504.0" r="8.549999999999999" fill="#D9BD8C" opacity="0.22"/><circle cx="634.2902059253286" cy="610.4" r="8.549999999999999" fill="#D9BD8C" opacity="0.22"/><circle cx="556.4000000000001" cy="688.2902059253286" r="8.549999999999999" fill="#D9BD8C" opacity="0.22"/><circle cx="450.0" cy="716.8" r="8.549999999999999" fill="#D9BD8C" opacity="0.22"/><circle cx="343.6" cy="688.2902059253286" r="8.549999999999999" fill="#D9BD8C" opacity="0.22"/><circle cx="265.70979407467144" cy="610.4" r="8.549999999999999" fill="#D9BD8C" opacity="0.22"/><circle cx="237.2" cy="504.0" r="8.549999999999999" fill="#D9BD8C" opacity="0.22"/><circle cx="265.70979407467144" cy="397.6" r="8.549999999999999" fill="#D9BD8C" opacity="0.22"/><circle cx="343.5999999999999" cy="319.7097940746715" r="8.549999999999999" fill="#D9BD8C" opacity="0.22"/><circle cx="449.99999999999994" cy="291.2" r="8.549999999999999" fill="#D9BD8C" opacity="0.22"/><circle cx="556.4000000000001" cy="319.70979407467144" r="8.549999999999999" fill="#D9BD8C" opacity="0.22"/><circle cx="634.2902059253286" cy="397.5999999999999" r="8.549999999999999" fill="#D9BD8C" opacity="0.22"/><g fill="#D9BD8C" opacity="0.10"><path d="M 773 579.9 C 824.75 579.9 838.55 624.75 814.4 652.35 C 797.15 670.98 776.45 666.15 774.38 684.78 C 773 700.65 788.18 707.55 800.6 700.65 C 783.35 714.45 752.3 707.55 748.85 686.85 C 745.4 662.7 759.2 645.45 741.95 624.75 C 724.7 600.6 748.85 579.9 773 579.9 Z" transform="rotate(354 773 642)" /></g><g fill="#D9BD8C" opacity="0.10"><path d="M 423 580.0 C 483.0 580.0 499.0 632.0 471.0 664.0 C 451.0 685.6 427.0 680.0 424.6 701.6 C 423 720.0 440.6 728.0 455.0 720.0 C 435.0 736.0 399.0 728.0 395.0 704.0 C 391.0 676.0 407.0 656.0 387.0 632.0 C 367.0 604.0 395.0 580.0 423 580.0 Z" transform="rotate(218 423 652)" /></g><g fill="#D9BD8C" opacity="0.10"><path d="M 407 56.3 C 476.75 56.3 495.35 116.75 462.8 153.95 C 439.55 179.06 411.65 172.55 408.86 197.66 C 407 219.05 427.46 228.35 444.2 219.05 C 420.95 237.65 379.1 228.35 374.45 200.45 C 369.8 167.9 388.4 144.65 365.15 116.75 C 341.9 84.2 374.45 56.3 407 56.3 Z" transform="rotate(198 407 140)" /></g><g fill="#D9BD8C" opacity="0.10"><path d="M 761 990.3 C 808.25 990.3 820.85 1031.25 798.8 1056.45 C 783.05 1073.46 764.15 1069.05 762.26 1086.06 C 761 1100.55 774.86 1106.85 786.2 1100.55 C 770.45 1113.15 742.1 1106.85 738.95 1087.95 C 735.8 1065.9 748.4 1050.15 732.65 1031.25 C 716.9 1009.2 738.95 990.3 761 990.3 Z" transform="rotate(298 761 1047)" /></g><g fill="#D9BD8C" opacity="0.10"><path d="M 473 163.3 C 520.25 163.3 532.85 204.25 510.8 229.45 C 495.05 246.46 476.15 242.05 474.26 259.06 C 473 273.55 486.86 279.85 498.2 273.55 C 482.45 286.15 454.1 279.85 450.95 260.95 C 447.8 238.9 460.4 223.15 444.65 204.25 C 428.9 182.2 450.95 163.3 473 163.3 Z" transform="rotate(344 473 220)" /></g><g fill="#FBF7EF" opacity="0.9"><path d="M 450.0 387.0 C 547.5 387.0 573.5 471.5 528.0 523.5 C 495.5 558.6 456.5 549.5 452.6 584.6 C 450.0 614.5 478.6 627.5 502.0 614.5 C 469.5 640.5 411.0 627.5 404.5 588.5 C 398.0 543.0 424.0 510.5 391.5 471.5 C 359.0 426.0 404.5 387.0 450.0 387.0 Z" transform="rotate(0 450.0 504.0)" /></g><rect x="0" y="1186" width="900" height="6" fill="#D9BD8C" opacity="0.85"/><path d="M 0 1186 L 17.0 1170 L 34 1186 Z" fill="none" stroke="#D9BD8C" stroke-width="1.1" opacity="0.55"/><circle cx="17.0" cy="1166" r="2.1" fill="#D9BD8C" opacity="0.6"/><path d="M 34 1186 L 51.0 1170 L 68 1186 Z" fill="none" stroke="#D9BD8C" stroke-width="1.1" opacity="0.55"/><circle cx="51.0" cy="1166" r="2.1" fill="#D9BD8C" opacity="0.6"/><path d="M 68 1186 L 85.0 1170 L 102 1186 Z" fill="none" stroke="#D9BD8C" stroke-width="1.1" opacity="0.55"/><circle cx="85.0" cy="1166" r="2.1" fill="#D9BD8C" opacity="0.6"/><path d="M 102 1186 L 119.0 1170 L 136 1186 Z" fill="none" stroke="#D9BD8C" stroke-width="1.1" opacity="0.55"/><circle cx="119.0" cy="1166" r="2.1" fill="#D9BD8C" opacity="0.6"/><path d="M 136 1186 L 153.0 1170 L 170 1186 Z" fill="none" stroke="#D9BD8C" stroke-width="1.1" opacity="0.55"/><circle cx="153.0" cy="1166" r="2.1" fill="#D9BD8C" opacity="0.6"/><path d="M 170 1186 L 187.0 1170 L 204 1186 Z" fill="none" stroke="#D9BD8C" stroke-width="1.1" opacity="0.55"/><circle cx="187.0" cy="1166" r="2.1" fill="#D9BD8C" opacity="0.6"/><path d="M 204 1186 L 221.0 1170 L 238 1186 Z" fill="none" stroke="#D9BD8C" stroke-width="1.1" opacity="0.55"/><circle cx="221.0" cy="1166" r="2.1" fill="#D9BD8C" opacity="0.6"/><path d="M 238 1186 L 255.0 1170 L 272 1186 Z" fill="none" stroke="#D9BD8C" stroke-width="1.1" opacity="0.55"/><circle cx="255.0" cy="1166" r="2.1" fill="#D9BD8C" opacity="0.6"/><path d="M 272 1186 L 289.0 1170 L 306 1186 Z" fill="none" stroke="#D9BD8C" stroke-width="1.1" opacity="0.55"/><circle cx="289.0" cy="1166" r="2.1" fill="#D9BD8C" opacity="0.6"/><path d="M 306 1186 L 323.0 1170 L 340 1186 Z" fill="none" stroke="#D9BD8C" stroke-width="1.1" opacity="0.55"/><circle cx="323.0" cy="1166" r="2.1" fill="#D9BD8C" opacity="0.6"/><path d="M 340 1186 L 357.0 1170 L 374 1186 Z" fill="none" stroke="#D9BD8C" stroke-width="1.1" opacity="0.55"/><circle cx="357.0" cy="1166" r="2.1" fill="#D9BD8C" opacity="0.6"/><path d="M 374 1186 L 391.0 1170 L 408 1186 Z" fill="none" stroke="#D9BD8C" stroke-width="1.1" opacity="0.55"/><circle cx="391.0" cy="1166" r="2.1" fill="#D9BD8C" opacity="0.6"/><path d="M 408 1186 L 425.0 1170 L 442 1186 Z" fill="none" stroke="#D9BD8C" stroke-width="1.1" opacity="0.55"/><circle cx="425.0" cy="1166" r="2.1" fill="#D9BD8C" opacity="0.6"/><path d="M 442 1186 L 459.0 1170 L 476 1186 Z" fill="none" stroke="#D9BD8C" stroke-width="1.1" opacity="0.55"/><circle cx="459.0" cy="1166" r="2.1" fill="#D9BD8C" opacity="0.6"/><path d="M 476 1186 L 493.0 1170 L 510 1186 Z" fill="none" stroke="#D9BD8C" stroke-width="1.1" opacity="0.55"/><circle cx="493.0" cy="1166" r="2.1" fill="#D9BD8C" opacity="0.6"/><path d="M 510 1186 L 527.0 1170 L 544 1186 Z" fill="none" stroke="#D9BD8C" stroke-width="1.1" opacity="0.55"/><circle cx="527.0" cy="1166" r="2.1" fill="#D9BD8C" opacity="0.6"/><path d="M 544 1186 L 561.0 1170 L 578 1186 Z" fill="none" stroke="#D9BD8C" stroke-width="1.1" opacity="0.55"/><circle cx="561.0" cy="1166" r="2.1" fill="#D9BD8C" opacity="0.6"/><path d="M 578 1186 L 595.0 1170 L 612 1186 Z" fill="none" stroke="#D9BD8C" stroke-width="1.1" opacity="0.55"/><circle cx="595.0" cy="1166" r="2.1" fill="#D9BD8C" opacity="0.6"/><path d="M 612 1186 L 629.0 1170 L 646 1186 Z" fill="none" stroke="#D9BD8C" stroke-width="1.1" opacity="0.55"/><circle cx="629.0" cy="1166" r="2.1" fill="#D9BD8C" opacity="0.6"/><path d="M 646 1186 L 663.0 1170 L 680 1186 Z" fill="none" stroke="#D9BD8C" stroke-width="1.1" opacity="0.55"/><circle cx="663.0" cy="1166" r="2.1" fill="#D9BD8C" opacity="0.6"/><path d="M 680 1186 L 697.0 1170 L 714 1186 Z" fill="none" stroke="#D9BD8C" stroke-width="1.1" opacity="0.55"/><circle cx="697.0" cy="1166" r="2.1" fill="#D9BD8C" opacity="0.6"/><path d="M 714 1186 L 731.0 1170 L 748 1186 Z" fill="none" stroke="#D9BD8C" stroke-width="1.1" opacity="0.55"/><circle cx="731.0" cy="1166" r="2.1" fill="#D9BD8C" opacity="0.6"/><path d="M 748 1186 L 765.0 1170 L 782 1186 Z" fill="none" stroke="#D9BD8C" stroke-width="1.1" opacity="0.55"/><circle cx="765.0" cy="1166" r="2.1" fill="#D9BD8C" opacity="0.6"/><path d="M 782 1186 L 799.0 1170 L 816 1186 Z" fill="none" stroke="#D9BD8C" stroke-width="1.1" opacity="0.55"/><circle cx="799.0" cy="1166" r="2.1" fill="#D9BD8C" opacity="0.6"/><path d="M 816 1186 L 833.0 1170 L 850 1186 Z" fill="none" stroke="#D9BD8C" stroke-width="1.1" opacity="0.55"/><circle cx="833.0" cy="1166" r="2.1" fill="#D9BD8C" opacity="0.6"/><path d="M 850 1186 L 867.0 1170 L 884 1186 Z" fill="none" stroke="#D9BD8C" stroke-width="1.1" opacity="0.55"/><circle cx="867.0" cy="1166" r="2.1" fill="#D9BD8C" opacity="0.6"/><path d="M 884 1186 L 901.0 1170 L 918 1186 Z" fill="none" stroke="#D9BD8C" stroke-width="1.1" opacity="0.55"/><circle cx="901.0" cy="1166" r="2.1" fill="#D9BD8C" opacity="0.6"/><path d="M 918 1186 L 935.0 1170 L 952 1186 Z" fill="none" stroke="#D9BD8C" stroke-width="1.1" opacity="0.55"/><circle cx="935.0" cy="1166" r="2.1" fill="#D9BD8C" opacity="0.6"/></svg>