<svg xmlns="http://www.w3.org/2000/svg" viewBox="0 0 900 1200" width="900" height="1200" role="img"><defs>
      <radialGradient id="colGrad5" cx="30%" cy="20%" r="90%">
        <stop offset="0%" stop-color="#6B1220"/>
        <stop offset="100%" stop-color="#3D0A14"/>
      </radialGradient>
    </defs><rect width="900" height="1200" fill="url(#colGrad5)"/><circle cx="450.0" cy="504.0" r="190" fill="none" stroke="#D9BD8C" stroke-width="1.4" stroke-dasharray="none" opacity="0.22"/><circle cx="450.0" cy="504.0" r="148.20000000000002" fill="none" stroke="#D9BD8C" stroke-width="0.7" stroke-dasharray="none" opacity="0.22"/><circle cx="450.0" cy="504.0" r="104.50000000000001" fill="none" stroke="#D9BD8C" stroke-width="1.4" stroke-dasharray="3 5" opacity="0.22"/><circle cx="662.8" cy="504.0" r="8.549999999999999" fill="#D9BD8C" opacity="0.22"/><circle cx="634.2902059253286" cy="610.4" r="8.549999999999999" fill="#D9BD8C" opacity="0.22"/><circle cx="556.4000000000001" cy="688.2902059253286" r="8.549999999999999" fill="#D9BD8C" opacity="0.22"/><circle cx="450.0" cy="716.8" r="8.549999999999999" fill="#D9BD8C" opacity="0.22"/><circle cx="343.6" cy="688.2902059253286" r="8.549999999999999" fill="#D9BD8C" opacity="0.22"/><circle cx="265.70979407467144" cy="610.4" r="8.549999999999999" fill="#D9BD8C" opacity="0.22"/><circle cx="237.2" cy="504.0" r="8.549999999999999" fill="#D9BD8C" opacity="0.22"/><circle cx="265.70979407467144" cy="397.6" r="8.549999999999999" fill="#D9BD8C" opacity="0.22"/><circle cx="343.5999999999999" cy="319.7097940746715" r="8.549999999999999" fill="#D9BD8C" opacity="0.22"/><circle cx="449.99999999999994" cy="291.2" r="8.549999999999999" fill="#D9BD8C" opacity="0.22"/><circle cx="556.4000000000001" cy="319.70979407467144" r="8.549999999999999" fill="#D9BD8C" opacity="0.22"/><circle cx="634.2902059253286" cy="397.5999999999999" r="8.549999999999999" fill="#D9BD8C" opacity="0.22"/><g fill="#D9BD8C" opacity="0.10"><path d="M 306 630.6 C 370.5 630.6 387.7 686.5 357.6 720.9 C 336.1 744.12 310.3 738.1 307.72 761.32 C 306 781.1 324.92 789.7 340.4 781.1 C 318.9 798.3 280.2 789.7 275.9 763.9 C 271.6 733.8 288.8 712.3 267.3 686.5 C 245.8 656.4 275.9 630.6 306 630.6 Z" transform="rotate(200 306 708)" /></g><g fill="#D9BD8C" opacity="0.10"><path d="M 766 737.8 C 817.0 737.8 830.6 782.0 806.8 809.2 C 789.8 827.56 769.4 822.8 767.36 841.16 C 766 856.8 780.96 863.6 793.2 856.8 C 776.2 870.4 745.6 863.6 742.2 843.2 C 738.8 819.4 752.4 802.4 735.4 782.0 C 718.4 758.2 742.2 737.8 766 737.8 Z" transform="rotate(266 766 799)" /></g><g fill="#D9BD8C" opacity="0.10"><path d="M 297 763.9 C 371.25 763.9 391.05 828.25 356.4 867.85 C 331.65 894.58 301.95 887.65 298.98 914.38 C 297 937.15 318.78 947.05 336.6 937.15 C 311.85 956.95 267.3 947.05 262.35 917.35 C 257.4 882.7 277.2 857.95 252.45 828.25 C 227.7 793.6 262.35 763.9 297 763.9 Z" transform="rotate(315 297 853)" /></g><g fill="#D9BD8C" opacity="0.10"><path d="M 292 237.0 C 352.0 237.0 368.0 289.0 340.0 321.0 C 320.0 342.6 296.0 337.0 293.6 358.6 C 292 377.0 309.6 385.0 324.0 377.0 C 304.0 393.0 268.0 385.0 264.0 361.0 C 260.0 333.0 276.0 313.0 256.0 289.0 C 236.0 261.0 264.0 237.0 292 237.0 Z" transform="rotate(290 292 309)" /></g><g fill="#D9BD8C" opacity="0.10"><path d="M 431 773.2 C 477.5 773.2 489.9 813.5 468.2 838.3 C 452.7 855.04 434.1 850.7 432.24 867.44 C 431 881.7 444.64 887.9 455.8 881.7 C 440.3 894.1 412.4 887.9 409.3 869.3 C 406.2 847.6 418.6 832.1 403.1 813.5 C 387.6 791.8 409.3 773.2 431 773.2 Z" transform="rotate(358 431 829)" /></g><g fill="#FBF7EF" opacity="0.9"><path d="M 450.0 387.0 C 547.5 387.0 573.5 471.5 528.0 523.5 C 495.5 558.6 456.5 549.5 452.6 584.6 C 450.0 614.5 478.6 627.5 502.0 614.5 C 469.5 640.5 411.0 627.5 404.5 588.5 C 398.0 543.0 424.0 510.5 391.5 471.5 C 359.0 426.0 404.5 387.0 450.0 387.0 Z" transform="rotate(0 450.0 504.0)" /></g><rect x="0" y="1186" width="900" height="6" fill="#D9BD8C" opacity="0.85"/><path d="M 0 1186 L 17.0 1170 L 34 1186 Z" fill="none" stroke="#D9BD8C" stroke-width="1.1" opacity="0.55"/><circle cx="17.0" cy="1166" r="2.1" fill="#D9BD8C" opacity="0.6"/><path d="M 34 1186 L 51.0 1170 L 68 1186 Z" fill="none" stroke="#D9BD8C" stroke-width="1.1" opacity="0.55"/><circle cx="51.0" cy="1166" r="2.1" fill="#D9BD8C" opacity="0.6"/><path d="M 68 1186 L 85.0 1170 L 102 1186 Z" fill="none" stroke="#D9BD8C" stroke-width="1.1" opacity="0.55"/><circle cx="85.0" cy="1166" r="2.1" fill="#D9BD8C" opacity="0.6"/><path d="M 102 1186 L 119.0 1170 L 136 1186 Z" fill="none" stroke="#D9BD8C" stroke-width="1.1" opacity="0.55"/><circle cx="119.0" cy="1166" r="2.1" fill="#D9BD8C" opacity="0.6"/><path d="M 136 1186 L 153.0 1170 L 170 1186 Z" fill="none" stroke="#D9BD8C" stroke-width="1.1" opacity="0.55"/><circle cx="153.0" cy="1166" r="2.1" fill="#D9BD8C" opacity="0.6"/><path d="M 170 1186 L 187.0 1170 L 204 1186 Z" fill="none" stroke="#D9BD8C" stroke-width="1.1" opacity="0.55"/><circle cx="187.0" cy="1166" r="2.1" fill="#D9BD8C" opacity="0.6"/><path d="M 204 1186 L 221.0 1170 L 238 1186 Z" fill="none" stroke="#D9BD8C" stroke-width="1.1" opacity="0.55"/><circle cx="221.0" cy="1166" r="2.1" fill="#D9BD8C" opacity="0.6"/><path d="M 238 1186 L 255.0 1170 L 272 1186 Z" fill="none" stroke="#D9BD8C" stroke-width="1.1" opacity="0.55"/><circle cx="255.0" cy="1166" r="2.1" fill="#D9BD8C" opacity="0.6"/><path d="M 272 1186 L 289.0 1170 L 306 1186 Z" fill="none" stroke="#D9BD8C" stroke-width="1.1" opacity="0.55"/><circle cx="289.0" cy="1166" r="2.1" fill="#D9BD8C" opacity="0.6"/><path d="M 306 1186 L 323.0 1170 L 340 1186 Z" fill="none" stroke="#D9BD8C" stroke-width="1.1" opacity="0.55"/><circle cx="323.0" cy="1166" r="2.1" fill="#D9BD8C" opacity="0.6"/><path d="M 340 1186 L 357.0 1170 L 374 1186 Z" fill="none" stroke="#D9BD8C" stroke-width="1.1" opacity="0.55"/><circle cx="357.0" cy="1166" r="2.1" fill="#D9BD8C" opacity="0.6"/><path d="M 374 1186 L 391.0 1170 L 408 1186 Z" fill="none" stroke="#D9BD8C" stroke-width="1.1" opacity="0.55"/><circle cx="391.0" cy="1166" r="2.1" fill="#D9BD8C" opacity="0.6"/><path d="M 408 1186 L 425.0 1170 L 442 1186 Z" fill="none" stroke="#D9BD8C" stroke-width="1.1" opacity="0.55"/><circle cx="425.0" cy="1166" r="2.1" fill="#D9BD8C" opacity="0.6"/><path d="M 442 1186 L 459.0 1170 L 476 1186 Z" fill="none" stroke="#D9BD8C" stroke-width="1.1" opacity="0.55"/><circle cx="459.0" cy="1166" r="2.1" fill="#D9BD8C" opacity="0.6"/><path d="M 476 1186 L 493.0 1170 L 510 1186 Z" fill="none" stroke="#D9BD8C" stroke-width="1.1" opacity="0.55"/><circle cx="493.0" cy="1166" r="2.1" fill="#D9BD8C" opacity="0.6"/><path d="M 510 1186 L 527.0 1170 L 544 1186 Z" fill="none" stroke="#D9BD8C" stroke-width="1.1" opacity="0.55"/><circle cx="527.0" cy="1166" r="2.1" fill="#D9BD8C" opacity="0.6"/><path d="M 544 1186 L 561.0 1170 L 578 1186 Z" fill="none" stroke="#D9BD8C" stroke-width="1.1" opacity="0.55"/><circle cx="561.0" cy="1166" r="2.1" fill="#D9BD8C" opacity="0.6"/><path d="M 578 1186 L 595.0 1170 L 612 1186 Z" fill="none" stroke="#D9BD8C" stroke-width="1.1" opacity="0.55"/><circle cx="595.0" cy="1166" r="2.1" fill="#D9BD8C" opacity="0.6"/><path d="M 612 1186 L 629.0 1170 L 646 1186 Z" fill="none" stroke="#D9BD8C" stroke-width="1.1" opacity="0.55"/><circle cx="629.0" cy="1166" r="2.1" fill="#D9BD8C" opacity="0.6"/><path d="M 646 1186 L 663.0 1170 L 680 1186 Z" fill="none" stroke="#D9BD8C" stroke-width="1.1" opacity="0.55"/><circle cx="663.0" cy="1166" r="2.1" fill="#D9BD8C" opacity="0.6"/><path d="M 680 1186 L 697.0 1170 L 714 1186 Z" fill="none" stroke="#D9BD8C" stroke-width="1.1" opacity="0.55"/><circle cx="697.0" cy="1166" r="2.1" fill="#D9BD8C" opacity="0.6"/><path d="M 714 1186 L 731.0 1170 L 748 1186 Z" fill="none" stroke="#D9BD8C" stroke-width="1.1" opacity="0.55"/><circle cx="731.0" cy="1166" r="2.1" fill="#D9BD8C" opacity="0.6"/><path d="M 748 1186 L 765.0 1170 L 782 1186 Z" fill="none" stroke="#D9BD8C" stroke-width="1.1" opacity="0.55"/><circle cx="765.0" cy="1166" r="2.1" fill="#D9BD8C" opacity="0.6"/><path d="M 782 1186 L 799.0 1170 L 816 1186 Z" fill="none" stroke="#D9BD8C" stroke-width="1.1" opacity="0.55"/><circle cx="799.0" cy="1166" r="2.1" fill="#D9BD8C" opacity="0.6"/><path d="M 816 1186 L 833.0 1170 L 850 1186 Z" fill="none" stroke="#D9BD8C" stroke-width="1.1" opacity="0.55"/><circle cx="833.0" cy="1166" r="2.1" fill="#D9BD8C" opacity="0.6"/><path d="M 850 1186 L 867.0 1170 L 884 1186 Z" fill="none" stroke="#D9BD8C" stroke-width="1.1" opacity="0.55"/><circle cx="867.0" cy="1166" r="2.1" fill="#D9BD8C" opacity="0.6"/><path d="M 884 1186 L 901.0 1170 L 918 1186 Z" fill="none" stroke="#D9BD8C" stroke-width="1.1" opacity="0.55"/><circle cx="901.0" cy="1166" r="2.1" fill="#D9BD8C" opacity="0.6"/><path d="M 918 1186 L 935.0 1170 L 952 1186 Z" fill="none" stroke="#D9BD8C" stroke-width="1.1" opacity="0.55"/><circle cx="935.0" cy="1166" r="2.1" fill="#D9BD8C" opacity="0.6"/></svg>